<svg xmlns="http://www.w3.org/2000/svg" viewBox="0 0 32 32"><rect width="32" height="32" fill="#4F7EC2" rx="8"/><g fill="#fff"><path d="M15.34 17.772c.143-.225.27-.432.408-.63.023-.033.094-.045.142-.045.646-.003 1.292-.002 1.938-.002.326 0 .398-.072.398-.398v-.23c-.002-.267-.074-.34-.337-.34-.524-.002-1.048.008-1.572-.006a1.316 1.316 0 0 1-.48-.11c-.233-.102-.364-.308-.422-.551a1.973 1.973 0 0 1-.005-.9.833.833 0 0 1 .753-.658c.188-.018.378-.015.568-.015.682-.003 1.364-.002 2.046-.002.03 0 .061.003.122.006-.1.158-.202.293-.275.444-.087.177-.211.226-.405.221-.577-.013-1.156-.005-1.734-.004-.253 0-.322.07-.325.32 0 .09-.002.181.001.271.007.201.083.28.283.28.493.002.985 0 1.477.002.104 0 .208.006.31.02.422.06.703.305.76.727.038.278.04.57 0 .848-.07.473-.413.74-.95.748-.89.013-1.78.004-2.702.004Zm5.193-3.22v.888h2.123v.655H20.54v1h.158c.64 0 1.282.002 1.923-.002.087 0 .14.022.186.1.111.188.233.371.36.573h-3.42v-.146c0-1.196.001-2.393-.002-3.59 0-.1.018-.143.132-.143 1.052.004 2.104.003 3.156.003.03 0 .062.005.12.01-.14.218-.266.424-.403.622-.02.028-.09.029-.136.029-.642.002-1.283 0-1.924 0h-.157Zm-13.341.87H9.35v-.221c0-.393.002-.786-.002-1.179-.001-.096.02-.138.127-.134.21.007.422.002.64.002v3.877h-.762V16.11H7.199v1.656h-.766V13.9h.76v1.522Zm6.303.884-.708-1.618-.704 1.618h1.412Zm-2.926 1.468c.03-.067.048-.117.07-.164.569-1.2 1.138-2.398 1.703-3.598.043-.09.091-.13.193-.125.18.009.362-.003.542.006.046.003.113.04.132.08.598 1.25 1.191 2.502 1.785 3.754.004.007.002.017.005.046-.273 0-.545.002-.817-.004-.025 0-.056-.052-.072-.086-.094-.205-.188-.41-.274-.619-.031-.074-.073-.099-.153-.098-.596.003-1.192.003-1.788 0-.08 0-.122.025-.153.099-.087.208-.178.415-.277.617-.02.041-.08.087-.124.088-.248.009-.497.005-.772.005Zm-4.614-.002c-.866 0-1.702.016-2.536-.004-.694-.017-1.118-.47-1.128-1.164a54.38 54.38 0 0 1 0-1.558c.01-.676.41-1.121 1.082-1.144.84-.028 1.68-.01 2.519-.012.012 0 .024.008.053.018-.136.213-.265.423-.403.626-.02.03-.087.037-.132.038-.551.002-1.102.001-1.653.001-.04 0-.081 0-.122.002-.38.009-.535.159-.538.538-.005.47-.005.94 0 1.409.003.385.158.542.546.545.565.006 1.13.007 1.693-.002.131-.001.205.04.268.151.103.183.224.357.351.556Z"/><path d="M29.548 14.702h-.135c-.978 0-1.957-.002-2.936.003-.128 0-.173-.033-.17-.166.01-.333.003-.667.004-1.001 0-.188.055-.245.238-.246.474-.001.947-.002 1.42.002.058 0 .13.02.17.058.459.428.912.861 1.367 1.293.011.011.02.027.042.057Z"/><path d="M28.326 18.184c-.003-.057-.007-.096-.007-.135 0-.98.002-1.96-.003-2.94 0-.133.04-.17.17-.167.329.008.659.002.988.003.191 0 .236.042.237.227.001.483.003.967-.003 1.45a.312.312 0 0 1-.071.193c-.41.44-.826.873-1.24 1.308-.017.018-.038.033-.071.061Zm-3.472-1.214h3.044c.178 0 .178 0 .178.181v.974c0 .178-.059.236-.235.237-.482 0-.965.002-1.448-.002a.25.25 0 0 1-.157-.055c-.447-.42-.89-.844-1.334-1.267-.012-.012-.02-.028-.049-.068Zm1.189-3.478c.003.061.007.105.007.148 0 .966-.002 1.932.003 2.898.001.137-.037.18-.175.176-.334-.01-.669-.002-1.003-.003-.167-.001-.215-.05-.215-.22-.001-.484-.003-.967.002-1.45 0-.058.02-.13.057-.17.417-.445.838-.885 1.258-1.326.015-.016.033-.027.066-.053Z"/></g></svg>
