<svg width="29" height="29" viewBox="0 0 29 29" fill="none" xmlns="http://www.w3.org/2000/svg">
<path d="M24.1667 10.875H13.2917C11.957 10.875 10.875 11.957 10.875 13.2917V24.1667C10.875 25.5014 11.957 26.5833 13.2917 26.5833H24.1667C25.5014 26.5833 26.5833 25.5014 26.5833 24.1667V13.2917C26.5833 11.957 25.5014 10.875 24.1667 10.875Z" stroke="white" stroke-width="0.583333" stroke-linecap="round" stroke-linejoin="round"/>
<path d="M6.04167 18.125H4.83334C4.1924 18.125 3.57771 17.8704 3.1245 17.4172C2.67128 16.964 2.41667 16.3493 2.41667 15.7084V4.83335C2.41667 4.19241 2.67128 3.57773 3.1245 3.12451C3.57771 2.6713 4.1924 2.41669 4.83334 2.41669H15.7083C16.3493 2.41669 16.964 2.6713 17.4172 3.12451C17.8704 3.57773 18.125 4.19241 18.125 4.83335V6.04169" stroke="white" stroke-width="0.583333" stroke-linecap="round" stroke-linejoin="round"/>
</svg>
