<svg width="54" height="104" viewBox="0 0 54 104" fill="none" xmlns="http://www.w3.org/2000/svg">
<path d="M52.5 0V16.5152C52.5 21.4095 48.9575 25.5847 44.1285 26.3817L9.37154 32.1183C4.54252 32.9153 1 37.0905 1 41.9848V45M1 45V69M1 45L3.65056 49.8192C5.40807 53.0147 8.7658 55 12.4127 55H14.5M1 69V90.4314C1 92.1165 1.42579 93.7742 2.23784 95.2506L3.65056 97.8192C5.40807 101.015 8.7658 103 12.4127 103H14.5M1 69L3.65056 73.8192C5.40807 77.0147 8.7658 79 12.4127 79H14.5" stroke="#3E3E3E" stroke-width="2"/>
</svg>
