<svg width="80" height="80" viewBox="0 0 80 80" fill="none" xmlns="http://www.w3.org/2000/svg">
<circle cx="40" cy="40" r="40" fill="white"/>
<path fill-rule="evenodd" clip-rule="evenodd" d="M40 80C62.0914 80 80 62.0914 80 40C80 17.9086 62.0914 0 40 0C17.9086 0 0 17.9086 0 40C0 62.0914 17.9086 80 40 80ZM58.034 31.8564L68.534 24.9282L58.034 18V21.8032L52.1418 21.6396C47.7711 21.5182 43.9712 24.6173 43.2113 28.9232C42.3333 32.5712 41.4142 36.2328 40.454 39.9082C39.334 44.3482 38.234 48.4482 37.154 52.2082H36.794C35.594 48.3282 34.434 44.6082 33.314 41.0482C32.234 37.4482 31.154 33.6882 30.074 29.7682C29.634 28.0882 28.934 26.9482 27.974 26.3482C27.054 25.7082 25.854 25.3882 24.374 25.3882C23.174 25.3882 21.534 25.9282 21.534 25.9282C21.5015 25.942 21.337 25.9968 21.1668 26.0536C20.9805 26.1157 20.7873 26.1801 20.7527 26.1954L9.14738 31.6675C8.22804 32.101 7.78004 33.1551 8.10596 34.1178L8.98074 36.7018C9.29746 37.6374 10.2497 38.2016 11.2224 38.0301L21.05 36.2973C21.3681 37.311 21.6961 38.3347 22.034 39.3682C22.714 41.4482 23.414 43.5082 24.134 45.5482C24.894 47.5482 25.614 49.4482 26.294 51.2482C27.014 53.0482 27.694 54.6882 28.334 56.1682C28.974 57.6082 29.514 58.7882 29.954 59.7082C30.394 60.5882 31.214 61.2882 32.414 61.8082C33.614 62.2882 35.054 62.5282 36.734 62.5282C38.134 62.5282 39.414 62.3482 40.574 61.9882C41.774 61.6282 42.654 61.2082 43.214 60.7282C43.654 60.1282 44.234 59.0682 44.954 57.5482C45.674 55.9882 46.434 54.2082 47.234 52.2082C48.074 50.1682 48.894 48.0082 49.694 45.7282C50.534 43.4482 51.274 41.2682 51.914 39.1882C52.594 37.0682 53.134 35.1682 53.534 33.4882C53.7878 32.519 53.9152 31.4833 54.0082 30.7266C54.0765 30.1716 54.1263 29.7667 54.194 29.6482C54.194 29.6482 54.534 28.9283 55.034 28.9283L58.034 28.3493V31.8564Z" fill="#1E1E1E"/>
</svg>
