<svg xmlns="http://www.w3.org/2000/svg" viewBox="0 0 32 32"><rect width="32" height="32" fill="#408800" rx="8"/><path fill="#fff" d="m18.44 18.537 1.079.697h-4.938l-2.216 6.823c-2.448-.945-4.715-3.136-5.665-5.6-1.013-2.385-1.013-5.383.022-7.779.971-2.464 3.303-4.688 5.784-5.602 1.953-.806 4.566-.89 6.636-.257 2.377.677 4.62 2.374 5.926 4.589 1.458 2.428 1.867 5.514.981 8.287a10.009 10.009 0 0 1-3.303 4.86l-2.727-4.527 3.796 2.109c.014 0-1.636-1.44-4.952-4.322l6.432.978c.015 0-2.01-.724-6.076-2.172l6.303-1.516c.015 0-2.137.13-6.454.388l5.062-3.817c.007-.014-1.903.94-5.73 2.862l3.139-5.516c0-.006-1.374 1.585-4.122 4.773l.787-6.299c0-.007-.643 2.028-1.93 6.105l-1.652-6.3c-.007-.006.13 2.172.411 6.535l-3.895-5.05c-.009-.007.962 1.859 2.913 5.6l-5.57-3.033c-.007 0 1.633 1.358 4.92 4.074l-6.322-.665c-.015.008 2.029.617 6.13 1.828l-6.097 1.784c-.008.006 2.089-.224 6.29-.689L8.46 21.867a.376.376 0 0 0 .066.011l3.96-2.064.929-1.472h1.056l-.733-.516 2.45-3.914-1.446 4.623 3.698.002Z"/></svg>
