<svg xmlns="http://www.w3.org/2000/svg" fill="none" viewBox="0 0 32 32"><rect width="32" height="32" fill="#2E2E2E" rx="8"/><path fill="#EAEAEA" d="M16.277 8.084a.5.5 0 0 0-.554 0l-7.5 5A.5.5 0 0 0 8.5 14h1.875v7H9.5a.5.5 0 0 0 0 1h13a.5.5 0 0 0 0-1h-.875v-7H23.5a.5.5 0 0 0 .277-.916l-7.5-5ZM20.375 14v7h-1.25v-7h1.25Zm-2.5 0v7h-1.25v-7h1.25Zm-2.5 0v7h-1.25v-7h1.25Zm-2.5 0v7h-1.25v-7h1.25ZM16 12a1 1 0 1 1 0-2 1 1 0 0 1 0 2ZM8.5 23a.5.5 0 0 0 0 1h15a.5.5 0 0 0 0-1h-15Z"/><rect width="31" height="31" x=".5" y=".5" stroke="#000" stroke-opacity=".1" rx="7.5"/></svg>
