<svg width="32" height="32" viewBox="0 0 32 32" fill="none" xmlns="http://www.w3.org/2000/svg">
<g clip-path="url(#clip0_169_2035)">
<circle opacity="0.5" cx="11" cy="16" r="5" stroke="white" stroke-width="2"/>
<path fill-rule="evenodd" clip-rule="evenodd" d="M31.708 16.708C31.8011 16.6151 31.875 16.5047 31.9254 16.3832C31.9758 16.2618 32.0018 16.1315 32.0018 16C32.0018 15.8684 31.9758 15.7382 31.9254 15.6167C31.875 15.4952 31.8011 15.3849 31.708 15.292L25.708 9.29198C25.5202 9.10421 25.2656 8.99872 25 8.99872C24.7344 8.99872 24.4798 9.10421 24.292 9.29198C24.1042 9.47975 23.9987 9.73443 23.9987 9.99998C23.9987 10.2655 24.1042 10.5202 24.292 10.708L28.586 15H11C10.7348 15 10.4804 15.1053 10.2929 15.2929C10.1054 15.4804 10 15.7348 10 16C10 16.2652 10.1054 16.5196 10.2929 16.7071C10.4804 16.8946 10.7348 17 11 17H28.586L24.292 21.292C24.1042 21.4798 23.9987 21.7344 23.9987 22C23.9987 22.2655 24.1042 22.5202 24.292 22.708C24.4798 22.8958 24.7344 23.0012 25 23.0012C25.2656 23.0012 25.5202 22.8958 25.708 22.708L31.708 16.708V16.708Z" fill="#12B886"/>
</g>
<defs>
<clipPath id="clip0_169_2035">
<rect width="32" height="32" fill="white"/>
</clipPath>
</defs>
</svg>
