<svg width="32" height="32" viewBox="0 0 32 32" fill="none" xmlns="http://www.w3.org/2000/svg">
<circle opacity="0.5" cx="23" cy="16" r="5" stroke="white" stroke-width="2"/>
<path fill-rule="evenodd" clip-rule="evenodd" d="M23.708 16.708C23.8011 16.6151 23.875 16.5047 23.9254 16.3832C23.9758 16.2618 24.0018 16.1315 24.0018 16C24.0018 15.8684 23.9758 15.7382 23.9254 15.6167C23.875 15.4952 23.8011 15.3849 23.708 15.292L17.708 9.29198C17.615 9.19901 17.5046 9.12525 17.3832 9.07493C17.2617 9.02462 17.1315 8.99872 17 8.99872C16.8685 8.99872 16.7383 9.02462 16.6168 9.07493C16.4954 9.12525 16.385 9.19901 16.292 9.29198C16.199 9.38496 16.1253 9.49534 16.075 9.61681C16.0246 9.73829 15.9987 9.86849 15.9987 9.99998C15.9987 10.1315 16.0246 10.2617 16.075 10.3831C16.1253 10.5046 16.199 10.615 16.292 10.708L20.586 15H3C2.73478 15 2.48043 15.1053 2.29289 15.2929C2.10536 15.4804 2 15.7348 2 16C2 16.2652 2.10536 16.5196 2.29289 16.7071C2.48043 16.8946 2.73478 17 3 17H20.586L16.292 21.292C16.199 21.385 16.1253 21.4953 16.075 21.6168C16.0246 21.7383 15.9987 21.8685 15.9987 22C15.9987 22.1315 16.0246 22.2617 16.075 22.3831C16.1253 22.5046 16.199 22.615 16.292 22.708C16.385 22.801 16.4954 22.8747 16.6168 22.925C16.7383 22.9753 16.8685 23.0012 17 23.0012C17.1315 23.0012 17.2617 22.9753 17.3832 22.925C17.5046 22.8747 17.615 22.801 17.708 22.708L23.708 16.708V16.708Z" fill="#12B886"/>
</svg>
