<svg width="102" height="32" viewBox="0 0 102 32" fill="none" xmlns="http://www.w3.org/2000/svg">
<path d="M36.2569 12.088C36.2569 11.4 36.4563 10.856 36.8551 10.456C37.2539 10.056 37.7963 9.856 38.4822 9.856H46.3784C46.4901 10.032 46.5858 10.264 46.6656 10.552C46.7613 10.84 46.8092 11.144 46.8092 11.464C46.8092 12.072 46.6736 12.504 46.4024 12.76C46.1471 13.016 45.8042 13.144 45.3735 13.144H40.3247V15.376H45.7085C45.8201 15.552 45.9158 15.784 45.9956 16.072C46.0913 16.344 46.1392 16.64 46.1392 16.96C46.1392 17.568 46.0116 18 45.7563 18.256C45.5011 18.512 45.1581 18.64 44.7274 18.64H40.3247V21.16H46.4742C46.5858 21.336 46.6815 21.568 46.7613 21.856C46.857 22.144 46.9049 22.448 46.9049 22.768C46.9049 23.376 46.7693 23.816 46.4981 24.088C46.2429 24.344 45.8999 24.472 45.4692 24.472H38.4822C37.7963 24.472 37.2539 24.272 36.8551 23.872C36.4563 23.472 36.2569 22.928 36.2569 22.24V12.088Z" fill="#EAEAEA"/>
<path d="M63.6988 23.896C63.4754 24.12 63.1484 24.288 62.7177 24.4C62.303 24.528 61.8005 24.592 61.2103 24.592C60.62 24.592 60.0617 24.504 59.5353 24.328C59.0089 24.152 58.5782 23.728 58.2432 23.056L55.8743 18.208C55.635 17.712 55.4197 17.248 55.2283 16.816C55.0368 16.368 54.8295 15.856 54.6061 15.28L54.4626 15.304C54.5264 16.168 54.5583 17.048 54.5583 17.944C54.5742 18.84 54.5822 19.72 54.5822 20.584V24.304C54.4067 24.352 54.1355 24.4 53.7686 24.448C53.4177 24.496 53.0668 24.52 52.7158 24.52C52.3649 24.52 52.0538 24.496 51.7826 24.448C51.5114 24.4 51.2881 24.304 51.1126 24.16C50.9372 24.016 50.8016 23.824 50.7059 23.584C50.6102 23.328 50.5623 23 50.5623 22.6V10.6C50.7856 10.28 51.1286 10.04 51.5912 9.88C52.0538 9.72 52.5483 9.64 53.0747 9.64C53.665 9.64 54.2233 9.736 54.7497 9.928C55.2921 10.104 55.7228 10.52 56.0418 11.176L58.4346 16.024C58.6739 16.52 58.8892 16.992 59.0807 17.44C59.2721 17.872 59.4795 18.376 59.7028 18.952L59.8224 18.928C59.7586 18.064 59.7187 17.2 59.7028 16.336C59.6868 15.472 59.6789 14.608 59.6789 13.744V9.856C59.8543 9.808 60.1175 9.76 60.4685 9.712C60.8354 9.664 61.1943 9.64 61.5452 9.64C62.2471 9.64 62.7815 9.768 63.1484 10.024C63.5153 10.264 63.6988 10.776 63.6988 11.56V23.896Z" fill="#EAEAEA"/>
<path d="M72.1863 24.304C72.0108 24.352 71.7317 24.4 71.3488 24.448C70.9819 24.496 70.615 24.52 70.2481 24.52C69.8812 24.52 69.5542 24.488 69.2671 24.424C68.9959 24.376 68.7646 24.28 68.5732 24.136C68.3817 23.992 68.2382 23.792 68.1424 23.536C68.0467 23.28 67.9989 22.944 67.9989 22.528V9.856C68.1744 9.824 68.4535 9.784 68.8364 9.736C69.2192 9.672 69.5861 9.64 69.937 9.64C70.3039 9.64 70.623 9.672 70.8942 9.736C71.1813 9.784 71.4206 9.88 71.612 10.024C71.8034 10.168 71.947 10.368 72.0427 10.624C72.1384 10.88 72.1863 11.216 72.1863 11.632V24.304Z" fill="#EAEAEA"/>
<path d="M83.8796 12.784C82.6513 12.784 81.7101 13.16 81.0561 13.912C80.4021 14.664 80.075 15.728 80.075 17.104C80.075 18.496 80.434 19.568 81.1518 20.32C81.8856 21.072 82.8666 21.448 84.0949 21.448C84.749 21.448 85.2993 21.36 85.746 21.184C86.2086 21.008 86.6473 20.808 87.062 20.584C87.3332 20.808 87.5406 21.08 87.6841 21.4C87.8437 21.704 87.9234 22.064 87.9234 22.48C87.9234 23.136 87.5565 23.696 86.8227 24.16C86.1049 24.608 85.0042 24.832 83.5207 24.832C82.4519 24.832 81.4469 24.68 80.5057 24.376C79.5646 24.072 78.7431 23.608 78.0412 22.984C77.3393 22.344 76.781 21.544 76.3662 20.584C75.9674 19.608 75.768 18.448 75.768 17.104C75.768 15.856 75.9594 14.76 76.3423 13.816C76.7411 12.856 77.2755 12.048 77.9454 11.392C78.6314 10.736 79.429 10.24 80.3382 9.904C81.2475 9.568 82.2206 9.4 83.2575 9.4C84.7251 9.4 85.8576 9.64 86.6552 10.12C87.4688 10.6 87.8756 11.216 87.8756 11.968C87.8756 12.384 87.7719 12.744 87.5645 13.048C87.3571 13.352 87.1179 13.592 86.8467 13.768C86.4319 13.496 85.9853 13.264 85.5067 13.072C85.0441 12.88 84.5017 12.784 83.8796 12.784Z" fill="#EAEAEA"/>
<path d="M91.352 12.088C91.352 11.4 91.5514 10.856 91.9502 10.456C92.349 10.056 92.8914 9.856 93.5773 9.856H101.474C101.585 10.032 101.681 10.264 101.761 10.552C101.856 10.84 101.904 11.144 101.904 11.464C101.904 12.072 101.769 12.504 101.498 12.76C101.242 13.016 100.899 13.144 100.469 13.144H95.4198V15.376H100.804C100.915 15.552 101.011 15.784 101.091 16.072C101.186 16.344 101.234 16.64 101.234 16.96C101.234 17.568 101.107 18 100.851 18.256C100.596 18.512 100.253 18.64 99.8226 18.64H95.4198V21.16H101.569C101.681 21.336 101.777 21.568 101.856 21.856C101.952 22.144 102 22.448 102 22.768C102 23.376 101.864 23.816 101.593 24.088C101.338 24.344 100.995 24.472 100.564 24.472H93.5773C92.8914 24.472 92.349 24.272 91.9502 23.872C91.5514 23.472 91.352 22.928 91.352 22.24V12.088Z" fill="#EAEAEA"/>
<path fill-rule="evenodd" clip-rule="evenodd" d="M15.952 32C24.762 32 31.904 24.8366 31.904 16C31.904 7.16344 24.762 0 15.952 0C7.14195 0 0 7.16344 0 16C0 24.8366 7.14195 32 15.952 32ZM23.1439 12.7426L27.3313 9.97129L23.1439 7.20001V8.72129L20.7942 8.65583C19.0511 8.60726 17.5357 9.84693 17.2327 11.5693C16.8825 13.0285 16.516 14.4931 16.133 15.9633C15.6864 17.7393 15.2477 19.3793 14.817 20.8833H14.6734C14.1949 19.3313 13.7323 17.8433 13.2856 16.4193C12.8549 14.9793 12.4242 13.4753 11.9935 11.9073C11.818 11.2353 11.5389 10.7793 11.156 10.5393C10.7891 10.2833 10.3106 10.1553 9.72034 10.1553C9.24178 10.1553 8.58775 10.3713 8.58775 10.3713C8.57478 10.3768 8.50918 10.3987 8.4413 10.4214C8.36702 10.4463 8.28995 10.472 8.27619 10.4782L3.64798 12.667C3.28134 12.8404 3.10268 13.262 3.23265 13.6471L3.58152 14.6807C3.70782 15.055 4.08758 15.2807 4.4755 15.2121L8.39472 14.5189C8.5216 14.9244 8.6524 15.3339 8.78715 15.7473C9.05833 16.5793 9.33749 17.4033 9.62463 18.2193C9.92772 19.0193 10.2149 19.7793 10.486 20.4993C10.7732 21.2193 11.0444 21.8753 11.2996 22.4673C11.5548 23.0433 11.7702 23.5153 11.9456 23.8833C12.1211 24.2353 12.4481 24.5153 12.9267 24.7233C13.4053 24.9153 13.9795 25.0113 14.6495 25.0113C15.2078 25.0113 15.7183 24.9393 16.1809 24.7953C16.6595 24.6513 17.0104 24.4833 17.2337 24.2913C17.4092 24.0513 17.6405 23.6273 17.9276 23.0193C18.2148 22.3953 18.5179 21.6833 18.8369 20.8833C19.1719 20.0673 19.4989 19.2033 19.818 18.2913C20.153 17.3793 20.4481 16.5073 20.7033 15.6753C20.9745 14.8273 21.1898 14.0673 21.3493 13.3953C21.4506 13.0076 21.5014 12.5933 21.5385 12.2907C21.5657 12.0686 21.5856 11.9067 21.6126 11.8593C21.6126 11.8593 21.7481 11.5713 21.9475 11.5713L23.1439 11.3397V12.7426Z" fill="#EAEAEA"/>
</svg>
