<svg xmlns="http://www.w3.org/2000/svg" viewBox="0 0 102 32"><path fill="#FFFFFF" d="M36.257 12.088c0-.688.2-1.232.598-1.632.399-.4.941-.6 1.627-.6h7.896c.112.176.208.408.288.696.095.288.143.592.143.912 0 .608-.135 1.04-.407 1.296-.255.256-.598.384-1.029.384h-5.048v2.232h5.383c.112.176.208.408.288.696.095.272.143.568.143.888 0 .608-.127 1.04-.383 1.296-.255.256-.598.384-1.029.384h-4.402v2.52h6.15c.11.176.206.408.286.696.096.288.144.592.144.912 0 .608-.136 1.048-.407 1.32-.255.256-.598.384-1.029.384h-6.987c-.686 0-1.228-.2-1.627-.6-.399-.4-.598-.944-.598-1.632V12.088ZM63.699 23.896c-.224.224-.55.392-.981.504-.415.128-.918.192-1.508.192s-1.148-.088-1.675-.264c-.526-.176-.957-.6-1.292-1.272l-2.369-4.848c-.239-.496-.454-.96-.646-1.392-.191-.448-.398-.96-.622-1.536l-.143.024c.063.864.095 1.744.095 2.64.016.896.024 1.776.024 2.64v3.72a6.629 6.629 0 0 1-.813.144c-.351.048-.702.072-1.053.072a5.4 5.4 0 0 1-.933-.072 1.427 1.427 0 0 1-.67-.288 1.397 1.397 0 0 1-.407-.576c-.096-.256-.144-.584-.144-.984v-12c.224-.32.567-.56 1.03-.72.462-.16.956-.24 1.483-.24.59 0 1.148.096 1.675.288.542.176.973.592 1.292 1.248l2.393 4.848c.239.496.454.968.646 1.416.191.432.398.936.622 1.512l.12-.024a46.912 46.912 0 0 1-.12-2.592c-.016-.864-.024-1.728-.024-2.592V9.856c.175-.048.438-.096.79-.144a8.297 8.297 0 0 1 1.076-.072c.702 0 1.236.128 1.603.384.367.24.55.752.55 1.536v12.336ZM72.186 24.304a6.633 6.633 0 0 1-.837.144 8.476 8.476 0 0 1-1.1.072c-.368 0-.695-.032-.982-.096a1.598 1.598 0 0 1-.694-.288 1.297 1.297 0 0 1-.43-.6c-.096-.256-.144-.592-.144-1.008V9.856c.175-.032.455-.072.837-.12.383-.064.75-.096 1.101-.096.367 0 .686.032.957.096.287.048.527.144.718.288.191.144.335.344.43.6.096.256.144.592.144 1.008v12.672ZM83.88 12.784c-1.229 0-2.17.376-2.824 1.128-.654.752-.981 1.816-.981 3.192 0 1.392.359 2.464 1.077 3.216.734.752 1.715 1.128 2.943 1.128.654 0 1.204-.088 1.651-.264.463-.176.901-.376 1.316-.6.271.224.479.496.622.816.16.304.24.664.24 1.08 0 .656-.368 1.216-1.101 1.68-.718.448-1.819.672-3.302.672a9.752 9.752 0 0 1-3.015-.456 6.812 6.812 0 0 1-2.465-1.392c-.702-.64-1.26-1.44-1.675-2.4-.399-.976-.598-2.136-.598-3.48 0-1.248.191-2.344.574-3.288.4-.96.933-1.768 1.603-2.424a6.866 6.866 0 0 1 2.393-1.488 8.356 8.356 0 0 1 2.92-.504c1.467 0 2.6.24 3.397.72.814.48 1.22 1.096 1.22 1.848 0 .416-.103.776-.31 1.08a2.564 2.564 0 0 1-.718.72 7.588 7.588 0 0 0-1.34-.696c-.463-.192-1.005-.288-1.627-.288ZM91.352 12.088c0-.688.2-1.232.598-1.632.399-.4.941-.6 1.627-.6h7.897c.111.176.207.408.287.696.095.288.143.592.143.912 0 .608-.135 1.04-.406 1.296-.256.256-.599.384-1.029.384h-5.05v2.232h5.385c.111.176.207.408.287.696.095.272.143.568.143.888 0 .608-.127 1.04-.383 1.296-.255.256-.598.384-1.028.384H95.42v2.52h6.149c.112.176.208.408.287.696.096.288.144.592.144.912 0 .608-.136 1.048-.407 1.32-.255.256-.598.384-1.029.384h-6.987c-.686 0-1.228-.2-1.627-.6-.399-.4-.598-.944-.598-1.632V12.088Z"/><path fill="#FFFFFF" fill-rule="evenodd" d="M15.952 32c8.81 0 15.952-7.163 15.952-16S24.762 0 15.952 0C7.142 0 0 7.163 0 16s7.142 16 15.952 16Zm7.192-19.257L27.33 9.97 23.144 7.2v1.521l-2.35-.065a3.52 3.52 0 0 0-3.561 2.913c-.35 1.46-.717 2.924-1.1 4.394a157.187 157.187 0 0 1-1.316 4.92h-.144c-.478-1.552-.94-3.04-1.387-4.464-.431-1.44-.862-2.944-1.293-4.512-.175-.672-.454-1.128-.837-1.368-.367-.256-.845-.384-1.436-.384-.478 0-1.132.216-1.132.216-.013.006-.079.028-.147.05-.074.025-.151.051-.165.057l-4.628 2.189a.8.8 0 0 0-.415.98l.349 1.034c.126.374.506.6.894.531l3.919-.693a108.844 108.844 0 0 0 1.23 3.7l.861 2.28c.287.72.558 1.376.814 1.968.255.576.47 1.048.646 1.416.175.352.502.632.98.84.48.192 1.053.288 1.723.288.559 0 1.07-.072 1.532-.216.479-.144.83-.312 1.053-.504.175-.24.406-.664.694-1.272.287-.624.59-1.336.909-2.136.335-.816.662-1.68.981-2.592.335-.912.63-1.784.885-2.616a31.35 31.35 0 0 0 .646-2.28c.102-.387.152-.802.19-1.104.027-.222.047-.384.074-.432 0 0 .135-.288.335-.288l1.196-.231v1.403Z"/></svg>
