<svg xmlns="http://www.w3.org/2000/svg" viewBox="0 0 32 32"><rect width="32" height="32" fill="#C52246" rx="8"/><g fill="#fff"><path d="M11.194 11.564c-.312 0-.416.12-.545.466l-1.082 2.892h-.681l-.865-2.1-.825 2.1H6.49l-1.13-2.846c-.128-.328-.319-.512-.6-.512h-.089v-.424h1.924v.424H6.41c-.216 0-.312.057-.304.177 0 .023-.008.065.015.12 0 0 .44 1.037.789 2.062.036.005.052.005.052.005l.755-1.89c-.032-.313-.136-.474-.464-.474h-.257v-.424h2.026v.424h-.32c-.191 0-.264.042-.264.153 0 .047.007.104.031.16 0 0 .456 1.099.789 2.056.044 0 .044.003.044.003l.731-1.914a.762.762 0 0 0 .048-.29c0-.119-.105-.168-.32-.168h-.265v-.424h1.842v.424h-.144Zm-.163 3.357v-.423l.223-.008c.33 0 .514-.031.514-.346V11.91c0-.312-.183-.346-.514-.346h-.223v-.424h4.086v1.467h-.433c-.023-.882-.23-1.02-1-1.02h-1.06v1.124h.273c.482 0 .545-.161.585-.731h.435v1.917h-.443c-.032-.65-.095-.74-.569-.74h-.28v1.317h1.218c.69 0 .854-.325.915-1.077h.432v1.524h-4.16Zm4.492 0v-.423h.217c.328 0 .472-.032.472-.354l-.008-2.226c0-.32-.191-.354-.513-.354h-.2v-.424h2.282v.424l-.272.008c-.367 0-.432.034-.432.346v2.556h.922c.448 0 .713-.057.834-.28.112-.201.16-.428.16-.797h.44v1.524h-3.902Zm4.234 0v-.423h.058c.33 0 .474-.032.474-.354l-.008-2.226c0-.32-.154-.354-.474-.354h-.24v-.424h2.284v.424l-.272.008c-.37 0-.433.034-.433.346v2.556h.92c.45 0 .715-.057.835-.28.11-.201.16-.428.16-.797h.44v1.524h-3.744Zm7.617-1.105c0 .866-.68 1.178-1.69 1.178-.607 0-1.192-.346-1.32-.465l-.129.395h-.385v-1.521h.44c.12.725.608 1.04 1.302 1.071.598.026 1.022-.133 1.07-.546.055-.479-.472-.447-.912-.528l-.65-.12c-.97-.169-1.282-.45-1.305-1.081-.026-.69.6-1.14 1.442-1.147.408 0 .937.065 1.346.393l.191-.313h.336v1.321h-.425c-.092-.733-.815-.957-1.433-.941-.449.015-.745.273-.745.577 0 .284.28.32.637.382l.794.139c.81.135 1.436.301 1.436 1.198v.008ZM9.229 18.274c0-.292-.047-.55-.152-.758-.128-.223-.39-.257-.841-.257H7.29v1.131h.298c.48 0 .554-.088.554-.673h.35v1.89l-.358-.007c-.008-.632-.074-.762-.546-.762H7.29v.985c0 .315.05.346.377.346h.44v.424H5.775v-.424l.218-.007c.327 0 .44-.031.44-.346v-2.234c0-.312-.113-.346-.44-.346h-.218v-.424h3.889v1.462h-.435Zm2.033-.781-.568 1.451h1.144l-.576-1.45Zm.207 3.1v-.424h.409c.218 0 .322-.023.322-.153a.532.532 0 0 0-.057-.182l-.16-.442h-1.475l-.192.473a.453.453 0 0 0-.047.177c0 .12.102.127.304.127h.393v.424H8.993v-.424h.173c.296 0 .385-.104.498-.37l1.266-2.987h.927l1.21 2.988c.11.289.234.369.449.369h.183v.424h-2.23Z"/><path d="M16.636 17.813c0-.44-.256-.57-.793-.57h-.81v1.148l.825-.008c.53 0 .778-.17.778-.562v-.008Zm1.337 1.899c0 .689-.32.962-.776.962-.521 0-.859-.143-.883-.666l-.015-.44c-.024-.634-.226-.761-.881-.761h-.385v1.017c0 .314.047.345.377.345h.343v.424h-2.308v-.424h.335c.218 0 .396-.078.396-.353v-2.234c0-.312-.05-.346-.377-.346h-.312v-.424h2.601c.973 0 1.42.289 1.42.897 0 .546-.424.882-1.146.978.673.161.762.4.801.913.008.05 0 .153 0 .234.016.223.105.328.217.32.231-.016.25-.185.231-.635h.361c.008.065.008.13.008.193h-.008Zm3.369-1.688c-.18-.567-.56-.833-1.186-.833-.617 0-1.106.505-1.099 1.467 0 .978.393 1.506 1.099 1.514.513 0 .969-.255.969-.69v-.207c0-.255-.063-.255-.424-.255h-.19v-.434h1.759v.434h-.144c-.273 0-.315-.026-.315.296v1.267h-.309l-.199-.315c-.346.273-.84.4-1.284.4-.518 0-.962-.181-1.313-.535a2.023 2.023 0 0 1-.576-1.475c0-.585.191-1.05.569-1.425.327-.322.825-.504 1.339-.497.424 0 .92.112 1.2.409l.193-.393h.302v1.27l-.39.002Zm4.733.679c0-.994-.542-1.512-1.287-1.512-.736 0-1.297.518-1.297 1.512 0 .99.56 1.521 1.297 1.521.734 0 1.28-.53 1.28-1.521h.007Zm-1.272 1.96c-1.257 0-2.232-.785-2.232-1.976 0-1.186.975-1.961 2.224-1.961 1.256 0 2.208.775 2.208 1.969 0 1.183-.951 1.969-2.2 1.969Z"/></g></svg>
