<svg xmlns="http://www.w3.org/2000/svg" width="256" height="256" viewBox="0 0 100 100"><rect width="100" height="100" rx="0" fill="#000000"></rect><path fill="#fff" d="M44.35 71.81L16.42 71.81L16.42 28.17L25.65 28.17L25.65 64.20L44.35 64.20L44.35 71.81ZM82.98 40.72L74.14 40.72Q73.88 38.14 71.95 36.72Q70.01 35.29 66.68 35.29L66.68 35.29Q64.42 35.29 62.87 35.92Q61.31 36.54 60.49 37.65Q59.67 38.76 59.67 40.17L59.67 40.17Q59.63 41.34 60.17 42.21Q60.72 43.09 61.68 43.71Q62.63 44.34 63.89 44.80Q65.15 45.26 66.58 45.58L66.58 45.58L70.50 46.52Q73.35 47.16 75.74 48.22Q78.13 49.29 79.87 50.84Q81.62 52.40 82.59 54.51Q83.56 56.62 83.58 59.34L83.58 59.34Q83.56 63.35 81.54 66.28Q79.53 69.21 75.75 70.82Q71.97 72.43 66.64 72.43L66.64 72.43Q61.36 72.43 57.45 70.81Q53.54 69.19 51.35 66.00Q49.17 62.82 49.06 58.11L49.06 58.11L57.99 58.11Q58.14 60.30 59.26 61.76Q60.38 63.22 62.26 63.96Q64.15 64.69 66.53 64.69L66.53 64.69Q68.88 64.69 70.61 64.01Q72.35 63.33 73.31 62.11Q74.27 60.90 74.27 59.32L74.27 59.32Q74.27 57.85 73.41 56.85Q72.54 55.85 70.89 55.15Q69.24 54.44 66.85 53.87L66.85 53.87L62.10 52.67Q56.58 51.33 53.39 48.48Q50.19 45.62 50.21 40.78L50.21 40.78Q50.19 36.82 52.33 33.86Q54.47 30.90 58.22 29.24Q61.97 27.57 66.75 27.57L66.75 27.57Q71.61 27.57 75.24 29.24Q78.87 30.90 80.89 33.86Q82.92 36.82 82.98 40.72L82.98 40.72Z"></path></svg>