<svg width="2429" height="789" viewBox="0 0 2429 789" fill="none" xmlns="http://www.w3.org/2000/svg">
<g clip-path="url(#clip0_4283_1925)">
<path d="M1596.41 167.597C1592.22 167.597 1590.12 167.597 1588.52 168.411C1587.12 169.127 1585.97 170.269 1585.25 171.675C1584.44 173.272 1584.44 175.364 1584.44 179.547V581.342C1584.44 585.525 1584.44 587.617 1585.25 589.215C1585.97 590.62 1587.12 591.763 1588.52 592.479C1590.12 593.293 1592.22 593.293 1596.41 593.293H1673.43C1677.62 593.293 1679.71 593.293 1681.31 592.479C1682.72 591.763 1683.87 590.62 1684.58 589.215C1685.4 587.617 1685.4 585.525 1685.4 581.342V179.547C1685.4 175.364 1685.4 173.272 1684.58 171.675C1683.87 170.269 1682.72 169.127 1681.31 168.411C1679.71 167.597 1677.62 167.597 1673.43 167.597H1596.41Z" fill="#131E3B"/>
<path fill-rule="evenodd" clip-rule="evenodd" d="M1319.01 591.765C1340.93 600.42 1364.9 604.748 1390.9 604.748C1431.18 604.748 1466.62 594.565 1497.21 574.201C1524.31 556.455 1542.71 531.945 1552.39 500.67C1553.76 496.221 1554.45 493.996 1553.9 491.917C1553.43 490.185 1552.17 488.478 1550.65 487.524C1548.82 486.378 1546.32 486.378 1541.31 486.378H1464.89C1461.74 486.378 1460.17 486.378 1458.96 486.802C1457.74 487.23 1457.04 487.674 1456.13 488.59C1455.23 489.496 1454.4 491.248 1452.74 494.753C1448.72 503.215 1442.64 510.351 1434.5 516.162C1423.79 523.798 1409.26 527.617 1390.9 527.617C1370.5 527.617 1353.68 521.762 1340.42 510.052C1327.16 497.833 1318.75 478.741 1315.18 452.777H1548.23C1552.09 452.777 1554.01 452.777 1555.56 452.024C1556.9 451.374 1558.07 450.273 1558.8 448.98C1559.65 447.482 1559.76 445.62 1559.99 441.895C1560.46 434.321 1560.69 426.697 1560.69 419.175C1560.69 370.3 1545.4 330.334 1514.8 299.278C1484.21 268.222 1442.65 252.694 1390.14 252.694C1364.64 252.694 1341.19 257.021 1319.77 265.676C1298.35 274.331 1279.74 286.55 1263.94 302.333C1248.64 317.606 1236.66 336.189 1227.99 358.081C1219.32 379.464 1214.99 402.883 1214.99 428.339C1214.99 453.795 1219.07 477.469 1227.23 499.361C1235.89 521.253 1247.88 540.09 1263.17 555.873C1278.98 571.146 1297.59 583.11 1319.01 591.765ZM1339.66 345.098C1352.91 335.425 1369.48 330.589 1389.37 330.589C1409.77 330.589 1426.34 335.68 1439.08 345.862C1451.83 356.044 1459.23 371.318 1461.26 391.683H1315.18C1318.75 370.3 1326.91 354.772 1339.66 345.098Z" fill="#131E3B"/>
<path d="M1738.08 593.293C1733.89 593.293 1731.8 593.293 1730.2 592.479C1728.79 591.763 1727.65 590.62 1726.93 589.215C1726.11 587.617 1726.11 585.525 1726.11 581.342V179.547C1726.11 175.364 1726.11 173.272 1726.93 171.675C1727.65 170.269 1728.79 169.127 1730.2 168.411C1731.8 167.597 1733.89 167.597 1738.08 167.597H1815.1C1819.29 167.597 1821.39 167.597 1822.99 168.411C1824.39 169.127 1825.54 170.269 1826.26 171.675C1827.07 173.272 1827.07 175.364 1827.07 179.547V581.342C1827.07 585.525 1827.07 587.617 1826.26 589.215C1825.54 590.62 1824.39 591.763 1822.99 592.479C1821.39 593.293 1819.29 593.293 1815.1 593.293H1738.08Z" fill="#131E3B"/>
<path fill-rule="evenodd" clip-rule="evenodd" d="M1956.15 591.765C1978.08 600.42 2002.05 604.748 2028.05 604.748C2068.33 604.748 2103.77 594.565 2134.36 574.201C2161.46 556.455 2179.86 531.945 2189.54 500.67C2190.91 496.221 2191.6 493.996 2191.04 491.917C2190.58 490.185 2189.32 488.478 2187.8 487.524C2185.97 486.378 2183.47 486.378 2178.46 486.378H2102.04C2098.89 486.378 2097.32 486.378 2096.11 486.802C2094.89 487.23 2094.19 487.674 2093.28 488.59C2092.38 489.496 2091.55 491.248 2089.89 494.753C2085.87 503.215 2079.79 510.351 2071.65 516.162C2060.94 523.798 2046.41 527.617 2028.05 527.617C2007.65 527.617 1990.83 521.762 1977.57 510.052C1964.31 497.833 1955.9 478.741 1952.33 452.777H2196.31C2197.32 441.68 2197.84 430.316 2197.84 419.175C2197.84 370.3 2182.55 330.334 2151.95 299.278C2121.36 268.222 2079.8 252.694 2027.28 252.694C2001.79 252.694 1978.34 257.021 1956.92 265.676C1935.5 274.331 1916.89 286.55 1901.09 302.333C1885.79 317.606 1873.81 336.189 1865.14 358.081C1856.47 379.464 1852.14 402.883 1852.14 428.339C1852.14 453.795 1856.22 477.469 1864.37 499.361C1873.04 521.253 1885.03 540.09 1900.32 555.873C1916.13 571.146 1934.74 583.11 1956.15 591.765ZM1976.81 345.098C1990.06 335.425 2006.63 330.589 2026.52 330.589C2046.92 330.589 2063.49 335.68 2076.23 345.862C2088.98 356.044 2096.37 371.318 2098.41 391.683H1952.33C1955.9 370.3 1964.06 354.772 1976.81 345.098Z" fill="#131E3B"/>
<path d="M2235.48 593.293C2231.29 593.293 2229.19 593.293 2227.59 592.479C2226.18 591.763 2225.04 590.62 2224.32 589.215C2223.51 587.617 2223.51 585.525 2223.51 581.342V376.172C2223.51 297.803 2279.65 249.211 2358.14 249.211H2410.61C2414.8 249.211 2416.89 249.211 2418.49 250.025C2419.9 250.741 2421.05 251.884 2421.76 253.289C2422.58 254.887 2422.58 256.978 2422.58 261.161V325.083C2422.58 329.266 2422.58 331.358 2421.76 332.955C2421.05 334.361 2419.9 335.503 2418.49 336.22C2416.89 337.034 2414.8 337.034 2410.61 337.034H2378.75C2334.32 337.034 2324.46 350.994 2324.46 397.233V581.342C2324.46 585.525 2324.46 587.617 2323.65 589.215C2322.93 590.62 2321.79 591.763 2320.38 592.479C2318.78 593.293 2316.69 593.293 2312.5 593.293H2235.48Z" fill="#131E3B"/>
<path d="M1104.38 249.212L1104.38 179.546C1104.38 175.364 1104.38 173.272 1103.56 171.675C1102.84 170.269 1101.7 169.127 1100.29 168.411C1098.69 167.597 1096.6 167.597 1092.41 167.597H1015.39C1011.2 167.597 1009.11 167.597 1007.51 168.411C1006.1 169.127 1004.96 170.269 1004.24 171.675C1003.43 173.272 1003.43 175.364 1003.43 179.547L1003.42 466.331C1003.42 544.701 1059.57 593.293 1138.06 593.293H1190.53C1194.71 593.293 1196.81 593.293 1198.41 592.479C1199.82 591.762 1200.96 590.62 1201.68 589.214C1202.49 587.617 1202.49 585.525 1202.49 581.342V517.421C1202.49 513.238 1202.49 511.146 1201.68 509.548C1200.96 508.143 1199.82 507 1198.41 506.284C1196.81 505.47 1194.71 505.47 1190.53 505.47H1158.67C1114.23 505.47 1104.38 491.51 1104.38 445.27V350.01H1190.53C1194.72 350.01 1196.81 350.01 1198.41 349.196C1199.82 348.48 1200.96 347.337 1201.68 345.932C1202.5 344.334 1202.5 342.243 1202.5 338.06V261.162C1202.5 256.979 1202.5 254.888 1201.68 253.29C1200.96 251.885 1199.82 250.742 1198.41 250.026C1196.81 249.212 1194.72 249.212 1190.53 249.212H1104.38Z" fill="#131E3B"/>
<path d="M433.606 360.544C351.138 278.075 351.138 144.366 433.606 61.8977C516.075 -20.5711 649.784 -20.5711 732.252 61.8977C814.721 144.366 814.721 278.075 732.252 360.544C649.784 443.012 516.075 443.012 433.606 360.544Z" fill="#FF5833"/>
<path d="M639.444 578.592C639.444 599.543 622.46 616.527 601.509 616.527H215.57C194.62 616.527 177.636 599.543 177.636 578.592V192.654C177.636 171.703 194.62 154.719 215.57 154.719H601.509C622.46 154.719 639.444 171.703 639.444 192.654V578.592Z" fill="#0057FF"/>
<path d="M379.425 154.717L601.501 154.717C622.452 154.717 639.436 171.701 639.436 192.651V414.731C568.518 434.347 489.361 416.283 433.616 360.538C377.871 304.793 359.807 225.635 379.425 154.717Z" fill="#FF77FA"/>
<path d="M383.842 410.314C466.311 492.783 466.311 626.492 383.842 708.961L334.294 758.508C294.899 797.904 231.025 797.904 191.63 758.509L35.647 602.526C-3.74884 563.13 -3.74887 499.257 35.647 459.861L85.1942 410.314C167.663 327.845 301.372 327.845 383.842 410.314Z" fill="#3CE475"/>
<path d="M437.917 616.525H215.576C194.626 616.525 177.642 599.541 177.642 578.59L177.642 356.224C248.655 336.442 327.991 354.472 383.833 410.314C439.68 466.161 457.708 545.507 437.917 616.525Z" fill="#00FFFF"/>
</g>
<defs>
<clipPath id="clip0_4283_1925">
<rect width="2427.58" height="788.009" fill="white" transform="translate(0.55127 0.0461426)"/>
</clipPath>
</defs>
</svg>
