<svg class="GlobalNav_qb__f83d5c7d" viewBox="0 0 527.2 101.5" xmlns="http://www.w3.org/2000/svg"><path d="M524.6 77c0-1-1-1.4-1.9-1.4H521v5h.9v-2h.7l1.1 2h1.1l-1.3-2.2a1.3 1.3 0 0 0 1.1-1.3zm-2.7.8v-1.4h.8c.5 0 1 .1 1 .7s-.6.7-1.1.7zm.8-4a4.4 4.4 0 1 0 4.5 4.3 4.4 4.4 0 0 0-4.5-4.4zm0 8a3.8 3.8 0 1 1 3.8-3.7 3.8 3.8 0 0 1-3.8 3.8zm-286-7.3c-6.5 0-9.8-5.9-9.8-11.5s3.6-11.2 9.5-11.2c2.8 0 6.3 1.4 7.7 3.4l6.8-6.9a20 20 0 0 0-14.5-5.6c-12 0-20.7 8.6-20.7 20.4 0 12 8.6 20.5 21 20.5 5.8 0 11.2-1.7 14.4-5.2l-6.7-7.2a10.7 10.7 0 0 1-7.7 3.3zm-38.5 8H209V43.8h-10.7zM178.7 65c0 4.5-3 9.4-8.4 9.4-4.3 0-6.6-3-6.6-9.3V43.9H153v24c0 8 4 15.8 14.7 15.8 5 0 9.2-4 11.3-7h.2v5.9h10.2V43.8h-10.7V65zm-45-16.3h-.2c-1.5-1.7-5.6-6-12.2-6-10.9 0-19.3 8.5-19.3 20.3 0 12 7.8 20.6 18.8 20.6a17.3 17.3 0 0 0 12.4-5.8h.2v23.7H144V43.8h-10.2zm-10.3 25.8c-6.6 0-10.4-5.8-10.4-11.5 0-5.5 3.4-11.3 10.4-11.3 6.3 0 10.2 6 10.2 11.4s-3.8 11.4-10.2 11.4zm243.3-31.8c-12.1 0-21 8.5-21 20.3 0 12.2 9 20.7 21 20.7s21-8.6 21-20.7c0-11.8-8.8-20.3-21-20.3zm0 31.8c-7 0-10.1-6-10.1-11.5s3.2-11.3 10.1-11.3S377 57.5 377 63s-3.2 11.5-10.2 11.5zm133.6-15.8c-5.5-1.3-7.5-2-7.5-4.3 0-3 4-3.7 5.7-3.7 3.3 0 7 2 8.5 3.8l6.3-6c-3-3.6-8.7-5.7-14.7-5.7-7.8 0-15.9 3.9-15.9 12.5 0 7.5 5.9 9.7 11.6 11.1 6 1.4 8.2 2.4 8.2 4.9 0 3.5-4 4.1-5.5 4.1a13.9 13.9 0 0 1-9.7-4.6l-6.5 6.6c3.5 4 9.6 6.3 15.8 6.3 10.5 0 16.7-5 16.7-13.2 0-7.8-7.6-10.5-13-11.8zM480 43.8h-13.8l-13.8 16h-.2V22.5h-10.7v60h10.7v-19h.2l14.3 19h14l-16.6-21.1zm-158.4-1c-5 0-8.5 2-12 5.2h-.1V22.5h-10.7v60h10.2V77h.2a14.4 14.4 0 0 0 12.1 6.5c11 0 19.4-8.6 19.4-20.5 0-11.8-8.2-20.3-19.1-20.3zm-2.1 31.7c-6.5 0-10.3-5.8-10.3-11.4s4-11.4 10.3-11.4c6.9 0 10.3 5.8 10.3 11.3 0 5.7-3.7 11.5-10.3 11.5zm-24.7-30.7H281l-13.8 16h-.2V22.5h-10.7v60h10.7v-19h.2l14.3 19h14l-16.5-21.1zm118.8-1c-12.2 0-21 8.5-21 20.2 0 12.2 9 20.7 21 20.7s21-8.6 21-20.7c0-11.8-8.9-20.3-21-20.3zm0 31.7c-7 0-10.2-6-10.2-11.5s3.2-11.3 10.2-11.3 10.1 5.8 10.1 11.3-3.2 11.5-10.1 11.5z" class="GlobalNav_fillDark__f83d5c7d"></path><circle cx="45" cy="45" fill="#2ca01c" r="45"></circle><path d="M12.5 45A17.5 17.5 0 0 0 30 62.5h2.5V56H30a11 11 0 0 1 0-22h6v34a6.5 6.5 0 0 0 6.5 6.5v-47H30A17.5 17.5 0 0 0 12.5 45zM60 27.5h-2.5V34H60a11 11 0 1 1 0 22h-6V22a6.5 6.5 0 0 0-6.5-6.5v47H60a17.5 17.5 0 1 0 0-35z" fill="#FFF"></path><path d="M146 10.3a3 3 0 1 0-3-3 3 3 0 0 0 3 3zm-17.7 2a6.7 6.7 0 0 0-6 3.7h-.2v-3.2h-4.6v19.7h4.9V21.7c0-2.6 1.5-5.3 4.6-5.3s3.7 2.9 3.7 5.2v11h4.9V20.1c0-4-2.1-8-7.3-8zm-20.8 20.2h5V12.8h-5zM197 10.2a3 3 0 1 0-3-3 3 3 0 0 0 3 3zm-8 2.6v4.4h5.5v15.3h5V17.2h5.5v-4.4zm-8.4 19.7h5V12.8h-5v19.7zm-42.5-15.3h5.5v15.3h5V17.2h5.5v-4.4h-16v4.4zm32.6 6.5c0 2.6-1.5 5.3-4.6 5.3s-3.7-3-3.7-5.3V12.8h-5v12.3c0 4 2.2 8 7.3 8a6.7 6.7 0 0 0 6.1-3.7h.1v3.2h4.7V12.8h-5v10.8z" class="GlobalNav_fillDark__f83d5c7d"></path></svg>