<svg version="1.1" id="Layer_1" xmlns="http://www.w3.org/2000/svg" xmlns:xlink="http://www.w3.org/1999/xlink" x="0px" y="0px"
	 width="100%" viewBox="0 0 850 235" enable-background="new 0 0 850 235" xml:space="preserve">
<path fill="#FEFEFE" opacity="1.000000" stroke="none" 
	d="
M558.000000,236.000000 
	C372.042725,236.000000 186.585464,236.000000 1.064101,236.000000 
	C1.064101,157.727493 1.064101,79.454918 1.064101,1.091170 
	C284.333313,1.091170 567.666687,1.091170 850.966187,1.091170 
	C850.966187,79.414490 850.966187,157.707260 850.966187,236.000000 
	C753.454956,236.000000 655.977478,236.000000 558.000000,236.000000 
M145.033478,202.502823 
	C160.209702,214.557877 176.961990,210.941284 198.874802,190.879211 
	C208.481949,214.054153 236.509232,215.999725 254.600037,192.032547 
	C255.160904,193.079178 255.664780,194.123459 256.259277,195.113327 
	C264.950470,209.584137 282.072235,213.481064 295.841064,203.786804 
	C301.247192,199.980499 306.079346,195.359039 310.993988,191.258133 
	C320.606659,202.546097 334.398834,209.906097 351.838531,208.934326 
	C369.443878,207.953293 381.269745,197.378113 391.102722,183.766739 
	C392.672455,185.594864 393.805481,187.039032 395.065247,188.362595 
	C410.430634,204.506287 428.351837,213.375214 451.060242,206.882996 
	C465.454895,202.767624 475.079041,193.434204 478.020630,178.402328 
	C481.233795,161.982803 475.334930,149.355560 461.053131,140.672363 
	C452.518890,135.483643 443.841980,130.521103 435.432465,125.139328 
	C431.549988,122.654724 427.843567,119.715401 424.614746,116.433807 
	C420.422424,112.172913 419.340820,106.697739 421.722382,101.182449 
	C424.130524,95.605637 429.020569,93.277161 434.951935,92.910973 
	C446.169464,92.218445 454.353180,97.144592 459.283264,106.933609 
	C461.561829,111.457779 462.441650,116.677834 464.081116,121.540085 
	C464.389648,122.455093 465.291901,123.169899 465.920258,123.977081 
	C466.565857,123.387024 467.662201,122.880890 467.790009,122.194412 
	C470.006439,110.290138 472.103821,98.363701 474.258575,86.265877 
	C464.824921,82.726692 455.421387,81.764610 445.928986,82.162567 
	C436.039307,82.577194 426.527893,84.629883 417.857178,89.927132 
	C405.342682,97.572716 398.803314,111.764992 401.850861,125.271713 
	C403.981873,134.716492 410.046387,141.146591 417.950012,145.961136 
	C428.609222,152.454285 439.528839,158.519577 450.196716,164.999008 
	C453.282410,166.873199 456.342712,169.159729 458.631042,171.909393 
	C466.680908,181.582123 462.848755,194.796616 450.735931,197.994095 
	C438.720551,201.165848 428.293457,196.710007 421.105377,187.232254 
	C415.200104,179.445953 411.170380,170.237228 405.998840,161.111038 
	C405.422119,161.692886 404.101562,162.926712 402.892792,164.261734 
	C397.882202,169.795746 393.399780,175.925568 387.820984,180.804840 
	C372.725098,194.007919 348.937500,193.968109 335.707123,181.093887 
	C325.689484,171.345917 323.336548,158.786697 322.997375,144.942810 
	C344.527802,144.942810 365.750458,144.942810 388.119324,144.942810 
	C387.036255,133.418198 386.808014,122.383987 384.796051,111.685196 
	C382.071472,97.196861 372.835999,87.889717 358.440643,84.044922 
	C335.537567,77.927834 312.316467,89.454536 303.166840,112.189972 
	C293.727692,135.644958 293.174805,159.143021 304.894012,182.242203 
	C305.471954,183.381409 305.506439,185.933838 304.829102,186.387482 
	C300.495941,189.289566 296.173737,192.702850 291.309967,194.198013 
	C284.573151,196.268982 280.025543,193.352554 277.803345,186.607529 
	C276.628967,183.043030 275.933624,179.148148 275.921844,175.399597 
	C275.792572,134.239044 275.840759,93.077927 275.840759,51.916958 
	C275.840759,46.128735 275.840759,40.340515 275.840759,34.384510 
	C265.546570,38.376785 255.535843,42.259144 245.124680,46.296787 
	C251.427979,63.400639 250.088242,81.467697 250.142914,99.399773 
	C250.210999,121.729797 250.052994,144.061066 250.235352,166.389816 
	C250.279892,171.844803 251.482712,177.282928 251.717514,182.747513 
	C251.806671,184.822617 251.292343,187.526306 249.977249,188.949112 
	C245.558167,193.730118 240.420807,197.551773 233.296005,194.726379 
	C226.696213,192.109192 224.206131,186.561249 224.044220,180.015762 
	C223.759964,168.524078 223.987564,157.020691 223.810394,145.525131 
	C223.653885,135.371475 223.698303,125.182457 222.834106,115.079185 
	C221.345108,97.671394 212.009247,86.598358 196.611832,83.361610 
	C187.375275,81.419968 178.091293,81.507431 168.905579,84.037132 
	C151.401962,88.857544 140.705841,102.855804 141.282349,120.600677 
	C148.633820,123.453896 156.108398,126.354904 164.087357,129.451660 
	C164.087357,125.730507 163.678802,122.669945 164.171082,119.761879 
	C165.247406,113.403633 166.134644,106.891258 168.291519,100.868889 
	C170.998535,93.310387 177.102921,90.009155 184.242355,90.760712 
	C191.094986,91.482071 195.567642,95.319611 196.897217,103.475548 
	C198.175308,111.315720 198.017456,119.378868 198.896667,127.298950 
	C199.517822,132.894211 196.792099,136.179062 192.303864,138.374924 
	C186.780487,141.077225 181.081573,143.418198 175.498276,146.001236 
	C167.054214,149.907715 158.161789,153.113098 150.318939,157.996140 
	C133.081268,168.728516 130.793304,188.381119 145.033478,202.502823 
M768.510925,185.121887 
	C767.645630,185.615936 766.807861,186.167801 765.910828,186.595184 
	C756.002686,191.315353 748.504822,187.384964 746.726318,176.467133 
	C746.326904,174.015274 746.131470,171.503113 746.126953,169.018188 
	C746.083252,144.860626 746.095154,120.702942 746.109924,96.545303 
	C746.111023,94.786606 746.257080,93.027985 746.359314,90.741058 
	C758.170227,90.741058 769.411621,90.741058 780.518555,90.741058 
	C780.518555,88.264603 780.518555,86.354233 780.518555,83.907227 
	C768.958069,83.907227 757.726501,83.907227 745.951294,83.907227 
	C745.951294,72.703522 745.951294,62.036221 745.951294,51.473965 
	C737.560669,55.363819 729.567017,58.981556 721.690796,62.838940 
	C720.767334,63.291214 719.981506,65.071388 719.999573,66.222374 
	C720.090088,71.995323 720.469299,77.763756 720.770264,84.015327 
	C707.280823,84.015327 694.158630,84.038681 681.036987,83.957245 
	C680.250366,83.952370 678.985596,83.280113 678.757751,82.632080 
	C675.321960,72.858047 672.003357,62.943642 674.440735,52.436001 
	C675.893188,46.174488 683.238220,43.840378 688.370544,47.871021 
	C690.912598,49.867432 693.274048,52.529865 694.717590,55.394691 
	C697.397766,60.713810 699.280334,66.430069 701.641174,71.918083 
	C702.251709,73.337250 703.405029,74.522888 704.309021,75.815811 
	C704.776917,75.581070 705.244812,75.346329 705.712708,75.111588 
	C707.718689,64.528122 709.694580,53.938835 711.741760,43.363354 
	C713.000732,36.859161 712.058655,34.917816 705.251221,34.226154 
	C684.597839,32.127682 666.845703,37.452198 658.264343,62.653614 
	C656.001038,69.300385 655.446350,76.528954 653.995911,84.068115 
	C650.038452,84.068115 645.622803,84.068115 640.872559,84.068115 
	C640.995483,86.484070 641.091675,88.373497 641.212524,90.747910 
	C645.985229,90.747910 650.236755,90.747910 654.929810,90.747910 
	C654.929810,92.721306 654.930298,94.180557 654.929749,95.639816 
	C654.919739,121.630089 655.086243,147.622421 654.783691,173.609299 
	C654.700989,180.711227 653.376770,187.822403 652.294373,194.879028 
	C651.752258,198.413635 650.472412,201.835083 649.453003,205.576416 
	C661.639038,205.576416 673.305725,205.576416 685.599365,205.576416 
	C679.814331,190.100723 679.773193,174.493774 679.865173,158.840942 
	C679.986572,138.182693 679.895020,117.523216 679.895020,96.864265 
	C679.895020,95.085060 679.895020,93.305855 679.895020,91.399216 
	C693.865479,91.399216 707.241272,91.399216 720.954773,91.399216 
	C720.954773,93.535538 720.954773,95.344856 720.954773,97.154167 
	C720.954834,122.977852 720.899719,148.801773 721.005981,174.625015 
	C721.025085,179.260254 721.331482,183.961365 722.157104,188.513840 
	C724.819397,203.194946 734.546143,210.286636 749.148926,208.824509 
	C760.607178,207.677231 774.489014,195.536591 773.479614,182.125763 
	C771.966248,183.069077 770.577820,183.934479 768.510925,185.121887 
M121.060936,93.697197 
	C122.030136,84.263802 123.001648,74.830643 123.968018,65.396957 
	C125.566170,49.795723 125.588455,49.648857 110.325150,47.185200 
	C92.075226,44.239475 74.524841,46.092171 58.215145,55.570889 
	C35.511452,68.765602 26.020634,104.167274 54.597557,124.842636 
	C63.070396,130.972733 72.128944,136.296310 80.949837,141.941437 
	C90.407791,147.994263 99.663124,154.319412 104.541588,164.963821 
	C112.748650,182.870956 102.412758,198.195267 82.934891,197.221008 
	C65.344887,196.341187 54.128387,187.592239 49.264202,169.914566 
	C46.946682,161.492126 45.928230,152.712250 44.065384,142.721558 
	C42.620579,144.324173 41.051987,145.257462 40.801151,146.464584 
	C37.586281,161.935608 34.517059,177.437683 31.581331,192.964111 
	C31.384480,194.005234 32.243988,195.950974 33.142761,196.390152 
	C50.569431,204.905518 68.581062,211.344986 88.378517,207.652771 
	C106.380432,204.295456 119.966812,194.664124 126.846558,177.161240 
	C133.553009,160.099258 128.190277,142.102722 111.913902,129.278687 
	C100.565590,120.337440 88.097115,112.823906 76.671158,103.972771 
	C70.733292,99.372986 65.178436,93.811134 60.881905,87.680717 
	C55.723305,80.320282 57.691216,70.818634 63.822556,64.881180 
	C73.337479,55.667156 96.940002,53.750122 105.591454,71.108650 
	C108.749222,77.444458 110.718643,84.421371 112.764725,91.245377 
	C114.144073,95.845718 114.606430,100.714684 115.721230,105.405922 
	C115.948036,106.360390 117.257980,107.057472 118.068611,107.873207 
	C118.713722,106.930862 119.770821,106.052498 119.928909,105.034523 
	C120.464355,101.586639 120.681473,98.089317 121.060936,93.697197 
M633.682251,173.091003 
	C639.630859,152.439865 639.382690,131.920853 631.000366,112.043175 
	C623.526062,94.318985 610.621887,82.752693 590.512024,82.322662 
	C570.168518,81.887657 555.203552,91.655380 546.929626,109.974586 
	C535.551697,135.166138 535.927246,160.752136 548.561157,185.488449 
	C558.141479,204.246017 579.205872,213.295212 599.296204,207.853348 
	C617.008423,203.055618 627.699707,190.868454 633.682251,173.091003 
M521.789062,34.676468 
	C511.949463,38.569798 502.109833,42.463127 493.433197,45.896290 
	C494.683197,55.464863 496.745117,64.458931 496.877625,73.481339 
	C497.357208,106.140213 497.574402,138.814896 497.042053,171.469788 
	C496.870911,181.967621 494.077301,192.422623 492.485535,202.897522 
	C492.348083,203.801926 492.226196,204.708679 492.079834,205.735199 
	C505.173767,205.735199 517.935730,205.735199 531.531799,205.735199 
	C521.328247,188.133331 522.737488,169.159225 522.733765,150.391434 
	C522.727783,119.891853 522.747437,89.392258 522.721741,58.892696 
	C522.714966,50.909313 522.580750,42.926037 521.789062,34.676468 
M800.117737,208.629349 
	C808.536194,209.216888 815.004456,205.745575 817.641174,199.225159 
	C821.050110,190.795059 816.915161,181.517395 808.406738,178.505585 
	C800.072693,175.555496 790.928284,179.829117 788.102112,187.994858 
	C784.983276,197.006165 789.674622,205.545319 800.117737,208.629349 
z"/>
<path fill="#0E432C" opacity="1.000000" stroke="none" 
	d="
M144.754959,202.273773 
	C130.793304,188.381119 133.081268,168.728516 150.318939,157.996140 
	C158.161789,153.113098 167.054214,149.907715 175.498276,146.001236 
	C181.081573,143.418198 186.780487,141.077225 192.303864,138.374924 
	C196.792099,136.179062 199.517822,132.894211 198.896667,127.298950 
	C198.017456,119.378868 198.175308,111.315720 196.897217,103.475548 
	C195.567642,95.319611 191.094986,91.482071 184.242355,90.760712 
	C177.102921,90.009155 170.998535,93.310387 168.291519,100.868889 
	C166.134644,106.891258 165.247406,113.403633 164.171082,119.761879 
	C163.678802,122.669945 164.087357,125.730507 164.087357,129.451660 
	C156.108398,126.354904 148.633820,123.453896 141.282349,120.600677 
	C140.705841,102.855804 151.401962,88.857544 168.905579,84.037132 
	C178.091293,81.507431 187.375275,81.419968 196.611832,83.361610 
	C212.009247,86.598358 221.345108,97.671394 222.834106,115.079185 
	C223.698303,125.182457 223.653885,135.371475 223.810394,145.525131 
	C223.987564,157.020691 223.759964,168.524078 224.044220,180.015762 
	C224.206131,186.561249 226.696213,192.109192 233.296005,194.726379 
	C240.420807,197.551773 245.558167,193.730118 249.977249,188.949112 
	C251.292343,187.526306 251.806671,184.822617 251.717514,182.747513 
	C251.482712,177.282928 250.279892,171.844803 250.235352,166.389816 
	C250.052994,144.061066 250.210999,121.729797 250.142914,99.399773 
	C250.088242,81.467697 251.427979,63.400639 245.124680,46.296787 
	C255.535843,42.259144 265.546570,38.376785 275.840759,34.384510 
	C275.840759,40.340515 275.840759,46.128735 275.840759,51.916958 
	C275.840759,93.077927 275.792572,134.239044 275.921844,175.399597 
	C275.933624,179.148148 276.628967,183.043030 277.803345,186.607529 
	C280.025543,193.352554 284.573151,196.268982 291.309967,194.198013 
	C296.173737,192.702850 300.495941,189.289566 304.829102,186.387482 
	C305.506439,185.933838 305.471954,183.381409 304.894012,182.242203 
	C293.174805,159.143021 293.727692,135.644958 303.166840,112.189972 
	C312.316467,89.454536 335.537567,77.927834 358.440643,84.044922 
	C372.835999,87.889717 382.071472,97.196861 384.796051,111.685196 
	C386.808014,122.383987 387.036255,133.418198 388.119324,144.942810 
	C365.750458,144.942810 344.527802,144.942810 322.997375,144.942810 
	C323.336548,158.786697 325.689484,171.345917 335.707123,181.093887 
	C348.937500,193.968109 372.725098,194.007919 387.820984,180.804840 
	C393.399780,175.925568 397.882202,169.795746 402.892792,164.261734 
	C404.101562,162.926712 405.422119,161.692886 405.998840,161.111038 
	C411.170380,170.237228 415.200104,179.445953 421.105377,187.232254 
	C428.293457,196.710007 438.720551,201.165848 450.735931,197.994095 
	C462.848755,194.796616 466.680908,181.582123 458.631042,171.909393 
	C456.342712,169.159729 453.282410,166.873199 450.196716,164.999008 
	C439.528839,158.519577 428.609222,152.454285 417.950012,145.961136 
	C410.046387,141.146591 403.981873,134.716492 401.850861,125.271713 
	C398.803314,111.764992 405.342682,97.572716 417.857178,89.927132 
	C426.527893,84.629883 436.039307,82.577194 445.928986,82.162567 
	C455.421387,81.764610 464.824921,82.726692 474.258575,86.265877 
	C472.103821,98.363701 470.006439,110.290138 467.790009,122.194412 
	C467.662201,122.880890 466.565857,123.387024 465.920227,123.977081 
	C465.291901,123.169899 464.389648,122.455093 464.081116,121.540085 
	C462.441650,116.677834 461.561829,111.457779 459.283264,106.933609 
	C454.353180,97.144592 446.169464,92.218445 434.951935,92.910973 
	C429.020569,93.277161 424.130524,95.605637 421.722382,101.182449 
	C419.340820,106.697739 420.422424,112.172913 424.614746,116.433807 
	C427.843567,119.715401 431.549988,122.654724 435.432465,125.139328 
	C443.841980,130.521103 452.518890,135.483643 461.053131,140.672363 
	C475.334930,149.355560 481.233795,161.982803 478.020630,178.402328 
	C475.079041,193.434204 465.454895,202.767624 451.060242,206.882996 
	C428.351837,213.375214 410.430634,204.506287 395.065247,188.362595 
	C393.805481,187.039032 392.672455,185.594864 391.102722,183.766739 
	C381.269745,197.378113 369.443878,207.953293 351.838531,208.934326 
	C334.398834,209.906097 320.606659,202.546097 310.993988,191.258133 
	C306.079346,195.359039 301.247192,199.980499 295.841064,203.786804 
	C282.072235,213.481064 264.950470,209.584137 256.259277,195.113327 
	C255.664780,194.123459 255.160904,193.079178 254.600037,192.032547 
	C236.509232,215.999725 208.481949,214.054153 198.874802,190.879211 
	C176.961990,210.941284 160.209702,214.557877 144.754959,202.273773 
M354.949493,137.722870 
	C358.612457,137.773651 361.133850,136.282379 361.451477,132.399734 
	C362.370026,121.171959 361.681641,110.079674 356.743042,99.767212 
	C354.253448,94.568611 349.855652,91.120316 343.764404,91.101959 
	C337.726196,91.083755 332.832886,93.540100 329.795197,99.036285 
	C323.101929,111.146645 323.083801,124.307892 323.047882,137.776855 
	C333.833405,137.776855 343.945007,137.776855 354.949493,137.722870 
M161.978195,167.997101 
	C161.839554,169.486740 161.607361,170.974503 161.577408,172.466324 
	C161.379120,182.342453 166.847672,189.867691 175.767792,191.415329 
	C184.200516,192.878372 191.443008,189.679642 197.920013,184.585159 
	C198.740082,183.940125 199.094666,182.292587 199.110291,181.102234 
	C199.210648,173.455460 198.964478,165.800018 199.228378,158.161102 
	C199.375183,153.911621 197.301956,152.224197 193.621887,152.423370 
	C187.349838,152.762863 181.026093,153.103119 174.860809,154.206909 
	C167.847839,155.462479 163.458771,159.981506 161.978195,167.997101 
z"/>
<path fill="#0D422C" opacity="1.000000" stroke="none" 
	d="
M768.850159,184.960876 
	C770.577820,183.934479 771.966248,183.069077 773.479614,182.125763 
	C774.489014,195.536591 760.607178,207.677231 749.148926,208.824509 
	C734.546143,210.286636 724.819397,203.194946 722.157104,188.513840 
	C721.331482,183.961365 721.025085,179.260254 721.005981,174.625015 
	C720.899719,148.801773 720.954834,122.977852 720.954773,97.154167 
	C720.954773,95.344856 720.954773,93.535538 720.954773,91.399216 
	C707.241272,91.399216 693.865479,91.399216 679.895020,91.399216 
	C679.895020,93.305855 679.895020,95.085060 679.895020,96.864265 
	C679.895020,117.523216 679.986572,138.182693 679.865173,158.840942 
	C679.773193,174.493774 679.814331,190.100723 685.599365,205.576416 
	C673.305725,205.576416 661.639038,205.576416 649.453003,205.576416 
	C650.472412,201.835083 651.752258,198.413635 652.294373,194.879028 
	C653.376770,187.822403 654.700989,180.711227 654.783691,173.609299 
	C655.086243,147.622421 654.919739,121.630089 654.929749,95.639816 
	C654.930298,94.180557 654.929810,92.721306 654.929810,90.747910 
	C650.236755,90.747910 645.985229,90.747910 641.212524,90.747910 
	C641.091675,88.373497 640.995483,86.484070 640.872559,84.068115 
	C645.622803,84.068115 650.038452,84.068115 653.995911,84.068115 
	C655.446350,76.528954 656.001038,69.300385 658.264343,62.653614 
	C666.845703,37.452198 684.597839,32.127682 705.251221,34.226154 
	C712.058655,34.917816 713.000732,36.859161 711.741760,43.363354 
	C709.694580,53.938835 707.718689,64.528122 705.712708,75.111588 
	C705.244812,75.346329 704.776917,75.581070 704.309021,75.815811 
	C703.405029,74.522888 702.251709,73.337250 701.641174,71.918083 
	C699.280334,66.430069 697.397766,60.713810 694.717590,55.394691 
	C693.274048,52.529865 690.912598,49.867432 688.370544,47.871021 
	C683.238220,43.840378 675.893188,46.174488 674.440735,52.436001 
	C672.003357,62.943642 675.321960,72.858047 678.757751,82.632080 
	C678.985596,83.280113 680.250366,83.952370 681.036987,83.957245 
	C694.158630,84.038681 707.280823,84.015327 720.770264,84.015327 
	C720.469299,77.763756 720.090088,71.995323 719.999573,66.222374 
	C719.981506,65.071388 720.767334,63.291214 721.690796,62.838940 
	C729.567017,58.981556 737.560669,55.363819 745.951294,51.473965 
	C745.951294,62.036221 745.951294,72.703522 745.951294,83.907227 
	C757.726501,83.907227 768.958069,83.907227 780.518555,83.907227 
	C780.518555,86.354233 780.518555,88.264603 780.518555,90.741058 
	C769.411621,90.741058 758.170227,90.741058 746.359314,90.741058 
	C746.257080,93.027985 746.111023,94.786606 746.109924,96.545303 
	C746.095154,120.702942 746.083252,144.860626 746.126953,169.018188 
	C746.131470,171.503113 746.326904,174.015274 746.726318,176.467133 
	C748.504822,187.384964 756.002686,191.315353 765.910828,186.595184 
	C766.807861,186.167801 767.645630,185.615936 768.850159,184.960876 
z"/>
<path fill="#0E432D" opacity="1.000000" stroke="none" 
	d="
M121.040588,94.154045 
	C120.681473,98.089317 120.464355,101.586639 119.928909,105.034523 
	C119.770821,106.052498 118.713722,106.930862 118.068604,107.873207 
	C117.257980,107.057472 115.948036,106.360390 115.721230,105.405922 
	C114.606430,100.714684 114.144073,95.845718 112.764725,91.245377 
	C110.718643,84.421371 108.749222,77.444458 105.591454,71.108650 
	C96.940002,53.750122 73.337479,55.667156 63.822556,64.881180 
	C57.691216,70.818634 55.723305,80.320282 60.881905,87.680717 
	C65.178436,93.811134 70.733292,99.372986 76.671158,103.972771 
	C88.097115,112.823906 100.565590,120.337440 111.913902,129.278687 
	C128.190277,142.102722 133.553009,160.099258 126.846558,177.161240 
	C119.966812,194.664124 106.380432,204.295456 88.378517,207.652771 
	C68.581062,211.344986 50.569431,204.905518 33.142761,196.390152 
	C32.243988,195.950974 31.384480,194.005234 31.581331,192.964111 
	C34.517059,177.437683 37.586281,161.935608 40.801151,146.464584 
	C41.051987,145.257462 42.620579,144.324173 44.065384,142.721558 
	C45.928230,152.712250 46.946682,161.492126 49.264202,169.914566 
	C54.128387,187.592239 65.344887,196.341187 82.934891,197.221008 
	C102.412758,198.195267 112.748650,182.870956 104.541588,164.963821 
	C99.663124,154.319412 90.407791,147.994263 80.949837,141.941437 
	C72.128944,136.296310 63.070396,130.972733 54.597557,124.842636 
	C26.020634,104.167274 35.511452,68.765602 58.215145,55.570889 
	C74.524841,46.092171 92.075226,44.239475 110.325150,47.185200 
	C125.588455,49.648857 125.566170,49.795723 123.968018,65.396957 
	C123.001648,74.830643 122.030136,84.263802 121.040588,94.154045 
z"/>
<path fill="#0D422C" opacity="1.000000" stroke="none" 
	d="
M633.500854,173.445007 
	C627.699707,190.868454 617.008423,203.055618 599.296204,207.853348 
	C579.205872,213.295212 558.141479,204.246017 548.561157,185.488449 
	C535.927246,160.752136 535.551697,135.166138 546.929626,109.974586 
	C555.203552,91.655380 570.168518,81.887657 590.512024,82.322662 
	C610.621887,82.752693 623.526062,94.318985 631.000366,112.043175 
	C639.382690,131.920853 639.630859,152.439865 633.500854,173.445007 
M580.508606,195.071091 
	C588.251648,201.786636 597.135193,200.735336 602.455200,192.071976 
	C604.502747,188.737701 606.064392,184.892319 606.916809,181.072159 
	C611.564697,160.241013 610.629883,139.306198 606.115112,118.670555 
	C604.422363,110.933563 601.167236,103.013428 596.658142,96.548210 
	C590.790527,88.135178 580.288147,89.184769 574.559875,97.777977 
	C572.484558,100.891251 570.938049,104.559845 570.000061,108.194359 
	C565.172241,126.901901 566.056213,145.839462 568.678955,164.717621 
	C570.168274,175.437668 572.406677,186.060913 580.508606,195.071091 
z"/>
<path fill="#10452E" opacity="1.000000" stroke="none" 
	d="
M522.147095,34.809589 
	C522.580750,42.926037 522.714966,50.909313 522.721741,58.892696 
	C522.747437,89.392258 522.727783,119.891853 522.733765,150.391434 
	C522.737488,169.159225 521.328247,188.133331 531.531799,205.735199 
	C517.935730,205.735199 505.173767,205.735199 492.079834,205.735199 
	C492.226196,204.708679 492.348083,203.801926 492.485535,202.897522 
	C494.077301,192.422623 496.870911,181.967621 497.042053,171.469788 
	C497.574402,138.814896 497.357208,106.140213 496.877625,73.481339 
	C496.745117,64.458931 494.683197,55.464863 493.433197,45.896290 
	C502.109833,42.463127 511.949463,38.569798 522.147095,34.809589 
z"/>
<path fill="#ADD126" opacity="1.000000" stroke="none" 
	d="
M799.723328,208.529541 
	C789.674622,205.545319 784.983276,197.006165 788.102112,187.994858 
	C790.928284,179.829117 800.072693,175.555496 808.406738,178.505585 
	C816.915161,181.517395 821.050110,190.795059 817.641174,199.225159 
	C815.004456,205.745575 808.536194,209.216888 799.723328,208.529541 
z"/>
<path fill="#FBFCFB" opacity="1.000000" stroke="none" 
	d="
M354.503052,137.749863 
	C343.945007,137.776855 333.833405,137.776855 323.047882,137.776855 
	C323.083801,124.307892 323.101929,111.146645 329.795197,99.036285 
	C332.832886,93.540100 337.726196,91.083755 343.764404,91.101959 
	C349.855652,91.120316 354.253448,94.568611 356.743042,99.767212 
	C361.681641,110.079674 362.370026,121.171959 361.451477,132.399734 
	C361.133850,136.282379 358.612457,137.773651 354.503052,137.749863 
z"/>
<path fill="#FCFDFD" opacity="1.000000" stroke="none" 
	d="
M162.019135,167.564789 
	C163.458771,159.981506 167.847839,155.462479 174.860809,154.206909 
	C181.026093,153.103119 187.349838,152.762863 193.621887,152.423370 
	C197.301956,152.224197 199.375183,153.911621 199.228378,158.161102 
	C198.964478,165.800018 199.210648,173.455460 199.110291,181.102234 
	C199.094666,182.292587 198.740082,183.940125 197.920013,184.585159 
	C191.443008,189.679642 184.200516,192.878372 175.767792,191.415329 
	C166.847672,189.867691 161.379120,182.342453 161.577408,172.466324 
	C161.607361,170.974503 161.839554,169.486740 162.019135,167.564789 
z"/>
<path fill="#FDFEFD" opacity="1.000000" stroke="none" 
	d="
M580.244324,194.817810 
	C572.406677,186.060913 570.168274,175.437668 568.678955,164.717621 
	C566.056213,145.839462 565.172241,126.901901 570.000061,108.194359 
	C570.938049,104.559845 572.484558,100.891251 574.559875,97.777977 
	C580.288147,89.184769 590.790527,88.135178 596.658142,96.548210 
	C601.167236,103.013428 604.422363,110.933563 606.115112,118.670555 
	C610.629883,139.306198 611.564697,160.241013 606.916809,181.072159 
	C606.064392,184.892319 604.502747,188.737701 602.455200,192.071976 
	C597.135193,200.735336 588.251648,201.786636 580.244324,194.817810 
z"/>
</svg>