<svg width="257" height="81" viewBox="0 0 257 81" fill="none" xmlns="http://www.w3.org/2000/svg">
<path d="M90.67 30.5978C90.67 28.8563 91.1745 27.4792 92.1834 26.4667C93.1924 25.4543 94.5646 24.948 96.3 24.948H116.277C116.56 25.3935 116.802 25.9807 117.004 26.7097C117.246 27.4387 117.367 28.2083 117.367 29.0182C117.367 30.5572 117.024 31.6508 116.338 32.2988C115.692 32.9468 114.825 33.2708 113.735 33.2708H100.961V38.9205H114.582C114.865 39.366 115.107 39.9533 115.309 40.6823C115.551 41.3708 115.672 42.12 115.672 42.93C115.672 44.469 115.349 45.5625 114.703 46.2105C114.058 46.8585 113.19 47.1825 112.1 47.1825H100.961V53.5613H116.52C116.802 54.0068 117.044 54.594 117.246 55.323C117.488 56.052 117.609 56.8215 117.609 57.6315C117.609 59.1705 117.266 60.2843 116.58 60.9728C115.934 61.6208 115.067 61.9448 113.977 61.9448H96.3C94.5646 61.9448 93.1924 61.4385 92.1834 60.426C91.1745 59.4135 90.67 58.0365 90.67 56.295V30.5978Z" fill="#1E1E1E"/>
<path d="M160.098 60.4868C159.533 61.0538 158.705 61.479 157.616 61.7625C156.566 62.0865 155.295 62.2485 153.802 62.2485C152.309 62.2485 150.896 62.0258 149.564 61.5803C148.232 61.1348 147.143 60.0615 146.295 58.3605L140.302 46.089C139.697 44.8335 139.152 43.659 138.667 42.5655C138.183 41.4315 137.659 40.1355 137.093 38.6775L136.73 38.7383C136.892 40.9253 136.972 43.1527 136.972 45.4207C137.013 47.6887 137.033 49.9162 137.033 52.1032V61.5195C136.589 61.641 135.903 61.7625 134.975 61.884C134.087 62.0055 133.199 62.0662 132.311 62.0662C131.423 62.0662 130.636 62.0055 129.95 61.884C129.264 61.7625 128.699 61.5195 128.255 61.155C127.811 60.7905 127.468 60.3045 127.226 59.697C126.984 59.049 126.863 58.2188 126.863 57.2062V26.8312C127.428 26.0212 128.295 25.4137 129.466 25.0088C130.636 24.6038 131.887 24.4012 133.219 24.4012C134.712 24.4012 136.125 24.6443 137.457 25.1302C138.829 25.5758 139.919 26.6288 140.726 28.2893L146.78 40.5607C147.385 41.8162 147.93 43.011 148.414 44.145C148.898 45.2385 149.423 46.5143 149.988 47.9723L150.291 47.9115C150.129 45.7245 150.028 43.5375 149.988 41.3505C149.948 39.1635 149.928 36.9765 149.928 34.7895V24.948C150.371 24.8265 151.037 24.705 151.925 24.5835C152.854 24.462 153.762 24.4012 154.649 24.4012C156.425 24.4012 157.777 24.7252 158.706 25.3732C159.634 25.9807 160.098 27.2767 160.098 29.2612V60.4868Z" fill="#1E1E1E"/>
<path d="M181.571 61.5195C181.127 61.641 180.421 61.7625 179.452 61.884C178.524 62.0055 177.596 62.0662 176.668 62.0662C175.739 62.0662 174.912 61.9853 174.186 61.8233C173.5 61.7018 172.914 61.4587 172.43 61.0942C171.946 60.7298 171.583 60.2235 171.34 59.5755C171.098 58.9275 170.977 58.077 170.977 57.024V24.948C171.421 24.867 172.127 24.7657 173.096 24.6443C174.065 24.4823 174.993 24.4012 175.881 24.4012C176.809 24.4012 177.616 24.4823 178.302 24.6443C179.029 24.7657 179.634 25.0087 180.118 25.3732C180.603 25.7377 180.966 26.244 181.208 26.892C181.45 27.54 181.571 28.3905 181.571 29.4435V61.5195Z" fill="#1E1E1E"/>
<path d="M211.155 32.3595C208.048 32.3595 205.667 33.3112 204.012 35.2147C202.357 37.1182 201.53 39.8115 201.53 43.2945C201.53 46.818 202.438 49.5315 204.254 51.435C206.111 53.3385 208.593 54.2902 211.7 54.2902C213.355 54.2902 214.747 54.0675 215.877 53.622C217.048 53.1765 218.158 52.6702 219.207 52.1032C219.893 52.6702 220.418 53.3587 220.781 54.1688C221.184 54.9383 221.386 55.8495 221.386 56.9025C221.386 58.563 220.458 59.9805 218.602 61.155C216.785 62.289 214.001 62.856 210.247 62.856C207.543 62.856 205.001 62.4712 202.62 61.7017C200.238 60.9322 198.16 59.7577 196.384 58.1782C194.608 56.5583 193.196 54.5332 192.147 52.1032C191.138 49.6327 190.633 46.6965 190.633 43.2945C190.633 40.1355 191.117 37.3613 192.086 34.9718C193.095 32.5418 194.447 30.4965 196.142 28.836C197.877 27.1755 199.895 25.92 202.196 25.0695C204.496 24.219 206.958 23.7938 209.581 23.7938C213.294 23.7938 216.16 24.4013 218.178 25.6162C220.236 26.8313 221.265 28.3905 221.265 30.294C221.265 31.347 221.003 32.2582 220.478 33.0277C219.954 33.7972 219.348 34.4048 218.662 34.8503C217.613 34.1618 216.483 33.5745 215.272 33.0885C214.102 32.6025 212.729 32.3595 211.155 32.3595Z" fill="#1E1E1E"/>
<path d="M230.061 30.5978C230.061 28.8563 230.565 27.4792 231.574 26.4667C232.583 25.4543 233.955 24.948 235.691 24.948H255.668C255.951 25.3935 256.193 25.9807 256.395 26.7097C256.637 27.4387 256.758 28.2083 256.758 29.0182C256.758 30.5572 256.415 31.6508 255.729 32.2988C255.083 32.9468 254.215 33.2708 253.126 33.2708H240.352V38.9205H253.973C254.256 39.366 254.498 39.9533 254.7 40.6823C254.942 41.3708 255.063 42.12 255.063 42.93C255.063 44.469 254.74 45.5625 254.094 46.2105C253.448 46.8585 252.581 47.1825 251.491 47.1825H240.352V53.5613H255.91C256.193 54.0068 256.435 54.594 256.637 55.323C256.879 56.052 257 56.8215 257 57.6315C257 59.1705 256.657 60.2843 255.971 60.9728C255.325 61.6208 254.457 61.9448 253.368 61.9448H235.691C233.955 61.9448 232.583 61.4385 231.574 60.426C230.565 59.4135 230.061 58.0365 230.061 56.295V30.5978Z" fill="#1E1E1E"/>
<path fill-rule="evenodd" clip-rule="evenodd" d="M40.3585 81C62.648 81 80.7171 62.8675 80.7171 40.5C80.7171 18.1325 62.648 0 40.3585 0C18.0691 0 0 18.1325 0 40.5C0 62.8675 18.0691 81 40.3585 81ZM58.5542 32.2546L69.1483 25.2398L58.5542 18.225V22.0758L52.6092 21.9101C48.1993 21.7871 44.3653 24.925 43.5987 29.2847C42.7128 32.9783 41.7854 36.6857 40.8166 40.4071C39.6866 44.9026 38.5767 49.0538 37.487 52.8608H37.1238C35.913 48.9323 34.7426 45.1658 33.6126 41.5613C32.5229 37.9163 31.4332 34.1093 30.3436 30.1403C29.8996 28.4393 29.1933 27.285 28.2247 26.6775C27.2965 26.0295 26.0857 25.7055 24.5925 25.7055C23.3817 25.7055 21.727 26.2523 21.727 26.2523C21.6942 26.2663 21.5282 26.3218 21.3565 26.3792C21.1686 26.4421 20.9736 26.5073 20.9388 26.5229L9.22938 32.0633C8.3018 32.5022 7.84977 33.5695 8.17862 34.5443L9.06124 37.1606C9.3808 38.1079 10.3416 38.6792 11.323 38.5055L21.2387 36.751C21.5596 37.7774 21.8906 38.8139 22.2315 39.8603C22.9176 41.9663 23.6239 44.0521 24.3503 46.1175C25.1171 48.1426 25.8436 50.0663 26.5297 51.8888C27.2561 53.7113 27.9422 55.3718 28.588 56.8703C29.2337 58.3283 29.7785 59.523 30.2225 60.4545C30.6664 61.3456 31.4938 62.0543 32.7045 62.5808C33.9153 63.0668 35.3682 63.3098 37.0633 63.3098C38.4758 63.3098 39.7673 63.1276 40.9377 62.7631C42.1484 62.3985 43.0363 61.9733 43.6013 61.4873C44.0453 60.8798 44.6305 59.8065 45.3569 58.2675C46.0834 56.688 46.8502 54.8858 47.6574 52.8608C48.5049 50.7953 49.3323 48.6083 50.1394 46.2998C50.987 43.9913 51.7336 41.784 52.3793 39.678C53.0654 37.5315 53.6103 35.6078 54.0139 33.9068C54.27 32.9255 54.3985 31.8769 54.4923 31.1107C54.5612 30.5488 54.6115 30.1388 54.6798 30.0188C54.6798 30.0188 55.0228 29.2899 55.5273 29.2899L58.5542 28.7037V32.2546Z" fill="#1E1E1E"/>
</svg>
