<svg width="757" height="288" viewBox="0 0 757 288" fill="none" xmlns="http://www.w3.org/2000/svg">
<rect x="223.5" y="30.5" width="308" height="219" rx="39.5" stroke="#12B886" stroke-dasharray="10 10"/>
<path d="M222.342 123.946L198.327 115.162C196.126 114.357 193.801 113.946 191.457 113.946L162.342 113.946" stroke="#C7707D" stroke-width="8"/>
<path d="M231.774 138.924L198.438 151.616C196.165 152.481 193.754 152.924 191.322 152.924L160.774 152.924" stroke="#C7707D" stroke-width="8"/>
<path d="M238.5 134.5L203.783 167.327C200.069 170.838 195.152 172.795 190.042 172.795L158.265 172.795" stroke="#C7707D" stroke-width="8"/>
<path d="M234 124.5L203.535 99.4529C199.957 96.5104 195.467 94.9018 190.834 94.9018L166.119 94.9018" stroke="#C7707D" stroke-width="8"/>
<path d="M130.985 133L571.5 131.227M660.5 165L632 165L628 165C617.507 165 609 156.493 609 146V146V146C609 137.841 602.386 131.227 594.227 131.227L571.5 131.227M571.5 131.227L575.408 128.846C581.365 125.215 585 118.743 585 111.767L585 96.5C585 85.4543 593.954 76.5 605 76.5L678.5 76.5M571.5 131.227L579.764 140.27C583.132 143.956 585 148.769 585 153.762L585 240C585 251.046 593.954 260 605 260L670 260" stroke="url(#paint0_linear_198_3920)" stroke-width="8"/>
<path d="M437 96H525C536.046 96 545 104.954 545 116V146C545 157.046 536.046 166 525 166H437V96Z" fill="#12B886"/>
<path d="M319 96H437V166H319V96Z" fill="#EACC6A"/>
<path d="M211 116C211 104.954 219.954 96 231 96H319V166H231C219.954 166 211 157.046 211 146V116Z" fill="#EAB76A"/>
<path opacity="0.8" d="M236.64 116.5V127H239.01V116.5H236.64ZM242.093 116.5V127H244.358V120.265L249.443 127H251.603V116.5H249.353V123.25L244.253 116.5H242.093ZM261.714 124.465C261.039 124.81 260.289 125.035 259.659 125.035C257.799 125.035 256.344 123.61 256.344 121.75C256.344 119.905 257.784 118.48 259.644 118.48C260.664 118.48 261.744 118.93 262.524 119.65L263.859 117.955C262.794 117.025 261.204 116.425 259.644 116.425C256.374 116.425 253.914 118.72 253.914 121.75C253.914 124.795 256.329 127.105 259.509 127.105C260.964 127.105 262.659 126.55 263.769 125.74V121.705H261.714V124.465ZM266.591 116.5V127H274.751V125.035H268.961V122.71H274.016V120.745H268.961V118.465H274.586V116.5H266.591ZM284.275 119.5L285.19 117.535C284.14 116.845 282.67 116.395 281.2 116.395C278.77 116.395 277.135 117.595 277.135 119.5C277.135 123.22 282.73 122.065 282.73 124.045C282.73 124.69 282.145 125.05 281.17 125.05C280.06 125.05 278.53 124.435 277.45 123.475L276.505 125.41C277.69 126.415 279.415 127.075 281.14 127.075C283.465 127.075 285.25 125.965 285.25 123.91C285.265 120.13 279.67 121.21 279.67 119.275C279.67 118.705 280.21 118.42 281.005 118.42C281.845 118.42 283.165 118.84 284.275 119.5ZM286.626 116.5V118.51H289.821V127H292.191V118.51H295.401V116.5H286.626ZM249.572 134.5H245.117V145H249.482C252.797 145 255.092 142.84 255.092 139.75C255.092 136.645 252.827 134.5 249.572 134.5ZM249.632 143.005H247.487V136.495H249.527C251.327 136.495 252.677 137.83 252.677 139.765C252.677 141.685 251.387 143.005 249.632 143.005ZM264.872 145H267.407L262.922 134.5H260.477L255.917 145H258.362L259.187 142.96H264.047L264.872 145ZM259.967 141.055L261.632 136.975L263.282 141.055H259.967ZM267.116 134.5V136.51H270.311V145H272.681V136.51H275.891V134.5H267.116ZM284.566 145H287.101L282.616 134.5H280.171L275.611 145H278.056L278.881 142.96H283.741L284.566 145ZM279.661 141.055L281.326 136.975L282.976 141.055H279.661Z" fill="#1E1E1E"/>
<path opacity="0.8" d="M329.183 116.5V127H331.448V120.265L336.533 127H338.693V116.5H336.443V123.25L331.343 116.5H329.183ZM346.644 116.425C343.434 116.425 341.004 118.69 341.004 121.75C341.004 124.795 343.434 127.105 346.644 127.105C349.854 127.105 352.284 124.78 352.284 121.75C352.284 118.705 349.854 116.425 346.644 116.425ZM346.674 118.495C348.429 118.495 349.854 119.905 349.854 121.75C349.854 123.595 348.429 125.035 346.674 125.035C344.919 125.035 343.434 123.595 343.434 121.75C343.434 119.905 344.904 118.495 346.674 118.495ZM363.724 127L361.489 123.535C362.764 122.935 363.454 121.765 363.454 120.145C363.454 117.82 361.894 116.5 359.149 116.5H354.589V127H356.959V124H359.149H359.374L361.039 127H363.724ZM356.959 118.465H359.149C360.454 118.465 361.204 119.05 361.204 120.22C361.204 121.42 360.454 122.02 359.149 122.02H356.959V118.465ZM366.194 116.5V127H368.339V119.92L371.129 125.935H372.674L375.464 119.92V127H377.594V116.5H374.954L371.909 122.92L368.849 116.5H366.194ZM388.424 127H390.959L386.474 116.5H384.029L379.469 127H381.914L382.739 124.96H387.599L388.424 127ZM383.519 123.055L385.184 118.975L386.834 123.055H383.519ZM392.801 116.5V127H399.671V124.93H395.171V116.5H392.801ZM401.827 116.5V127H404.197V116.5H401.827ZM406.785 116.5V118.48H412.47L406.59 125.395V127H415.725L415.74 125.02H409.785L415.65 118.09V116.5H406.785ZM418.108 116.5V127H426.268V125.035H420.478V122.71H425.533V120.745H420.478V118.465H426.103V116.5H418.108ZM361.572 134.5H357.117V145H361.482C364.797 145 367.092 142.84 367.092 139.75C367.092 136.645 364.827 134.5 361.572 134.5ZM361.632 143.005H359.487V136.495H361.527C363.327 136.495 364.677 137.83 364.677 139.765C364.677 141.685 363.387 143.005 361.632 143.005ZM376.872 145H379.407L374.922 134.5H372.477L367.917 145H370.362L371.187 142.96H376.047L376.872 145ZM371.967 141.055L373.632 136.975L375.282 141.055H371.967ZM379.116 134.5V136.51H382.311V145H384.681V136.51H387.891V134.5H379.116ZM396.566 145H399.101L394.616 134.5H392.171L387.611 145H390.056L390.881 142.96H395.741L396.566 145ZM391.661 141.055L393.326 136.975L394.976 141.055H391.661Z" fill="#1E1E1E"/>
<path opacity="0.8" d="M468.414 122.605V116.5H466.044V122.605C466.044 125.38 467.904 127.105 470.814 127.105C473.709 127.105 475.524 125.38 475.524 122.605V116.5H473.154V122.605C473.154 124.12 472.224 125.035 470.814 125.035C469.404 125.035 468.414 124.12 468.414 122.605ZM478.386 116.5V127H480.651V120.265L485.736 127H487.896V116.5H485.646V123.25L480.546 116.5H478.386ZM490.957 116.5V127H493.327V116.5H490.957ZM496.409 116.5V127H498.779V123.025H503.519V121.045H498.779V118.465H503.939L503.954 116.5H496.409ZM514.96 116.5H512.575L509.95 121.21L507.265 116.5H504.88L508.765 123.67V127H511.135V123.61L514.96 116.5ZM485.035 145H487.57L483.085 134.5H480.64L476.08 145H478.525L479.35 142.96H484.21L485.035 145ZM480.13 141.055L481.795 136.975L483.445 141.055H480.13ZM493.867 134.5H489.412V145H491.782V142H493.867C496.537 142 498.067 140.59 498.067 138.145C498.067 135.82 496.537 134.5 493.867 134.5ZM493.747 140.02H491.782V136.465H493.747C495.067 136.465 495.817 137.05 495.817 138.22C495.817 139.42 495.067 140.02 493.747 140.02ZM500.328 134.5V145H502.698V134.5H500.328Z" fill="#1E1E1E"/>
<rect x="293" width="170" height="60" rx="20" fill="white"/>
<rect x="294" y="1" width="168" height="58" rx="19" stroke="#1E1E1E" stroke-opacity="0.5" stroke-width="2"/>
<path d="M353.215 23.7543C353.215 22.7438 353.505 21.9447 354.086 21.3572C354.667 20.7698 355.457 20.476 356.457 20.476H367.961C368.124 20.7345 368.263 21.0752 368.38 21.4982C368.519 21.9213 368.589 22.3678 368.589 22.8378C368.589 23.7307 368.391 24.3653 367.996 24.7413C367.624 25.1173 367.125 25.3053 366.497 25.3053H359.141V28.5835H366.985C367.148 28.842 367.287 29.1828 367.404 29.6058C367.543 30.0053 367.613 30.44 367.613 30.91C367.613 31.803 367.427 32.4375 367.055 32.8135C366.683 33.1895 366.183 33.3775 365.556 33.3775H359.141V37.0788H368.101C368.263 37.3373 368.403 37.678 368.519 38.101C368.659 38.524 368.728 38.9705 368.728 39.4405C368.728 40.3335 368.531 40.9798 368.136 41.3793C367.764 41.7553 367.264 41.9433 366.637 41.9433H356.457C355.457 41.9433 354.667 41.6495 354.086 41.062C353.505 40.4745 353.215 39.6755 353.215 38.665V23.7543Z" fill="#1E1E1E"/>
<path d="M393.196 41.0973C392.871 41.4263 392.395 41.673 391.767 41.8375C391.163 42.0255 390.431 42.1195 389.571 42.1195C388.711 42.1195 387.897 41.9903 387.13 41.7318C386.363 41.4733 385.736 40.8505 385.248 39.8635L381.796 32.743C381.448 32.0145 381.134 31.333 380.855 30.6985C380.576 30.0405 380.274 29.2885 379.949 28.4425L379.74 28.4778C379.833 29.7468 379.879 31.0392 379.879 32.3552C379.902 33.6712 379.914 34.9637 379.914 36.2327V41.6965C379.658 41.767 379.263 41.8375 378.729 41.908C378.217 41.9785 377.706 42.0138 377.195 42.0138C376.683 42.0138 376.23 41.9785 375.835 41.908C375.44 41.8375 375.115 41.6965 374.859 41.485C374.603 41.2735 374.406 40.9915 374.266 40.639C374.127 40.263 374.057 39.7813 374.057 39.1938V21.5687C374.382 21.0987 374.882 20.7463 375.556 20.5113C376.23 20.2763 376.951 20.1587 377.718 20.1587C378.578 20.1587 379.391 20.2998 380.158 20.5817C380.948 20.8403 381.576 21.4513 382.041 22.4148L385.527 29.5352C385.875 30.2637 386.189 30.957 386.468 31.615C386.747 32.2495 387.049 32.9898 387.374 33.8358L387.549 33.8005C387.456 32.5315 387.398 31.2625 387.374 29.9935C387.351 28.7245 387.34 27.4555 387.34 26.1865V20.476C387.595 20.4055 387.979 20.335 388.49 20.2645C389.025 20.194 389.548 20.1587 390.059 20.1587C391.081 20.1587 391.86 20.3467 392.395 20.7227C392.929 21.0752 393.196 21.8272 393.196 22.9788V41.0973Z" fill="#1E1E1E"/>
<path d="M405.562 41.6965C405.307 41.767 404.9 41.8375 404.342 41.908C403.808 41.9785 403.273 42.0138 402.739 42.0138C402.204 42.0138 401.728 41.9668 401.309 41.8728C400.914 41.8023 400.577 41.6613 400.298 41.4498C400.019 41.2383 399.81 40.9445 399.671 40.5685C399.531 40.1925 399.462 39.699 399.462 39.088V20.476C399.717 20.429 400.124 20.3702 400.682 20.2998C401.24 20.2058 401.774 20.1587 402.285 20.1587C402.82 20.1587 403.285 20.2058 403.68 20.2998C404.098 20.3702 404.447 20.5112 404.726 20.7227C405.005 20.9342 405.214 21.228 405.353 21.604C405.493 21.98 405.562 22.4735 405.562 23.0845V41.6965Z" fill="#1E1E1E"/>
<path d="M422.599 24.7765C420.81 24.7765 419.438 25.3287 418.485 26.4332C417.533 27.5377 417.056 29.1005 417.056 31.1215C417.056 33.166 417.579 34.7405 418.625 35.845C419.694 36.9495 421.123 37.5017 422.913 37.5017C423.866 37.5017 424.668 37.3725 425.318 37.114C425.992 36.8555 426.632 36.5617 427.236 36.2327C427.631 36.5617 427.933 36.9613 428.142 37.4313C428.375 37.8778 428.491 38.4065 428.491 39.0175C428.491 39.981 427.956 40.8035 426.887 41.485C425.841 42.143 424.238 42.472 422.076 42.472C420.519 42.472 419.055 42.2487 417.684 41.8022C416.312 41.3557 415.115 40.6743 414.093 39.7578C413.07 38.8178 412.257 37.6427 411.652 36.2327C411.071 34.7992 410.781 33.0955 410.781 31.1215C410.781 29.2885 411.06 27.6788 411.618 26.2923C412.199 24.8823 412.977 23.6955 413.953 22.732C414.953 21.7685 416.115 21.04 417.44 20.5465C418.764 20.053 420.182 19.8063 421.693 19.8063C423.831 19.8063 425.481 20.1588 426.643 20.8637C427.829 21.5688 428.421 22.4735 428.421 23.578C428.421 24.189 428.27 24.7177 427.968 25.1642C427.666 25.6107 427.317 25.9633 426.922 26.2218C426.318 25.8223 425.667 25.4815 424.97 25.1995C424.296 24.9175 423.506 24.7765 422.599 24.7765Z" fill="#1E1E1E"/>
<path d="M433.486 23.7543C433.486 22.7438 433.777 21.9447 434.358 21.3572C434.939 20.7698 435.729 20.476 436.728 20.476H448.233C448.396 20.7345 448.535 21.0752 448.651 21.4982C448.791 21.9213 448.861 22.3678 448.861 22.8378C448.861 23.7307 448.663 24.3653 448.268 24.7413C447.896 25.1173 447.396 25.3053 446.769 25.3053H439.413V28.5835H447.257C447.42 28.842 447.559 29.1828 447.675 29.6058C447.815 30.0053 447.884 30.44 447.884 30.91C447.884 31.803 447.698 32.4375 447.327 32.8135C446.955 33.1895 446.455 33.3775 445.828 33.3775H439.413V37.0788H448.372C448.535 37.3373 448.675 37.678 448.791 38.101C448.93 38.524 449 38.9705 449 39.4405C449 40.3335 448.802 40.9798 448.407 41.3793C448.035 41.7553 447.536 41.9433 446.908 41.9433H436.728C435.729 41.9433 434.939 41.6495 434.358 41.062C433.777 40.4745 433.486 39.6755 433.486 38.665V23.7543Z" fill="#1E1E1E"/>
<path fill-rule="evenodd" clip-rule="evenodd" d="M324.241 53C337.077 53 347.483 42.4787 347.483 29.5C347.483 16.5213 337.077 6 324.241 6C311.406 6 301 16.5213 301 29.5C301 42.4787 311.406 53 324.241 53ZM334.72 24.7157L340.821 20.6453L334.72 16.575V18.8094L331.296 18.7132C328.757 18.6419 326.549 20.4627 326.107 22.9924C325.597 25.1356 325.063 27.2868 324.505 29.4461C323.855 32.0546 323.215 34.4633 322.588 36.6723H322.379C321.681 34.3928 321.007 32.2073 320.357 30.1158C319.729 28.0008 319.102 25.7918 318.474 23.4888C318.218 22.5018 317.812 21.8321 317.254 21.4796C316.719 21.1036 316.022 20.9156 315.162 20.9156C314.465 20.9156 313.512 21.2328 313.512 21.2328C313.493 21.2409 313.398 21.2731 313.299 21.3065C313.19 21.343 313.078 21.3808 313.058 21.3898L306.315 24.6047C305.781 24.8593 305.52 25.4786 305.71 26.0442L306.218 27.5623C306.402 28.112 306.955 28.4435 307.521 28.3427L313.231 27.3246C313.416 27.9202 313.606 28.5216 313.803 29.1288C314.198 30.3508 314.604 31.5611 315.023 32.7596C315.464 33.9346 315.883 35.0508 316.278 36.1083C316.696 37.1658 317.091 38.1293 317.463 38.9988C317.835 39.8448 318.149 40.5381 318.404 41.0786C318.66 41.5956 319.136 42.0068 319.834 42.3123C320.531 42.5943 321.368 42.7353 322.344 42.7353C323.157 42.7353 323.901 42.6296 324.575 42.4181C325.272 42.2066 325.784 41.9598 326.109 41.6778C326.365 41.3253 326.702 40.7026 327.12 39.8096C327.538 38.8931 327.98 37.8473 328.445 36.6723C328.933 35.4738 329.409 34.2048 329.874 32.8653C330.362 31.5258 330.792 30.2451 331.164 29.0231C331.559 27.7776 331.873 26.6613 332.105 25.6743C332.253 25.1049 332.327 24.4965 332.381 24.0519C332.42 23.7258 332.449 23.4879 332.489 23.4183C332.489 23.4183 332.686 22.9953 332.977 22.9953L334.72 22.6552V24.7157Z" fill="#1E1E1E"/>
<path d="M287.621 232.5V243H289.991V239.025H294.731V237.045H289.991V234.465H295.151L295.166 232.5H287.621ZM297.292 232.5V243H299.662V232.5H297.292ZM302.744 232.5V243H305.009V236.265L310.094 243H312.254V232.5H310.004V239.25L304.904 232.5H302.744ZM323.071 243H325.606L321.121 232.5H318.676L314.116 243H316.561L317.386 240.96H322.246L323.071 243ZM318.166 239.055L319.831 234.975L321.481 239.055H318.166ZM327.447 232.5V243H329.712V236.265L334.797 243H336.957V232.5H334.707V239.25L329.607 232.5H327.447ZM347.624 235.845L349.004 234.165C347.969 233.1 346.379 232.425 344.864 232.425C341.684 232.425 339.269 234.705 339.269 237.735C339.269 240.78 341.639 243.105 344.774 243.105C346.304 243.105 347.909 242.37 349.019 241.23L347.624 239.715C346.874 240.465 345.839 240.945 344.894 240.945C343.094 240.945 341.699 239.535 341.699 237.705C341.699 235.875 343.094 234.48 344.894 234.48C345.869 234.48 346.904 235.02 347.624 235.845ZM351.184 232.5V243H353.554V232.5H351.184ZM364.391 243H366.926L362.441 232.5H359.996L355.436 243H357.881L358.706 240.96H363.566L364.391 243ZM359.486 239.055L361.151 234.975L362.801 239.055H359.486ZM368.768 232.5V243H375.638V240.93H371.138V232.5H368.768ZM387.496 232.5H383.041V243H387.406C390.721 243 393.016 240.84 393.016 237.75C393.016 234.645 390.751 232.5 387.496 232.5ZM387.556 241.005H385.411V234.495H387.451C389.251 234.495 390.601 235.83 390.601 237.765C390.601 239.685 389.311 241.005 387.556 241.005ZM402.796 243H405.331L400.846 232.5H398.401L393.841 243H396.286L397.111 240.96H401.971L402.796 243ZM397.891 239.055L399.556 234.975L401.206 239.055H397.891ZM405.039 232.5V234.51H408.234V243H410.604V234.51H413.814V232.5H405.039ZM422.49 243H425.025L420.54 232.5H418.095L413.535 243H415.98L416.805 240.96H421.665L422.49 243ZM417.585 239.055L419.25 234.975L420.9 239.055H417.585ZM431.696 232.5H426.866V243H431.861C434.291 243 435.821 241.89 435.821 240.09C435.821 238.71 434.996 237.69 433.631 237.435C434.756 237.135 435.446 236.25 435.446 235.125C435.446 233.505 434.006 232.5 431.696 232.5ZM431.576 236.73H429.236V234.435H431.576C432.476 234.42 433.016 234.84 433.016 235.56C433.016 236.295 432.476 236.73 431.576 236.73ZM431.576 241.065H429.236V238.575H431.576C432.686 238.56 433.376 239.025 433.376 239.79C433.376 240.6 432.686 241.065 431.576 241.065ZM446.05 243H448.585L444.1 232.5H441.655L437.095 243H439.54L440.365 240.96H445.225L446.05 243ZM441.145 239.055L442.81 234.975L444.46 239.055H441.145ZM457.283 235.5L458.198 233.535C457.148 232.845 455.678 232.395 454.208 232.395C451.778 232.395 450.143 233.595 450.143 235.5C450.143 239.22 455.738 238.065 455.738 240.045C455.738 240.69 455.153 241.05 454.178 241.05C453.068 241.05 451.538 240.435 450.458 239.475L449.513 241.41C450.698 242.415 452.423 243.075 454.148 243.075C456.473 243.075 458.258 241.965 458.258 239.91C458.273 236.13 452.678 237.21 452.678 235.275C452.678 234.705 453.218 234.42 454.013 234.42C454.853 234.42 456.173 234.84 457.283 235.5ZM460.669 232.5V243H468.829V241.035H463.039V238.71H468.094V236.745H463.039V234.465H468.664V232.5H460.669Z" fill="#12B886"/>
<path d="M36.2371 32L34.4491 29.228C35.4691 28.748 36.0211 27.812 36.0211 26.516C36.0211 24.656 34.7731 23.6 32.5771 23.6H28.9291V32H30.8251V29.6H32.5771H32.7571L34.0891 32H36.2371ZM30.8251 25.172H32.5771C33.6211 25.172 34.2211 25.64 34.2211 26.576C34.2211 27.536 33.6211 28.016 32.5771 28.016H30.8251V25.172ZM44.4167 32H46.4447L42.8567 23.6H40.9007L37.2527 32H39.2087L39.8687 30.368H43.7567L44.4167 32ZM40.4927 28.844L41.8247 25.58L43.1447 28.844H40.4927ZM46.3613 23.6L49.1333 32H51.0893L52.8173 26.012L54.5093 32H56.4653L59.2493 23.6H57.3053L55.5533 29.936L53.7773 23.6H51.9173L50.1653 29.936L48.4013 23.6H46.3613ZM61.1742 30.212C60.6462 30.212 60.2502 30.596 60.2502 31.148C60.2502 31.448 60.3702 31.712 60.6222 31.892L60.1182 33.104H61.0182L61.8222 31.892C61.9782 31.676 62.0742 31.436 62.0742 31.148C62.0742 30.548 61.6542 30.212 61.1742 30.212ZM71.8329 23.6H68.2689V32H71.7609C74.4129 32 76.2489 30.272 76.2489 27.8C76.2489 25.316 74.4369 23.6 71.8329 23.6ZM71.8809 30.404H70.1649V25.196H71.7969C73.2369 25.196 74.3169 26.264 74.3169 27.812C74.3169 29.348 73.2849 30.404 71.8809 30.404ZM78.0916 23.6V32H79.9876V23.6H78.0916ZM87.9853 26L88.7173 24.428C87.8773 23.876 86.7013 23.516 85.5253 23.516C83.5813 23.516 82.2733 24.476 82.2733 26C82.2733 28.976 86.7493 28.052 86.7493 29.636C86.7493 30.152 86.2813 30.44 85.5013 30.44C84.6133 30.44 83.3893 29.948 82.5253 29.18L81.7693 30.728C82.7173 31.532 84.0973 32.06 85.4773 32.06C87.3373 32.06 88.7653 31.172 88.7653 29.528C88.7773 26.504 84.3013 27.368 84.3013 25.82C84.3013 25.364 84.7333 25.136 85.3693 25.136C86.0413 25.136 87.0973 25.472 87.9853 26ZM95.2899 29.312V23.6H90.4899V25.208H93.3819V29.264C93.3819 29.984 92.9979 30.368 92.3739 30.368C91.8579 30.368 91.1859 30.056 90.5979 29.432L89.7219 30.776C90.4299 31.604 91.3419 32.084 92.4699 32.084C94.2099 32.084 95.2899 31.076 95.2899 29.312ZM101.499 23.54C98.9309 23.54 96.9869 25.352 96.9869 27.8C96.9869 30.236 98.9309 32.084 101.499 32.084C104.067 32.084 106.011 30.224 106.011 27.8C106.011 25.364 104.067 23.54 101.499 23.54ZM101.523 25.196C102.927 25.196 104.067 26.324 104.067 27.8C104.067 29.276 102.927 30.428 101.523 30.428C100.119 30.428 98.9309 29.276 98.9309 27.8C98.9309 26.324 100.107 25.196 101.523 25.196ZM107.855 23.6V32H109.751V23.6H107.855ZM112.217 23.6V32H114.029V26.612L118.097 32H119.825V23.6H118.025V29L113.945 23.6H112.217ZM121.446 23.6V25.208H124.002V32H125.898V25.208H128.466V23.6H121.446ZM130.081 23.6V32H136.609V30.428H131.977V28.568H136.021V26.996H131.977V25.172H136.477V23.6H130.081ZM142.26 23.6H138.696V32H142.188C144.84 32 146.676 30.272 146.676 27.8C146.676 25.316 144.864 23.6 142.26 23.6ZM142.308 30.404H140.592V25.196H142.224C143.664 25.196 144.744 26.264 144.744 27.812C144.744 29.348 143.712 30.404 142.308 30.404ZM74.7579 38.6H71.1939V47H74.6859C77.3379 47 79.1739 45.272 79.1739 42.8C79.1739 40.316 77.3619 38.6 74.7579 38.6ZM74.8059 45.404H73.0899V40.196H74.7219C76.1619 40.196 77.2419 41.264 77.2419 42.812C77.2419 44.348 76.2099 45.404 74.8059 45.404ZM86.9979 47H89.0259L85.4379 38.6H83.4819L79.8339 47H81.7899L82.4499 45.368H86.3379L86.9979 47ZM83.0739 43.844L84.4059 40.58L85.7259 43.844H83.0739ZM88.7925 38.6V40.208H91.3485V47H93.2445V40.208H95.8125V38.6H88.7925ZM102.753 47H104.781L101.193 38.6H99.2366L95.5886 47H97.5446L98.2046 45.368H102.093L102.753 47ZM98.8286 43.844L100.161 40.58L101.481 43.844H98.8286Z" fill="#E2657B"/>
<rect y="53" width="175" height="175" rx="40" fill="#E2657B"/>
<rect x="1" y="54" width="173" height="173" rx="39" stroke="black" stroke-opacity="0.25" stroke-width="2"/>
<circle cx="28" cy="84" r="15" fill="#1E1E1E" fill-opacity="0.1"/>
<circle cx="28" cy="84" r="14.5" stroke="#1E1E1E" stroke-opacity="0.5" stroke-dasharray="5 5"/>
<circle cx="57" cy="76" r="10" fill="#1E1E1E" fill-opacity="0.1"/>
<circle cx="57" cy="76" r="9.5" stroke="#1E1E1E" stroke-opacity="0.5" stroke-dasharray="5 5"/>
<circle cx="18" cy="112" r="10" fill="#1E1E1E" fill-opacity="0.1"/>
<circle cx="18" cy="112" r="9.5" stroke="#1E1E1E" stroke-opacity="0.5" stroke-dasharray="5 5"/>
<circle cx="38" cy="145" r="22" fill="#1E1E1E" fill-opacity="0.1"/>
<circle cx="38" cy="145" r="21.5" stroke="#1E1E1E" stroke-opacity="0.5" stroke-dasharray="5 5"/>
<circle cx="97.5" cy="148.5" r="32.5" fill="#1E1E1E" fill-opacity="0.1"/>
<circle cx="97.5" cy="148.5" r="32" stroke="#1E1E1E" stroke-opacity="0.5" stroke-dasharray="5 5"/>
<path opacity="0.8" d="M82.9114 143.6H79.0474V152H83.0434C84.9874 152 86.2114 151.112 86.2114 149.672C86.2114 148.568 85.5514 147.752 84.4594 147.548C85.3594 147.308 85.9114 146.6 85.9114 145.7C85.9114 144.404 84.7594 143.6 82.9114 143.6ZM82.8154 146.984H80.9434V145.148H82.8154C83.5354 145.136 83.9674 145.472 83.9674 146.048C83.9674 146.636 83.5354 146.984 82.8154 146.984ZM82.8154 150.452H80.9434V148.46H82.8154C83.7034 148.448 84.2554 148.82 84.2554 149.432C84.2554 150.08 83.7034 150.452 82.8154 150.452ZM94.3944 152H96.4224L92.8344 143.6H90.8784L87.2304 152H89.1864L89.8464 150.368H93.7344L94.3944 152ZM90.4704 148.844L91.8024 145.58L93.1224 148.844H90.4704ZM97.8959 143.6V152H99.7079V146.612L103.776 152H105.504V143.6H103.704V149L99.6239 143.6H97.8959ZM115.753 152L112.381 147.104L115.537 143.6H113.341L109.849 147.416V143.6H107.953V152H109.849V149.924L111.061 148.58L113.473 152H115.753Z" fill="#1E1E1E"/>
<path opacity="0.8" d="M32.5334 148.784C32.0054 149.192 31.4654 149.444 31.0574 149.444C30.6494 149.444 30.2534 149.204 29.9174 148.808C31.6214 148.196 32.7734 146.672 32.7734 144.8C32.7734 142.364 30.8294 140.54 28.2614 140.54C25.6934 140.54 23.7494 142.352 23.7494 144.8C23.7494 147.2 25.6334 149.024 28.1414 149.084C28.7294 150.236 29.7014 150.944 30.8414 150.944C31.6574 150.944 32.5694 150.596 33.2174 150.02L32.5334 148.784ZM25.6934 144.8C25.6934 143.324 26.8694 142.196 28.2854 142.196C29.6894 142.196 30.8294 143.324 30.8294 144.8C30.8294 146.276 29.6894 147.428 28.2854 147.428C26.8814 147.428 25.6934 146.276 25.6934 144.8ZM38.5517 140.6H34.6877V149H38.6837C40.6277 149 41.8517 148.112 41.8517 146.672C41.8517 145.568 41.1917 144.752 40.0997 144.548C40.9997 144.308 41.5517 143.6 41.5517 142.7C41.5517 141.404 40.3997 140.6 38.5517 140.6ZM38.4557 143.984H36.5837V142.148H38.4557C39.1757 142.136 39.6077 142.472 39.6077 143.048C39.6077 143.636 39.1757 143.984 38.4557 143.984ZM38.4557 147.452H36.5837V145.46H38.4557C39.3437 145.448 39.8957 145.82 39.8957 146.432C39.8957 147.08 39.3437 147.452 38.4557 147.452ZM47.7426 140.54C45.1746 140.54 43.2306 142.352 43.2306 144.8C43.2306 147.236 45.1746 149.084 47.7426 149.084C50.3106 149.084 52.2546 147.224 52.2546 144.8C52.2546 142.364 50.3106 140.54 47.7426 140.54ZM47.7666 142.196C49.1706 142.196 50.3106 143.324 50.3106 144.8C50.3106 146.276 49.1706 147.428 47.7666 147.428C46.3626 147.428 45.1746 146.276 45.1746 144.8C45.1746 143.324 46.3506 142.196 47.7666 142.196Z" fill="#1E1E1E"/>
<circle cx="57" cy="104" r="16" fill="#1E1E1E" fill-opacity="0.1"/>
<circle cx="57" cy="104" r="15.5" stroke="#1E1E1E" stroke-opacity="0.5" stroke-dasharray="5 5"/>
<circle cx="51.5" cy="203.5" r="15.5" fill="#1E1E1E" fill-opacity="0.1"/>
<circle cx="51.5" cy="203.5" r="15" stroke="#1E1E1E" stroke-opacity="0.5" stroke-dasharray="5 5"/>
<circle cx="25" cy="183" r="11" fill="#1E1E1E" fill-opacity="0.1"/>
<circle cx="25" cy="183" r="10.5" stroke="#1E1E1E" stroke-opacity="0.5" stroke-dasharray="5 5"/>
<circle cx="82" cy="194" r="9" fill="#1E1E1E" fill-opacity="0.1"/>
<circle cx="82" cy="194" r="8.5" stroke="#1E1E1E" stroke-opacity="0.5" stroke-dasharray="5 5"/>
<circle cx="149" cy="166" r="8" fill="#1E1E1E" fill-opacity="0.1"/>
<circle cx="149" cy="166" r="7.5" stroke="#1E1E1E" stroke-opacity="0.5" stroke-dasharray="5 5"/>
<circle cx="141.5" cy="197.5" r="18.5" fill="#1E1E1E" fill-opacity="0.1"/>
<circle cx="141.5" cy="197.5" r="18" stroke="#1E1E1E" stroke-opacity="0.5" stroke-dasharray="5 5"/>
<circle cx="145" cy="106" r="18" fill="#1E1E1E" fill-opacity="0.1"/>
<circle cx="145" cy="106" r="17.5" stroke="#1E1E1E" stroke-opacity="0.5" stroke-dasharray="5 5"/>
<circle cx="97" cy="86" r="26" fill="#1E1E1E" fill-opacity="0.1"/>
<circle cx="97" cy="86" r="25.5" stroke="#1E1E1E" stroke-opacity="0.5" stroke-dasharray="5 5"/>
<path opacity="0.8" d="M83.5294 84L84.1394 82.69C83.4394 82.23 82.4594 81.93 81.4794 81.93C79.8594 81.93 78.7694 82.73 78.7694 84C78.7694 86.48 82.4994 85.71 82.4994 87.03C82.4994 87.46 82.1094 87.7 81.4594 87.7C80.7194 87.7 79.6994 87.29 78.9794 86.65L78.3494 87.94C79.1394 88.61 80.2894 89.05 81.4394 89.05C82.9894 89.05 84.1794 88.31 84.1794 86.94C84.1894 84.42 80.4594 85.14 80.4594 83.85C80.4594 83.47 80.8194 83.28 81.3494 83.28C81.9094 83.28 82.7894 83.56 83.5294 84ZM85.0966 82V83.34H87.2266V89H88.8066V83.34H90.9466V82H85.0966ZM98.3825 89L96.8925 86.69C97.7425 86.29 98.2025 85.51 98.2025 84.43C98.2025 82.88 97.1625 82 95.3325 82H92.2925V89H93.8725V87H95.3325H95.4825L96.5925 89H98.3825ZM93.8725 83.31H95.3325C96.2025 83.31 96.7025 83.7 96.7025 84.48C96.7025 85.28 96.2025 85.68 95.3325 85.68H93.8725V83.31ZM100.029 82V89H101.609V82H100.029ZM106.634 82H103.664V89H105.244V87H106.634C108.414 87 109.434 86.06 109.434 84.43C109.434 82.88 108.414 82 106.634 82ZM106.554 85.68H105.244V83.31H106.554C107.434 83.31 107.934 83.7 107.934 84.48C107.934 85.28 107.434 85.68 106.554 85.68ZM110.941 82V89H116.381V87.69H112.521V86.14H115.891V84.83H112.521V83.31H116.271V82H110.941Z" fill="#1E1E1E"/>
<g clip-path="url(#clip0_198_3920)">
<path d="M699.5 62V57.5H706.25V62H699.5Z" fill="#12B886"/>
<path d="M706.909 35H695C693.807 35 692.662 35.4741 691.818 36.318C690.974 37.1619 690.5 38.3065 690.5 39.5V66.5C690.5 67.6935 690.974 68.8381 691.818 69.682C692.662 70.5259 693.807 71 695 71H713C714.193 71 715.338 70.5259 716.182 69.682C717.026 68.8381 717.5 67.6935 717.5 66.5V45.5907C717.5 44.9941 717.263 44.4219 716.841 44L708.5 35.6593C708.078 35.2373 707.506 35.0001 706.909 35V35ZM707.375 42.875V38.375L714.125 45.125H709.625C709.028 45.125 708.456 44.8879 708.034 44.466C707.612 44.044 707.375 43.4717 707.375 42.875ZM692.75 55.25H715.25V57.5H708.5V62H715.25V64.25H708.5V68.75H706.25V64.25H699.5V68.75H697.25V64.25H692.75V62H697.25V57.5H692.75V55.25Z" fill="#12B886"/>
</g>
<g clip-path="url(#clip1_198_3920)">
<path d="M716.976 96.8125H704.336L695.399 105.75C697.223 107.36 699.463 108.425 701.863 108.825C704.263 109.225 706.727 108.943 708.975 108.012C711.222 107.081 713.164 105.537 714.578 103.558C715.992 101.578 716.822 99.2408 716.974 96.8125H716.976ZM694.25 104.599C692.64 102.775 691.575 100.535 691.175 98.1355C690.775 95.7356 691.057 93.2716 691.988 91.0238C692.919 88.776 694.463 86.8346 696.442 85.4205C698.422 84.0063 700.759 83.1761 703.188 83.0244V95.6636L694.25 104.601V104.599ZM704.813 83.0244V95.1875H716.976C716.778 92.0265 715.433 89.0465 713.193 86.807C710.953 84.5675 707.973 83.2224 704.813 83.0244V83.0244Z" fill="#12B886"/>
</g>
<g clip-path="url(#clip2_198_3920)">
<path d="M725.87 157.014C725.812 156.949 723.745 157.039 721.946 158.991C720.147 160.942 720.424 163.18 720.465 163.237C720.505 163.294 723.03 163.384 724.641 161.114C726.253 158.844 725.927 157.079 725.87 157.014V157.014ZM731.462 176.813C731.381 176.651 727.539 174.731 727.896 171.038C728.254 167.344 730.723 166.332 730.762 166.222C730.8 166.113 729.754 164.889 728.646 164.27C727.832 163.833 726.931 163.583 726.008 163.537C725.826 163.532 725.193 163.377 723.892 163.733C723.035 163.968 721.102 164.727 720.571 164.757C720.038 164.788 718.451 163.877 716.745 163.635C715.653 163.424 714.496 163.856 713.667 164.189C712.84 164.52 711.268 165.461 710.167 167.964C709.067 170.465 709.643 174.427 710.054 175.659C710.466 176.889 711.109 178.905 712.203 180.377C713.175 182.037 714.464 183.19 715.002 183.581C715.54 183.973 717.059 184.233 718.112 183.695C718.959 183.175 720.488 182.876 721.092 182.898C721.695 182.92 722.883 183.158 724.099 183.808C725.063 184.14 725.974 184.002 726.887 183.63C727.8 183.257 729.121 181.843 730.664 178.976C731.249 177.643 731.516 176.923 731.462 176.813V176.813Z" fill="#12B886"/>
<path d="M725.87 157.014C725.812 156.949 723.745 157.039 721.946 158.991C720.147 160.942 720.424 163.18 720.465 163.237C720.505 163.294 723.03 163.384 724.641 161.114C726.253 158.844 725.927 157.079 725.87 157.014V157.014ZM731.462 176.813C731.381 176.651 727.539 174.731 727.896 171.038C728.254 167.344 730.723 166.332 730.762 166.222C730.8 166.113 729.754 164.889 728.646 164.27C727.832 163.833 726.931 163.583 726.008 163.537C725.826 163.532 725.193 163.377 723.892 163.733C723.035 163.968 721.102 164.727 720.571 164.757C720.038 164.788 718.451 163.877 716.745 163.635C715.653 163.424 714.496 163.856 713.667 164.189C712.84 164.52 711.268 165.461 710.167 167.964C709.067 170.465 709.643 174.427 710.054 175.659C710.466 176.889 711.109 178.905 712.203 180.377C713.175 182.037 714.464 183.19 715.002 183.581C715.54 183.973 717.059 184.233 718.112 183.695C718.959 183.175 720.488 182.876 721.092 182.898C721.695 182.92 722.883 183.158 724.099 183.808C725.063 184.14 725.974 184.002 726.887 183.63C727.8 183.257 729.121 181.843 730.664 178.976C731.249 177.643 731.516 176.923 731.462 176.813V176.813Z" fill="#12B886"/>
</g>
<path fill-rule="evenodd" clip-rule="evenodd" d="M670 193.348C670.017 193.84 670.134 194.323 670.342 194.766C670.55 195.209 670.846 195.602 671.21 195.919C671.602 196.257 672.079 196.519 672.652 196.706C673.225 196.894 673.892 196.991 674.658 196.991C675.678 196.991 676.541 196.825 677.247 196.497C677.962 196.166 678.502 195.71 678.876 195.122C679.256 194.512 679.453 193.799 679.44 193.073C679.44 192.373 679.304 191.792 679.033 191.323C678.757 190.855 678.366 190.47 677.901 190.208C677.368 189.902 676.793 189.681 676.197 189.551L674.323 189.101C673.881 189.018 673.462 188.83 673.101 188.552C672.964 188.441 672.854 188.3 672.779 188.137C672.704 187.975 672.667 187.797 672.67 187.617C672.67 187.13 672.854 186.73 673.225 186.418C673.602 186.102 674.118 185.943 674.773 185.943C675.204 185.943 675.575 186.011 675.889 186.155C676.177 186.277 676.431 186.472 676.628 186.721C676.814 186.953 676.938 187.23 676.99 187.527H679.253C679.216 186.891 679.008 186.278 678.652 185.758C678.271 185.197 677.75 184.755 677.144 184.477C676.403 184.141 675.599 183.978 674.791 184.002C673.907 184.002 673.126 184.159 672.45 184.471C671.771 184.78 671.243 185.221 670.857 185.786C670.474 186.355 670.284 187.021 670.284 187.783C670.284 188.411 670.404 188.958 670.655 189.42C670.902 189.886 671.255 190.264 671.714 190.567C672.175 190.864 672.715 191.089 673.343 191.232L675.207 191.682C675.832 191.835 676.293 192.035 676.601 192.285C676.751 192.403 676.872 192.557 676.952 192.734C677.033 192.911 677.071 193.105 677.063 193.301C677.063 193.644 676.975 193.948 676.806 194.207C676.612 194.483 676.343 194.694 676.034 194.813C675.699 194.96 675.283 195.032 674.788 195.032C674.435 195.032 674.112 194.991 673.822 194.907C673.556 194.83 673.303 194.709 673.074 194.547C672.873 194.413 672.702 194.237 672.569 194.03C672.437 193.824 672.347 193.592 672.305 193.348H670ZM690.75 198L689.221 195.691C689.752 195.185 690.156 194.56 690.43 193.816C690.708 193.07 690.847 192.232 690.847 191.298V189.733C690.847 188.573 690.636 187.567 690.219 186.711C689.829 185.882 689.211 185.19 688.442 184.724C687.67 184.255 686.75 184.021 685.676 184.021C684.617 184.021 683.697 184.255 682.918 184.724C682.146 185.19 681.552 185.849 681.132 186.711C680.701 187.654 680.489 188.689 680.514 189.733V191.295C680.514 192.451 680.722 193.454 681.132 194.31C681.552 195.163 682.146 195.825 682.918 196.297C683.762 196.777 684.714 197.017 685.676 196.991C686.292 196.994 686.904 196.888 687.486 196.678L688.373 197.997H690.75V198ZM682.858 191.345V189.714C682.858 188.945 682.973 188.289 683.202 187.745C683.407 187.242 683.747 186.81 684.182 186.502C684.628 186.208 685.148 186.058 685.676 186.071C686.255 186.071 686.753 186.214 687.169 186.502C687.608 186.806 687.95 187.239 688.15 187.745C688.382 188.289 688.497 188.945 688.497 189.714V191.345C688.497 191.857 688.442 192.32 688.337 192.735C688.231 193.141 688.074 193.498 687.869 193.798L687.549 193.36L687.233 192.901H685.021L686.382 194.932C686.141 195.033 685.884 195.083 685.624 195.079C685.102 195.08 684.59 194.92 684.155 194.619C683.723 194.303 683.388 193.865 683.19 193.357C682.952 192.715 682.84 192.032 682.858 191.345ZM694.883 194.647H700V196.753H692.497V184.259H694.88V194.647H694.883Z" fill="#12B886"/>
<g clip-path="url(#clip3_198_3920)">
<path d="M692.5 139H675.5C674.373 139 673.292 139.448 672.495 140.245C671.698 141.042 671.25 142.123 671.25 143.25V168.75C671.25 169.877 671.698 170.958 672.495 171.755C673.292 172.552 674.373 173 675.5 173H692.5C693.627 173 694.708 172.552 695.505 171.755C696.302 170.958 696.75 169.877 696.75 168.75V143.25C696.75 142.123 696.302 141.042 695.505 140.245C694.708 139.448 693.627 139 692.5 139V139ZM681.123 150.998C681.222 150.899 681.339 150.821 681.468 150.767C681.597 150.714 681.735 150.686 681.875 150.686C682.015 150.686 682.153 150.714 682.282 150.767C682.411 150.821 682.528 150.899 682.627 150.998C682.726 151.097 682.804 151.214 682.858 151.343C682.911 151.472 682.939 151.61 682.939 151.75C682.939 151.89 682.911 152.028 682.858 152.157C682.804 152.286 682.726 152.403 682.627 152.502L679.127 156L682.627 159.498C682.827 159.697 682.939 159.968 682.939 160.25C682.939 160.532 682.827 160.803 682.627 161.002C682.428 161.202 682.157 161.314 681.875 161.314C681.593 161.314 681.322 161.202 681.123 161.002L676.873 156.752C676.774 156.654 676.695 156.536 676.642 156.407C676.588 156.278 676.561 156.14 676.561 156C676.561 155.86 676.588 155.722 676.642 155.593C676.695 155.464 676.774 155.346 676.873 155.248L681.123 150.998V150.998ZM686.877 150.998L691.127 155.248C691.226 155.346 691.305 155.464 691.358 155.593C691.412 155.722 691.439 155.86 691.439 156C691.439 156.14 691.412 156.278 691.358 156.407C691.305 156.536 691.226 156.654 691.127 156.752L686.877 161.002C686.778 161.101 686.661 161.179 686.532 161.233C686.403 161.286 686.265 161.314 686.125 161.314C685.985 161.314 685.847 161.286 685.718 161.233C685.589 161.179 685.472 161.101 685.373 161.002C685.274 160.903 685.196 160.786 685.142 160.657C685.089 160.528 685.061 160.39 685.061 160.25C685.061 160.11 685.089 159.972 685.142 159.843C685.196 159.714 685.274 159.597 685.373 159.498L688.873 156L685.373 152.502C685.173 152.303 685.061 152.032 685.061 151.75C685.061 151.468 685.173 151.197 685.373 150.998C685.572 150.798 685.843 150.686 686.125 150.686C686.407 150.686 686.678 150.798 686.877 150.998V150.998Z" fill="#12B886"/>
</g>
<path d="M741.932 65.8631C736.351 65.8631 731.487 69.0581 730.082 73.5975H729.051C728.778 73.5978 728.508 73.6579 728.26 73.7735C728.012 73.8891 727.793 74.0575 727.617 74.2669C727.442 74.4762 727.314 74.7215 727.243 74.9854C727.172 75.2494 727.159 75.5257 727.206 75.795L727.682 78.5325C727.796 79.1851 728.136 79.7767 728.643 80.2031C729.15 80.6295 729.791 80.8632 730.454 80.8631H730.947C731.509 81.825 732.237 82.6969 733.094 83.4544L731.727 88.0987C731.686 88.2386 731.678 88.3861 731.704 88.5295C731.73 88.673 731.789 88.8084 731.876 88.9251C731.963 89.0417 732.077 89.1364 732.207 89.2016C732.337 89.2668 732.481 89.3007 732.627 89.3006H736.377C736.57 89.3007 736.759 89.2408 736.917 89.1294C737.075 89.0179 737.195 88.8603 737.26 88.6781L738.164 86.145C739.354 86.4694 740.62 86.6456 741.934 86.6456C743.26 86.6456 744.537 86.4675 745.737 86.1356L746.755 88.7081C746.824 88.8829 746.944 89.0329 747.1 89.1385C747.255 89.2442 747.439 89.3007 747.627 89.3006H751.377C751.523 89.3005 751.667 89.2661 751.798 89.2002C751.929 89.1344 752.042 89.0388 752.129 88.9213C752.216 88.8038 752.275 88.6675 752.3 88.5234C752.325 88.3792 752.316 88.2312 752.273 88.0912L750.846 83.3925C752.894 81.5531 754.187 79.0481 754.187 76.2544C754.187 75.9825 754.174 75.7106 754.15 75.4462C754.639 75.24 755.102 74.9475 755.472 74.6137C756.062 75.1875 757 75.1875 757 73.8319C757 74.25 756.062 74.25 756.136 73.7831C756.214 73.6326 756.271 73.4716 756.304 73.305C756.348 73.0878 756.337 72.863 756.271 72.6516C756.204 72.4401 756.086 72.2488 755.926 72.0956C755.757 71.9216 755.535 71.809 755.294 71.7757C755.054 71.7424 754.81 71.7903 754.6 71.9119C754.407 72.0185 754.243 72.1698 754.12 72.3532C753.998 72.5365 753.921 72.7466 753.897 72.9656C753.852 73.4213 754.051 73.8656 754.497 74.1919C754.342 74.2989 754.18 74.3948 754.011 74.4788C753.01 69.4838 747.854 65.8631 741.932 65.8631V65.8631ZM755.382 73.1306C755.348 73.2732 755.286 73.4072 755.198 73.5244C755.17 73.5097 755.143 73.4941 755.116 73.4775C754.842 73.3087 754.821 73.1494 754.831 73.0594C754.84 72.9921 754.864 72.9278 754.902 72.8716C754.94 72.8153 754.991 72.7686 755.05 72.735C755.142 72.6844 755.2 72.6956 755.262 72.7575C755.314 72.8028 755.353 72.8616 755.374 72.9273C755.395 72.9931 755.398 73.0634 755.382 73.1306V73.1306ZM738.509 71.9119C738.389 71.9526 738.261 71.9686 738.135 71.9588C738.009 71.949 737.885 71.9136 737.773 71.8548C737.661 71.7961 737.561 71.7151 737.481 71.6168C737.401 71.5185 737.342 71.405 737.306 71.2831C737.271 71.1612 737.261 71.0335 737.277 70.9076C737.293 70.7818 737.334 70.6604 737.398 70.5509C737.462 70.4414 737.548 70.3461 737.65 70.2706C737.752 70.1951 737.868 70.1411 737.991 70.1119C739.273 69.7456 740.6 69.5607 741.932 69.5625C743.363 69.5625 744.739 69.7688 746.02 70.1531C746.138 70.1885 746.248 70.2467 746.343 70.3245C746.439 70.4022 746.518 70.4981 746.576 70.6064C746.635 70.7148 746.671 70.8336 746.684 70.9561C746.696 71.0786 746.684 71.2024 746.649 71.3203C746.614 71.4383 746.555 71.5481 746.478 71.6435C746.4 71.739 746.304 71.8182 746.196 71.8766C746.087 71.935 745.969 71.9715 745.846 71.984C745.724 71.9965 745.6 71.9847 745.482 71.9494C744.33 71.6074 743.134 71.4349 741.932 71.4375C740.732 71.4375 739.579 71.6063 738.509 71.9138V71.9119ZM736.375 74.7187C736.375 75.0917 736.227 75.4494 735.963 75.7131C735.699 75.9768 735.342 76.125 734.969 76.125C734.596 76.125 734.238 75.9768 733.974 75.7131C733.711 75.4494 733.562 75.0917 733.562 74.7187C733.562 74.3458 733.711 73.9881 733.974 73.7244C734.238 73.4607 734.596 73.3125 734.969 73.3125C735.342 73.3125 735.699 73.4607 735.963 73.7244C736.227 73.9881 736.375 74.3458 736.375 74.7187V74.7187Z" fill="#12B886"/>
<path d="M691.25 253.5C691.25 253.5 689.5 253.5 689.5 251.75C689.5 250 691.25 244.75 698.25 244.75C705.25 244.75 707 250 707 251.75C707 253.5 705.25 253.5 705.25 253.5H691.25ZM698.25 243C699.642 243 700.978 242.447 701.962 241.462C702.947 240.478 703.5 239.142 703.5 237.75C703.5 236.358 702.947 235.022 701.962 234.038C700.978 233.053 699.642 232.5 698.25 232.5C696.858 232.5 695.522 233.053 694.538 234.038C693.553 235.022 693 236.358 693 237.75C693 239.142 693.553 240.478 694.538 241.462C695.522 242.447 696.858 243 698.25 243V243Z" fill="#12B886"/>
<path fill-rule="evenodd" clip-rule="evenodd" d="M688.128 253.5C687.869 252.954 687.739 252.355 687.75 251.75C687.75 249.379 688.94 246.938 691.138 245.24C690.041 244.902 688.898 244.737 687.75 244.75C680.75 244.75 679 250 679 251.75C679 253.5 680.75 253.5 680.75 253.5H688.128Z" fill="#12B886"/>
<path d="M686.875 243C688.035 243 689.148 242.539 689.969 241.719C690.789 240.898 691.25 239.785 691.25 238.625C691.25 237.465 690.789 236.352 689.969 235.531C689.148 234.711 688.035 234.25 686.875 234.25C685.715 234.25 684.602 234.711 683.781 235.531C682.961 236.352 682.5 237.465 682.5 238.625C682.5 239.785 682.961 240.898 683.781 241.719C684.602 242.539 685.715 243 686.875 243V243Z" fill="#12B886"/>
<path d="M692.5 274.5C693.843 274.5 695.13 273.967 696.08 273.017C697.029 272.068 697.562 270.78 697.562 269.438C697.562 268.095 697.029 266.807 696.08 265.858C695.13 264.908 693.843 264.375 692.5 264.375C691.157 264.375 689.87 264.908 688.92 265.858C687.971 266.807 687.438 268.095 687.438 269.438C687.438 270.78 687.971 272.068 688.92 273.017C689.87 273.967 691.157 274.5 692.5 274.5V274.5ZM684.062 284.625C684.062 284.625 682.375 284.625 682.375 282.938C682.375 281.25 684.062 276.188 692.5 276.188C693.452 276.188 694.317 276.252 695.105 276.368C694.222 277.136 693.528 278.099 693.079 279.18C692.63 280.261 692.438 281.432 692.517 282.6C692.505 282.712 692.5 282.825 692.5 282.938V284.625H684.062ZM694.188 282.938C694.188 282.49 694.365 282.061 694.682 281.744C694.998 281.428 695.427 281.25 695.875 281.25H702.625C703.073 281.25 703.502 281.428 703.818 281.744C704.135 282.061 704.312 282.49 704.312 282.938V286.312C704.312 286.76 704.135 287.189 703.818 287.506C703.502 287.822 703.073 288 702.625 288H695.875C695.427 288 694.998 287.822 694.682 287.506C694.365 287.189 694.188 286.76 694.188 286.312V282.938Z" fill="#E2657B"/>
<path fill-rule="evenodd" clip-rule="evenodd" d="M699.25 277.875C698.802 277.875 698.373 278.053 698.057 278.369C697.74 278.686 697.562 279.115 697.562 279.562V282.094C697.562 282.318 697.474 282.532 697.315 282.69C697.157 282.849 696.943 282.938 696.719 282.938C696.495 282.938 696.28 282.849 696.122 282.69C695.964 282.532 695.875 282.318 695.875 282.094V279.562C695.875 278.667 696.231 277.809 696.864 277.176C697.496 276.543 698.355 276.188 699.25 276.188C700.145 276.188 701.004 276.543 701.636 277.176C702.269 277.809 702.625 278.667 702.625 279.562V282.094C702.625 282.318 702.536 282.532 702.378 282.69C702.22 282.849 702.005 282.938 701.781 282.938C701.557 282.938 701.343 282.849 701.185 282.69C701.026 282.532 700.938 282.318 700.938 282.094V279.562C700.938 279.115 700.76 278.686 700.443 278.369C700.127 278.053 699.698 277.875 699.25 277.875Z" fill="#E2657B"/>
<defs>
<linearGradient id="paint0_linear_198_3920" x1="123.321" y1="137.054" x2="601.017" y2="135.131" gradientUnits="userSpaceOnUse">
<stop stop-color="#E2657B"/>
<stop offset="1" stop-color="#12B886"/>
</linearGradient>
<clipPath id="clip0_198_3920">
<rect width="36" height="36" fill="white" transform="translate(686 35)"/>
</clipPath>
<clipPath id="clip1_198_3920">
<rect width="26" height="26" fill="white" transform="translate(691 83)"/>
</clipPath>
<clipPath id="clip2_198_3920">
<rect width="27" height="27" fill="white" transform="translate(707 157)"/>
</clipPath>
<clipPath id="clip3_198_3920">
<rect width="34" height="34" fill="white" transform="translate(667 139)"/>
</clipPath>
</defs>
</svg>
