<svg width="1200" height="1200" viewBox="0 0 1200 1200" fill="none" xmlns="http://www.w3.org/2000/svg">
<g clip-path="url(#clip0_860_7531)">
<rect x="1.5" y="1.5" width="1197" height="1197" rx="48.5" fill="url(#paint0_radial_860_7531)"/>
<rect x="1.5" y="1.5" width="1197" height="1197" rx="48.5" stroke="#3E3E3E" stroke-width="3"/>
<path d="M305.29 687.657L364.213 544.558C367.219 537.257 368.766 529.437 368.766 521.541L368.766 234.255M303.778 681.611L133.486 643.768C105.826 637.621 86.1466 613.088 86.1465 584.754L86.1462 441.308M299.243 675.565V475.707C299.243 458.617 292.01 442.325 279.333 430.864L188.917 349.117M290.176 689.168L589.404 595.162C614.597 587.248 631.738 563.896 631.738 537.488L631.737 382.366M296.222 680.1L227.909 637.404C210.234 626.357 199.496 606.984 199.496 586.14L199.496 501.762M308.313 683.123L442.256 602.507C460.425 591.572 471.536 571.917 471.536 550.712V501.762M488.159 385.39L483.625 408.061" stroke="url(#paint1_linear_860_7531)" stroke-width="3.02267"/>
<path d="M222.922 300.756C222.922 337.064 193.488 366.499 157.179 366.499C120.87 366.499 91.4357 337.064 91.4357 300.756C91.4357 264.447 120.87 235.012 157.179 235.012C193.488 235.012 222.922 264.447 222.922 300.756ZM461.713 191.939C461.713 245.777 418.069 289.421 364.232 289.421C310.394 289.421 266.751 245.777 266.751 191.939C266.751 138.102 310.394 94.4583 364.232 94.4583C418.069 94.4583 461.713 138.102 461.713 191.939ZM244.081 477.582C244.081 503.04 223.443 523.677 197.985 523.677C172.527 523.677 151.889 503.04 151.889 477.582C151.889 452.124 172.527 431.486 197.985 431.486C223.443 431.486 244.081 452.124 244.081 477.582ZM120.151 415.617C120.151 433.563 105.603 448.111 87.6573 448.111C69.7116 448.111 55.1636 433.563 55.1636 415.617C55.1636 397.671 69.7116 383.123 87.6573 383.123C105.603 383.123 120.151 397.671 120.151 415.617ZM516.121 364.232C516.121 377.169 505.633 387.657 492.695 387.657C479.758 387.657 469.269 377.169 469.269 364.232C469.269 351.294 479.758 340.806 492.695 340.806C505.633 340.806 516.121 351.294 516.121 364.232ZM525.189 459.446C525.189 489.912 500.491 514.609 470.025 514.609C439.559 514.609 414.861 489.912 414.861 459.446C414.861 428.98 439.559 404.282 470.025 404.282C500.491 404.282 525.189 428.98 525.189 459.446ZM711.083 324.937C711.083 367.923 676.236 402.771 633.249 402.771C590.263 402.771 555.416 367.923 555.416 324.937C555.416 281.951 590.263 247.103 633.249 247.103C676.236 247.103 711.083 281.951 711.083 324.937Z" fill="url(#paint2_linear_860_7531)" stroke="url(#paint3_linear_860_7531)" stroke-width="1.51134"/>
<path opacity="0.8" d="M310.988 205.781V179.401H321.55C323.491 179.401 325.109 179.689 326.406 180.264C327.703 180.839 328.677 181.638 329.33 182.66C329.982 183.673 330.309 184.841 330.309 186.163C330.309 187.194 330.103 188.1 329.69 188.881C329.278 189.654 328.711 190.29 327.99 190.788C327.277 191.277 326.462 191.625 325.543 191.831V192.089C326.548 192.132 327.488 192.415 328.364 192.939C329.248 193.463 329.965 194.197 330.515 195.141C331.064 196.077 331.339 197.194 331.339 198.49C331.339 199.89 330.991 201.139 330.296 202.239C329.609 203.329 328.591 204.192 327.243 204.828C325.895 205.463 324.233 205.781 322.258 205.781H310.988ZM316.565 201.221H321.112C322.666 201.221 323.8 200.925 324.512 200.332C325.225 199.731 325.581 198.933 325.581 197.936C325.581 197.207 325.405 196.562 325.053 196.004C324.701 195.446 324.199 195.008 323.546 194.69C322.902 194.373 322.134 194.214 321.241 194.214H316.565V201.221ZM316.565 190.44H320.7C321.464 190.44 322.142 190.307 322.735 190.041C323.336 189.766 323.808 189.379 324.152 188.881C324.504 188.383 324.68 187.786 324.68 187.091C324.68 186.138 324.341 185.369 323.662 184.785C322.992 184.201 322.039 183.909 320.803 183.909H316.565V190.44ZM341.329 205.781H335.352L344.459 179.401H351.646L360.74 205.781H354.763L348.156 185.429H347.949L341.329 205.781ZM340.955 195.412H355.072V199.765H340.955V195.412ZM387.793 179.401V205.781H382.976L371.499 189.178H371.306V205.781H365.729V179.401H370.623L382.01 195.991H382.242V179.401H387.793ZM394.215 205.781V179.401H399.792V191.032H400.14L409.633 179.401H416.318L406.529 191.213L416.434 205.781H409.762L402.536 194.935L399.792 198.284V205.781H394.215Z" fill="#C0C0C0"/>
<path opacity="0.8" d="M127.434 302.404H132.174L134.557 305.469L136.902 308.2L141.32 313.739H136.116L133.076 310.003L131.517 307.788L127.434 302.404ZM141.719 298.385C141.719 301.262 141.174 303.709 140.083 305.727C139.001 307.745 137.524 309.286 135.652 310.351C133.789 311.407 131.693 311.935 129.366 311.935C127.022 311.935 124.918 311.403 123.055 310.338C121.191 309.273 119.719 307.732 118.637 305.714C117.555 303.696 117.014 301.253 117.014 298.385C117.014 295.508 117.555 293.061 118.637 291.043C119.719 289.025 121.191 287.488 123.055 286.432C124.918 285.367 127.022 284.834 129.366 284.834C131.693 284.834 133.789 285.367 135.652 286.432C137.524 287.488 139.001 289.025 140.083 291.043C141.174 293.061 141.719 295.508 141.719 298.385ZM136.064 298.385C136.064 296.521 135.785 294.95 135.227 293.671C134.677 292.391 133.9 291.421 132.896 290.759C131.891 290.098 130.715 289.768 129.366 289.768C128.018 289.768 126.842 290.098 125.837 290.759C124.832 291.421 124.051 292.391 123.493 293.671C122.943 294.95 122.668 296.521 122.668 298.385C122.668 300.248 122.943 301.82 123.493 303.099C124.051 304.379 124.832 305.349 125.837 306.01C126.842 306.671 128.018 307.002 129.366 307.002C130.715 307.002 131.891 306.671 132.896 306.01C133.9 305.349 134.677 304.379 135.227 303.099C135.785 301.82 136.064 300.248 136.064 298.385ZM147.664 311.575V285.195H158.226C160.167 285.195 161.786 285.483 163.082 286.058C164.379 286.633 165.354 287.432 166.006 288.454C166.659 289.467 166.985 290.635 166.985 291.957C166.985 292.988 166.779 293.894 166.367 294.675C165.955 295.448 165.388 296.084 164.667 296.582C163.954 297.071 163.138 297.419 162.219 297.625V297.883C163.224 297.925 164.164 298.209 165.04 298.733C165.925 299.256 166.642 299.991 167.191 300.935C167.741 301.871 168.016 302.988 168.016 304.284C168.016 305.684 167.668 306.933 166.972 308.033C166.285 309.123 165.268 309.986 163.919 310.622C162.571 311.257 160.91 311.575 158.935 311.575H147.664ZM153.241 307.015H157.788C159.343 307.015 160.476 306.719 161.189 306.126C161.901 305.525 162.258 304.726 162.258 303.73C162.258 303 162.082 302.356 161.73 301.798C161.378 301.24 160.875 300.802 160.223 300.484C159.579 300.167 158.81 300.008 157.917 300.008H153.241V307.015ZM153.241 296.234H157.376C158.14 296.234 158.819 296.101 159.411 295.834C160.012 295.56 160.485 295.173 160.828 294.675C161.18 294.177 161.356 293.58 161.356 292.885C161.356 291.932 161.017 291.163 160.339 290.579C159.669 289.995 158.716 289.703 157.479 289.703H153.241V296.234ZM197.7 298.385C197.7 301.262 197.154 303.709 196.064 305.727C194.982 307.745 193.505 309.286 191.633 310.351C189.77 311.407 187.674 311.935 185.347 311.935C183.003 311.935 180.899 311.403 179.036 310.338C177.172 309.273 175.699 307.732 174.618 305.714C173.536 303.696 172.995 301.253 172.995 298.385C172.995 295.508 173.536 293.061 174.618 291.043C175.699 289.025 177.172 287.488 179.036 286.432C180.899 285.367 183.003 284.834 185.347 284.834C187.674 284.834 189.77 285.367 191.633 286.432C193.505 287.488 194.982 289.025 196.064 291.043C197.154 293.061 197.7 295.508 197.7 298.385ZM192.045 298.385C192.045 296.521 191.766 294.95 191.208 293.671C190.658 292.391 189.881 291.421 188.876 290.759C187.872 290.098 186.695 289.768 185.347 289.768C183.999 289.768 182.823 290.098 181.818 290.759C180.813 291.421 180.032 292.391 179.474 293.671C178.924 294.95 178.649 296.521 178.649 298.385C178.649 300.248 178.924 301.82 179.474 303.099C180.032 304.379 180.813 305.349 181.818 306.01C182.823 306.671 183.999 307.002 185.347 307.002C186.695 307.002 187.872 306.671 188.876 306.01C189.881 305.349 190.658 304.379 191.208 303.099C191.766 301.82 192.045 300.248 192.045 298.385Z" fill="#C0C0C0"/>
<path opacity="0.8" d="M591.196 317.118C591.11 316.252 590.741 315.579 590.09 315.1C589.439 314.62 588.555 314.38 587.439 314.38C586.68 314.38 586.04 314.488 585.518 314.702C584.995 314.91 584.594 315.2 584.315 315.572C584.043 315.944 583.908 316.366 583.908 316.838C583.893 317.232 583.975 317.576 584.154 317.869C584.34 318.162 584.594 318.416 584.917 318.631C585.239 318.839 585.611 319.021 586.033 319.178C586.455 319.329 586.906 319.458 587.385 319.565L589.36 320.037C590.319 320.252 591.199 320.538 592.001 320.896C592.802 321.254 593.496 321.694 594.083 322.216C594.67 322.739 595.124 323.354 595.446 324.062C595.776 324.771 595.944 325.583 595.951 326.499C595.944 327.844 595.6 329.011 594.921 329.998C594.248 330.979 593.275 331.741 592.001 332.285C590.734 332.821 589.206 333.09 587.418 333.09C585.643 333.09 584.097 332.818 582.78 332.274C581.471 331.73 580.448 330.925 579.711 329.859C578.981 328.785 578.598 327.458 578.562 325.876H583.06C583.11 326.613 583.321 327.229 583.693 327.723C584.072 328.209 584.577 328.578 585.206 328.828C585.843 329.072 586.562 329.193 587.364 329.193C588.151 329.193 588.834 329.079 589.414 328.85C590.001 328.621 590.455 328.302 590.777 327.894C591.099 327.487 591.26 327.018 591.26 326.488C591.26 325.994 591.114 325.579 590.82 325.243C590.534 324.907 590.112 324.621 589.554 324.384C589.003 324.148 588.326 323.934 587.525 323.74L585.131 323.139C583.278 322.688 581.814 321.984 580.741 321.025C579.668 320.066 579.135 318.774 579.142 317.15C579.135 315.819 579.489 314.656 580.204 313.661C580.927 312.667 581.918 311.89 583.178 311.332C584.437 310.774 585.868 310.495 587.471 310.495C589.103 310.495 590.527 310.774 591.743 311.332C592.967 311.89 593.919 312.667 594.598 313.661C595.278 314.656 595.629 315.808 595.65 317.118H591.196ZM599.751 314.627V310.795H617.806V314.627H611.076V332.778H606.481V314.627H599.751ZM622.29 332.778V310.795H630.963C632.624 310.795 634.04 311.092 635.214 311.686C636.395 312.273 637.293 313.107 637.908 314.187C638.531 315.261 638.842 316.524 638.842 317.976C638.842 319.436 638.527 320.692 637.897 321.744C637.268 322.789 636.355 323.59 635.16 324.148C633.972 324.706 632.534 324.985 630.845 324.985H625.038V321.25H630.094C630.981 321.25 631.718 321.128 632.305 320.885C632.892 320.642 633.328 320.277 633.615 319.79C633.908 319.304 634.055 318.699 634.055 317.976C634.055 317.246 633.908 316.631 633.615 316.13C633.328 315.629 632.888 315.25 632.294 314.992C631.708 314.727 630.967 314.595 630.072 314.595H626.938V332.778H622.29ZM634.162 322.774L639.626 332.778H634.495L629.149 322.774H634.162ZM648.286 310.795V332.778H643.638V310.795H648.286ZM653.621 332.778V310.795H662.294C663.961 310.795 665.382 311.114 666.555 311.751C667.729 312.38 668.624 313.257 669.239 314.38C669.861 315.497 670.173 316.785 670.173 318.245C670.173 319.704 669.858 320.992 669.228 322.109C668.598 323.225 667.686 324.095 666.491 324.717C665.303 325.34 663.865 325.651 662.176 325.651H656.648V321.926H661.425C662.319 321.926 663.056 321.772 663.636 321.465C664.223 321.15 664.659 320.717 664.945 320.166C665.239 319.608 665.385 318.967 665.385 318.245C665.385 317.515 665.239 316.878 664.945 316.334C664.659 315.783 664.223 315.357 663.636 315.057C663.049 314.749 662.305 314.595 661.403 314.595H658.269V332.778H653.621ZM674.703 332.778V310.795H689.516V314.627H679.351V319.865H688.754V323.697H679.351V328.946H689.559V332.778H674.703Z" fill="#C0C0C0"/>
<g filter="url(#filter0_d_860_7531)">
<path d="M136.02 698.237C136.02 684.882 146.846 674.055 160.201 674.055H1121.41C1134.77 674.055 1145.59 684.882 1145.59 698.237V885.642H160.201C146.846 885.642 136.02 874.816 136.02 861.461V698.237Z" fill="url(#paint4_linear_860_7531)"/>
<path d="M139.043 698.237C139.043 686.551 148.516 677.078 160.201 677.078H1121.41C1133.1 677.078 1142.57 686.551 1142.57 698.237V882.619H160.201C148.516 882.619 139.043 873.146 139.043 861.461V698.237Z" stroke="white" stroke-opacity="0.1" stroke-width="6.04534"/>
</g>
<line opacity="0.3" x1="439.799" y1="698.237" x2="439.799" y2="861.461" stroke="url(#paint5_linear_860_7531)" stroke-width="3.02267"/>
<line opacity="0.3" x1="832.746" y1="698.237" x2="832.746" y2="861.461" stroke="url(#paint6_linear_860_7531)" stroke-width="3.02267"/>
<path opacity="0.8" d="M215.563 741V773.975H208.591V741H215.563ZM251.146 741V773.975H245.125L230.779 753.221H230.537V773.975H223.566V741H229.684L243.917 761.738H244.207V741H251.146ZM281.038 751.659C280.813 750.875 280.496 750.183 280.089 749.582C279.681 748.97 279.182 748.455 278.591 748.036C278.012 747.607 277.346 747.279 276.595 747.054C275.854 746.829 275.033 746.716 274.131 746.716C272.446 746.716 270.965 747.134 269.687 747.972C268.421 748.809 267.433 750.027 266.725 751.627C266.016 753.215 265.662 755.158 265.662 757.455C265.662 759.752 266.011 761.706 266.709 763.316C267.406 764.926 268.394 766.155 269.671 767.003C270.949 767.84 272.457 768.259 274.196 768.259C275.774 768.259 277.121 767.98 278.237 767.422C279.364 766.853 280.223 766.053 280.813 765.023C281.414 763.992 281.715 762.774 281.715 761.368L283.132 761.577H274.63V756.328H288.429V760.482C288.429 763.38 287.817 765.871 286.593 767.953C285.37 770.025 283.684 771.624 281.538 772.751C279.391 773.867 276.933 774.425 274.163 774.425C271.072 774.425 268.356 773.744 266.016 772.381C263.676 771.007 261.852 769.058 260.542 766.536C259.243 764.003 258.594 760.997 258.594 757.52C258.594 754.847 258.98 752.464 259.753 750.371C260.537 748.267 261.632 746.485 263.038 745.025C264.444 743.565 266.081 742.454 267.948 741.692C269.816 740.93 271.84 740.549 274.019 740.549C275.886 740.549 277.625 740.823 279.235 741.37C280.845 741.907 282.273 742.669 283.518 743.657C284.774 744.644 285.799 745.82 286.593 747.183C287.388 748.535 287.897 750.027 288.123 751.659H281.038ZM295.933 773.975V741H318.152V746.748H302.904V754.605H317.009V760.353H302.904V768.227H318.216V773.975H295.933ZM343.85 750.483C343.721 749.185 343.168 748.176 342.191 747.456C341.214 746.737 339.889 746.378 338.214 746.378C337.076 746.378 336.116 746.539 335.332 746.861C334.549 747.172 333.948 747.607 333.529 748.165C333.121 748.723 332.917 749.356 332.917 750.065C332.896 750.655 333.019 751.17 333.287 751.61C333.567 752.051 333.948 752.432 334.431 752.754C334.914 753.065 335.472 753.339 336.105 753.575C336.738 753.8 337.415 753.993 338.134 754.154L341.096 754.863C342.535 755.185 343.855 755.614 345.057 756.151C346.259 756.688 347.301 757.348 348.181 758.131C349.061 758.915 349.743 759.838 350.226 760.901C350.719 761.963 350.972 763.182 350.982 764.556C350.972 766.574 350.456 768.323 349.437 769.804C348.428 771.275 346.968 772.418 345.057 773.234C343.157 774.039 340.866 774.442 338.182 774.442C335.52 774.442 333.202 774.034 331.227 773.218C329.262 772.402 327.727 771.195 326.622 769.595C325.527 767.985 324.953 765.994 324.899 763.622H331.645C331.72 764.727 332.037 765.65 332.595 766.391C333.164 767.121 333.921 767.674 334.865 768.049C335.821 768.414 336.899 768.597 338.102 768.597C339.282 768.597 340.307 768.425 341.177 768.082C342.057 767.738 342.739 767.261 343.222 766.649C343.705 766.037 343.946 765.334 343.946 764.539C343.946 763.799 343.726 763.176 343.286 762.672C342.857 762.167 342.223 761.738 341.386 761.384C340.56 761.03 339.545 760.707 338.343 760.418L334.753 759.516C331.973 758.84 329.777 757.782 328.167 756.344C326.557 754.906 325.758 752.968 325.768 750.532C325.758 748.535 326.289 746.791 327.362 745.299C328.446 743.807 329.933 742.642 331.822 741.805C333.711 740.968 335.858 740.549 338.263 740.549C340.71 740.549 342.846 740.968 344.671 741.805C346.506 742.642 347.934 743.807 348.954 745.299C349.973 746.791 350.499 748.519 350.531 750.483H343.85ZM356.683 746.748V741H383.764V746.748H373.669V773.975H366.778V746.748H356.683ZM246.103 828.975H234.414V796H246.199C249.516 796 252.371 796.66 254.765 797.98C257.159 799.29 259 801.174 260.288 803.632C261.586 806.09 262.236 809.031 262.236 812.455C262.236 815.89 261.586 818.842 260.288 821.311C259 823.779 257.148 825.674 254.733 826.994C252.328 828.314 249.452 828.975 246.103 828.975ZM241.385 823.001H245.813C247.874 823.001 249.607 822.636 251.014 821.906C252.43 821.166 253.493 820.023 254.202 818.477C254.921 816.92 255.28 814.913 255.28 812.455C255.28 810.019 254.921 808.027 254.202 806.482C253.493 804.936 252.436 803.798 251.03 803.068C249.624 802.338 247.89 801.973 245.829 801.973H241.385V823.001ZM273.491 828.975H266.02L277.404 796H286.388L297.755 828.975H290.284L282.025 803.535H281.767L273.491 828.975ZM273.024 816.013H290.671V821.456H273.024V816.013ZM298.706 801.748V796H325.788V801.748H315.692V828.975H308.801V801.748H298.706ZM334.169 828.975H326.698L338.081 796H347.066L358.433 828.975H350.962L342.702 803.535H342.445L334.169 828.975ZM333.702 816.013H351.349V821.456H333.702V816.013Z" fill="#1E1E1E"/>
<path opacity="0.8" d="M520.35 741V773.975H514.329L499.983 753.221H499.741V773.975H492.77V741H498.888L513.121 761.738H513.411V741H520.35ZM558.679 757.487C558.679 761.083 557.998 764.142 556.634 766.665C555.282 769.187 553.436 771.114 551.096 772.445C548.766 773.765 546.147 774.425 543.239 774.425C540.308 774.425 537.678 773.76 535.349 772.429C533.02 771.098 531.179 769.171 529.826 766.649C528.474 764.126 527.798 761.072 527.798 757.487C527.798 753.891 528.474 750.832 529.826 748.31C531.179 745.787 533.02 743.866 535.349 742.546C537.678 741.215 540.308 740.549 543.239 740.549C546.147 740.549 548.766 741.215 551.096 742.546C553.436 743.866 555.282 745.787 556.634 748.31C557.998 750.832 558.679 753.891 558.679 757.487ZM551.611 757.487C551.611 755.158 551.262 753.194 550.564 751.594C549.877 749.995 548.906 748.782 547.65 747.956C546.394 747.129 544.924 746.716 543.239 746.716C541.553 746.716 540.083 747.129 538.827 747.956C537.571 748.782 536.594 749.995 535.897 751.594C535.21 753.194 534.866 755.158 534.866 757.487C534.866 759.817 535.21 761.781 535.897 763.38C536.594 764.98 537.571 766.193 538.827 767.019C540.083 767.846 541.553 768.259 543.239 768.259C544.924 768.259 546.394 767.846 547.65 767.019C548.906 766.193 549.877 764.98 550.564 763.38C551.262 761.781 551.611 759.817 551.611 757.487ZM566.111 773.975V741H579.12C581.61 741 583.736 741.445 585.496 742.336C587.267 743.217 588.614 744.467 589.537 746.088C590.471 747.698 590.938 749.593 590.938 751.772C590.938 753.961 590.466 755.845 589.521 757.423C588.577 758.99 587.208 760.192 585.416 761.03C583.634 761.867 581.476 762.285 578.943 762.285H570.232V756.682H577.816C579.147 756.682 580.253 756.5 581.133 756.135C582.013 755.77 582.668 755.222 583.097 754.493C583.537 753.763 583.757 752.856 583.757 751.772C583.757 750.677 583.537 749.754 583.097 749.002C582.668 748.251 582.008 747.682 581.117 747.295C580.236 746.898 579.125 746.7 577.784 746.7H573.082V773.975H566.111ZM583.918 758.969L592.114 773.975H584.417L576.399 758.969H583.918ZM598.132 741H606.73L615.811 763.155H616.197L625.278 741H633.876V773.975H627.114V752.512H626.84L618.306 773.814H613.702L605.168 752.432H604.894V773.975H598.132V741ZM647.571 773.975H640.1L651.483 741H660.467L671.835 773.975H664.364L656.104 748.535H655.846L647.571 773.975ZM647.104 761.013H664.75V766.456H647.104V761.013ZM678.07 773.975V741H685.042V768.227H699.179V773.975H678.07ZM713.034 741V773.975H706.063V741H713.034ZM720.683 773.975V769.837L737.138 746.748H720.651V741H745.897V745.138L729.426 768.227H745.929V773.975H720.683ZM753.546 773.975V741H775.765V746.748H760.517V754.605H774.622V760.353H760.517V768.227H775.829V773.975H753.546ZM584.734 828.975H573.044V796H584.83C588.147 796 591.002 796.66 593.396 797.98C595.79 799.29 597.63 801.174 598.919 803.632C600.217 806.09 600.867 809.031 600.867 812.455C600.867 815.89 600.217 818.842 598.919 821.311C597.63 823.779 595.779 825.674 593.364 826.994C590.959 828.314 588.083 828.975 584.734 828.975ZM580.016 823.001H584.444C586.505 823.001 588.238 822.636 589.644 821.906C591.061 821.166 592.124 820.023 592.832 818.477C593.552 816.92 593.911 814.913 593.911 812.455C593.911 810.019 593.552 808.027 592.832 806.482C592.124 804.936 591.067 803.798 589.661 803.068C588.254 802.338 586.521 801.973 584.46 801.973H580.016V823.001ZM612.122 828.975H604.651L616.035 796H625.019L636.386 828.975H628.915L620.656 803.535H620.398L612.122 828.975ZM611.655 816.013H629.302V821.456H611.655V816.013ZM637.337 801.748V796H664.418V801.748H654.323V828.975H647.432V801.748H637.337ZM672.8 828.975H665.329L676.712 796H685.697L697.064 828.975H689.593L681.333 803.535H681.076L672.8 828.975ZM672.333 816.013H689.979V821.456H672.333V816.013Z" fill="#1E1E1E"/>
<path opacity="0.8" d="M906.001 741H912.973V762.414C912.973 764.819 912.399 766.922 911.25 768.726C910.112 770.529 908.518 771.935 906.468 772.944C904.418 773.942 902.03 774.442 899.303 774.442C896.566 774.442 894.172 773.942 892.122 772.944C890.072 771.935 888.478 770.529 887.34 768.726C886.202 766.922 885.634 764.819 885.634 762.414V741H892.605V761.818C892.605 763.074 892.879 764.191 893.426 765.167C893.985 766.144 894.768 766.912 895.777 767.47C896.786 768.028 897.961 768.307 899.303 768.307C900.656 768.307 901.831 768.028 902.829 767.47C903.838 766.912 904.616 766.144 905.164 765.167C905.722 764.191 906.001 763.074 906.001 761.818V741ZM948.557 741V773.975H942.535L928.189 753.221H927.947V773.975H920.976V741H927.094L941.327 761.738H941.617V741H948.557ZM963.555 741V773.975H956.584V741H963.555ZM971.558 773.975V741H993.391V746.748H978.53V754.605H991.942V760.353H978.53V773.975H971.558ZM1007.32 741V773.975H1000.35V741H1007.32ZM1015.32 773.975V741H1037.54V746.748H1022.29V754.605H1036.4V760.353H1022.29V768.227H1037.61V773.975H1015.32ZM1057.04 773.975H1045.35V741H1057.14C1060.45 741 1063.31 741.66 1065.7 742.98C1068.1 744.29 1069.94 746.174 1071.23 748.632C1072.52 751.09 1073.17 754.031 1073.17 757.455C1073.17 760.89 1072.52 763.842 1071.23 766.311C1069.94 768.779 1068.09 770.674 1065.67 771.994C1063.27 773.314 1060.39 773.975 1057.04 773.975ZM1052.32 768.001H1056.75C1058.81 768.001 1060.54 767.636 1061.95 766.906C1063.37 766.166 1064.43 765.023 1065.14 763.477C1065.86 761.92 1066.22 759.913 1066.22 757.455C1066.22 755.019 1065.86 753.027 1065.14 751.482C1064.43 749.936 1063.37 748.798 1061.97 748.068C1060.56 747.338 1058.83 746.973 1056.77 746.973H1052.32V768.001ZM947.412 828.975H939.941L951.325 796H960.309L971.676 828.975H964.205L955.946 803.535H955.688L947.412 828.975ZM946.945 816.013H964.592V821.456H946.945V816.013ZM977.912 828.975V796H990.922C993.423 796 995.553 796.478 997.314 797.433C999.074 798.378 1000.42 799.692 1001.34 801.378C1002.27 803.052 1002.74 804.984 1002.74 807.174C1002.74 809.364 1002.27 811.296 1001.32 812.97C1000.38 814.645 999.01 815.949 997.217 816.883C995.435 817.817 993.278 818.284 990.744 818.284H982.453V812.697H989.617C990.959 812.697 992.065 812.466 992.934 812.004C993.814 811.532 994.469 810.883 994.898 810.056C995.339 809.219 995.559 808.258 995.559 807.174C995.559 806.079 995.339 805.124 994.898 804.308C994.469 803.482 993.814 802.843 992.934 802.392C992.054 801.931 990.938 801.7 989.585 801.7H984.884V828.975H977.912ZM1016.51 796V828.975H1009.53V796H1016.51Z" fill="#1E1E1E"/>
<g clip-path="url(#clip1_860_7531)">
<path d="M352.141 1080.6V1067H372.544V1080.6H352.141Z" fill="url(#paint7_linear_860_7531)"/>
<path d="M374.537 998.992H338.539C334.932 998.992 331.472 1000.42 328.921 1002.98C326.37 1005.53 324.937 1008.99 324.937 1012.59V1094.21C324.937 1097.81 326.37 1101.27 328.921 1103.82C331.472 1106.37 334.932 1107.81 338.539 1107.81H392.947C396.555 1107.81 400.014 1106.37 402.565 1103.82C405.116 1101.27 406.549 1097.81 406.549 1094.21V1031C406.549 1029.2 405.832 1027.47 404.556 1026.2L379.345 1000.98C378.07 999.709 376.34 998.992 374.537 998.992V998.992ZM375.945 1022.8V1009.19L396.348 1029.6H382.746C380.942 1029.6 379.212 1028.88 377.937 1027.6C376.661 1026.33 375.945 1024.6 375.945 1022.8ZM331.738 1060.2H399.748V1067H379.345V1080.6H399.748V1087.4H379.345V1101.01H372.544V1087.4H352.141V1101.01H345.34V1087.4H331.738V1080.6H345.34V1067H331.738V1060.2Z" fill="url(#paint8_linear_860_7531)"/>
</g>
<g clip-path="url(#clip2_860_7531)">
<path d="M281.035 1055.86H242.831L215.815 1082.87C221.33 1087.74 228.1 1090.96 235.354 1092.17C242.608 1093.37 250.056 1092.52 256.85 1089.71C263.645 1086.89 269.513 1082.23 273.787 1076.24C278.062 1070.26 280.571 1063.2 281.03 1055.86H281.035ZM212.343 1079.39C207.477 1073.88 204.257 1067.11 203.049 1059.86C201.84 1052.6 202.691 1045.15 205.506 1038.36C208.321 1031.56 212.985 1025.7 218.97 1021.42C224.954 1017.15 232.018 1014.64 239.358 1014.18V1052.38L212.343 1079.4V1079.39ZM244.27 1014.18V1050.94H281.035C280.436 1041.39 276.371 1032.38 269.601 1025.61C262.832 1018.84 253.824 1014.78 244.27 1014.18Z" fill="url(#paint9_linear_860_7531)"/>
</g>
<g clip-path="url(#clip3_860_7531)">
<path d="M492.302 977.874C492.128 977.681 485.88 977.951 480.442 983.852C475.005 989.749 475.842 996.513 475.964 996.686C476.086 996.859 483.717 997.13 488.588 990.269C493.46 983.409 492.475 978.073 492.302 977.874ZM509.206 1037.72C508.961 1037.23 497.346 1031.43 498.428 1020.27C499.509 1009.1 506.971 1006.04 507.089 1005.71C507.206 1005.38 504.044 1001.68 500.692 999.808C498.232 998.488 495.509 997.732 492.72 997.594C492.169 997.579 490.256 997.109 486.324 998.186C483.732 998.895 477.892 1001.19 476.285 1001.28C474.673 1001.37 469.879 998.619 464.722 997.89C461.422 997.252 457.923 998.558 455.418 999.563C452.919 1000.56 448.165 1003.41 444.839 1010.97C441.513 1018.53 443.253 1030.51 444.497 1034.23C445.742 1037.95 447.685 1044.05 450.991 1048.49C453.929 1053.51 457.826 1057 459.453 1058.18C461.08 1059.36 465.671 1060.15 468.853 1058.52C471.414 1056.95 476.035 1056.05 477.861 1056.11C479.682 1056.18 483.273 1056.9 486.951 1058.86C489.863 1059.87 492.618 1059.45 495.377 1058.33C498.137 1057.2 502.131 1052.93 506.793 1044.26C508.563 1040.23 509.369 1038.05 509.206 1037.72Z" fill="url(#paint10_linear_860_7531)"/>
<path d="M492.302 977.874C492.128 977.681 485.88 977.951 480.442 983.852C475.005 989.749 475.842 996.513 475.964 996.686C476.086 996.859 483.717 997.13 488.588 990.269C493.46 983.409 492.475 978.073 492.302 977.874ZM509.206 1037.72C508.961 1037.23 497.346 1031.43 498.428 1020.27C499.509 1009.1 506.971 1006.04 507.089 1005.71C507.206 1005.38 504.044 1001.68 500.692 999.808C498.232 998.488 495.509 997.732 492.72 997.594C492.169 997.579 490.256 997.109 486.324 998.186C483.732 998.895 477.892 1001.19 476.285 1001.28C474.673 1001.37 469.879 998.619 464.722 997.89C461.422 997.252 457.923 998.558 455.418 999.563C452.919 1000.56 448.165 1003.41 444.839 1010.97C441.513 1018.53 443.253 1030.51 444.497 1034.23C445.742 1037.95 447.685 1044.05 450.991 1048.49C453.929 1053.51 457.826 1057 459.453 1058.18C461.08 1059.36 465.671 1060.15 468.853 1058.52C471.414 1056.95 476.035 1056.05 477.861 1056.11C479.682 1056.18 483.273 1056.9 486.951 1058.86C489.863 1059.87 492.618 1059.45 495.377 1058.33C498.137 1057.2 502.131 1052.93 506.793 1044.26C508.563 1040.23 509.369 1038.05 509.206 1037.72Z" fill="url(#paint11_linear_860_7531)"/>
</g>
<path fill-rule="evenodd" clip-rule="evenodd" d="M646.851 1060.5C646.903 1061.98 647.255 1063.45 647.885 1064.78C648.515 1066.12 649.408 1067.31 650.508 1068.27C651.694 1069.29 653.134 1070.08 654.867 1070.65C656.6 1071.22 658.615 1071.51 660.931 1071.51C664.013 1071.51 666.621 1071.01 668.755 1070.02C670.917 1069.02 672.549 1067.64 673.68 1065.86C674.83 1064.02 675.423 1061.86 675.385 1059.67C675.385 1057.55 674.975 1055.79 674.154 1054.38C673.32 1052.96 672.14 1051.8 670.734 1051.01C669.122 1050.08 667.385 1049.41 665.582 1049.02L659.919 1047.66C658.581 1047.41 657.317 1046.84 656.226 1046C655.811 1045.67 655.477 1045.24 655.25 1044.75C655.024 1044.26 654.911 1043.72 654.922 1043.18C654.922 1041.7 655.478 1040.49 656.6 1039.55C657.739 1038.6 659.299 1038.11 661.278 1038.11C662.582 1038.11 663.703 1038.32 664.652 1038.76C665.521 1039.13 666.289 1039.71 666.886 1040.47C667.447 1041.17 667.824 1042.01 667.98 1042.9H674.82C674.708 1040.98 674.08 1039.13 673.005 1037.56C671.852 1035.86 670.276 1034.52 668.445 1033.68C666.206 1032.67 663.777 1032.18 661.332 1032.25C658.661 1032.25 656.299 1032.72 654.256 1033.67C652.204 1034.6 650.608 1035.93 649.441 1037.64C648.283 1039.36 647.709 1041.37 647.709 1043.68C647.709 1045.57 648.073 1047.23 648.83 1048.63C649.578 1050.03 650.645 1051.18 652.031 1052.09C653.426 1052.99 655.058 1053.67 656.955 1054.1L662.591 1055.46C664.478 1055.93 665.874 1056.53 666.804 1057.29C667.259 1057.64 667.623 1058.11 667.866 1058.64C668.109 1059.18 668.223 1059.76 668.199 1060.35C668.199 1061.39 667.935 1062.31 667.424 1063.09C666.836 1063.93 666.024 1064.57 665.089 1064.93C664.077 1065.37 662.819 1065.59 661.323 1065.59C660.256 1065.59 659.281 1065.46 658.405 1065.21C657.599 1064.98 656.835 1064.61 656.144 1064.12C655.537 1063.72 655.017 1063.18 654.617 1062.56C654.217 1061.94 653.945 1061.23 653.818 1060.5H646.851ZM709.572 1074.56L704.949 1067.58C706.554 1066.05 707.776 1064.16 708.606 1061.91C709.445 1059.66 709.864 1057.12 709.864 1054.3V1049.57C709.864 1046.07 709.226 1043.02 707.967 1040.44C706.789 1037.93 704.92 1035.84 702.596 1034.43C700.262 1033.01 697.48 1032.31 694.234 1032.31C691.033 1032.31 688.252 1033.01 685.899 1034.43C683.565 1035.84 681.768 1037.83 680.501 1040.44C679.197 1043.29 678.557 1046.42 678.631 1049.57V1054.29C678.631 1057.79 679.261 1060.82 680.501 1063.41C681.768 1065.98 683.565 1067.99 685.899 1069.41C688.449 1070.86 691.325 1071.59 694.234 1071.51C696.096 1071.52 697.947 1071.2 699.705 1070.56L702.387 1074.55H709.572V1074.56ZM685.717 1054.44V1049.51C685.717 1047.19 686.063 1045.21 686.756 1043.56C687.375 1042.04 688.404 1040.74 689.72 1039.8C691.067 1038.92 692.638 1038.46 694.234 1038.5C695.985 1038.5 697.49 1038.94 698.748 1039.8C700.075 1040.72 701.107 1042.03 701.712 1043.56C702.414 1045.21 702.76 1047.19 702.76 1049.51V1054.44C702.76 1055.99 702.596 1057.39 702.277 1058.65C701.958 1059.87 701.484 1060.95 700.864 1061.86L699.897 1060.53L698.939 1059.15H692.255L696.368 1065.28C695.642 1065.59 694.863 1065.74 694.079 1065.73C692.498 1065.73 690.952 1065.25 689.638 1064.34C688.333 1063.38 687.32 1062.06 686.72 1060.52C686.002 1058.59 685.661 1056.52 685.717 1054.44ZM722.065 1064.43H737.531V1070.79H714.852V1033.02H722.056V1064.43H722.065Z" fill="url(#paint12_linear_860_7531)"/>
<g clip-path="url(#clip4_860_7531)">
<path d="M606.045 1002.01H554.66C551.253 1002.01 547.985 1003.37 545.576 1005.78C543.167 1008.19 541.814 1011.45 541.814 1014.86V1091.94C541.814 1095.35 543.167 1098.61 545.576 1101.02C547.985 1103.43 551.253 1104.79 554.66 1104.79H606.045C609.453 1104.79 612.72 1103.43 615.129 1101.02C617.538 1098.61 618.892 1095.35 618.892 1091.94V1014.86C618.892 1011.45 617.538 1008.19 615.129 1005.78C612.72 1003.37 609.453 1002.01 606.045 1002.01V1002.01ZM571.656 1038.28C571.954 1037.98 572.309 1037.74 572.699 1037.58C573.089 1037.42 573.507 1037.34 573.93 1037.34C574.352 1037.34 574.77 1037.42 575.16 1037.58C575.55 1037.74 575.905 1037.98 576.203 1038.28C576.502 1038.58 576.739 1038.93 576.9 1039.32C577.062 1039.71 577.145 1040.13 577.145 1040.55C577.145 1040.98 577.062 1041.39 576.9 1041.78C576.739 1042.17 576.502 1042.53 576.203 1042.83L565.624 1053.4L576.203 1063.97C576.806 1064.58 577.145 1065.39 577.145 1066.25C577.145 1067.1 576.806 1067.92 576.203 1068.52C575.6 1069.12 574.782 1069.46 573.93 1069.46C573.077 1069.46 572.259 1069.12 571.656 1068.52L558.809 1055.67C558.51 1055.38 558.273 1055.02 558.111 1054.63C557.949 1054.24 557.866 1053.82 557.866 1053.4C557.866 1052.98 557.949 1052.56 558.111 1052.17C558.273 1051.78 558.51 1051.42 558.809 1051.13L571.656 1038.28ZM589.05 1038.28L601.896 1051.13C602.195 1051.42 602.432 1051.78 602.594 1052.17C602.756 1052.56 602.84 1052.98 602.84 1053.4C602.84 1053.82 602.756 1054.24 602.594 1054.63C602.432 1055.02 602.195 1055.38 601.896 1055.67L589.05 1068.52C588.751 1068.82 588.397 1069.06 588.007 1069.22C587.616 1069.38 587.198 1069.46 586.776 1069.46C586.354 1069.46 585.936 1069.38 585.545 1069.22C585.155 1069.06 584.801 1068.82 584.502 1068.52C584.204 1068.22 583.967 1067.87 583.805 1067.48C583.643 1067.09 583.56 1066.67 583.56 1066.25C583.56 1065.82 583.643 1065.41 583.805 1065.02C583.967 1064.63 584.204 1064.27 584.502 1063.97L595.081 1053.4L584.502 1042.83C583.899 1042.22 583.56 1041.41 583.56 1040.55C583.56 1039.7 583.899 1038.88 584.502 1038.28C585.105 1037.68 585.923 1037.34 586.776 1037.34C587.629 1037.34 588.447 1037.68 589.05 1038.28Z" fill="url(#paint13_linear_860_7531)"/>
</g>
<g clip-path="url(#clip5_860_7531)">
<path d="M453.824 1082.39C454.085 1082.25 454.373 1082.16 454.669 1082.13C454.965 1082.1 455.265 1082.12 455.551 1082.21C455.837 1082.29 456.104 1082.43 456.335 1082.62C456.567 1082.81 456.76 1083.04 456.902 1083.3L462.719 1093.96C467.455 1092.11 472.497 1091.17 477.582 1091.18C482.666 1091.17 487.708 1092.11 492.444 1093.96L498.261 1083.3C498.399 1083.03 498.59 1082.79 498.821 1082.6C499.053 1082.4 499.321 1082.26 499.61 1082.17C499.899 1082.08 500.203 1082.05 500.504 1082.08C500.805 1082.11 501.097 1082.2 501.363 1082.34C501.629 1082.49 501.863 1082.68 502.051 1082.92C502.24 1083.16 502.379 1083.43 502.461 1083.72C502.543 1084.01 502.566 1084.31 502.529 1084.61C502.491 1084.91 502.394 1085.2 502.242 1085.47L496.566 1095.87C506.94 1101.46 513.854 1111.48 513.854 1122.92H441.31C441.31 1111.48 448.224 1101.46 458.598 1095.87L452.917 1085.47C452.63 1084.94 452.564 1084.32 452.734 1083.75C452.904 1083.17 453.296 1082.68 453.824 1082.4V1082.39ZM463.98 1113.85C465.182 1113.85 466.336 1113.38 467.186 1112.53C468.036 1111.68 468.514 1110.52 468.514 1109.32C468.514 1108.12 468.036 1106.96 467.186 1106.11C466.336 1105.26 465.182 1104.79 463.98 1104.79C462.777 1104.79 461.624 1105.26 460.774 1106.11C459.924 1106.96 459.446 1108.12 459.446 1109.32C459.446 1110.52 459.924 1111.68 460.774 1112.53C461.624 1113.38 462.777 1113.85 463.98 1113.85ZM491.184 1113.85C492.386 1113.85 493.54 1113.38 494.39 1112.53C495.24 1111.68 495.718 1110.52 495.718 1109.32C495.718 1108.12 495.24 1106.96 494.39 1106.11C493.54 1105.26 492.386 1104.79 491.184 1104.79C489.981 1104.79 488.828 1105.26 487.978 1106.11C487.128 1106.96 486.65 1108.12 486.65 1109.32C486.65 1110.52 487.128 1111.68 487.978 1112.53C488.828 1113.38 489.981 1113.85 491.184 1113.85Z" fill="url(#paint14_linear_860_7531)"/>
</g>
<path d="M994.459 1017.13L997.481 1017.13L994.459 1017.13ZM958.187 1053.4L958.187 1050.38L958.187 1053.4ZM771.666 1051.26C770.486 1052.44 770.486 1054.36 771.666 1055.54L790.902 1074.77C792.083 1075.96 793.997 1075.96 795.177 1074.77C796.358 1073.59 796.358 1071.68 795.177 1070.5L778.078 1053.4L795.177 1036.3C796.358 1035.12 796.358 1033.21 795.177 1032.03C793.997 1030.85 792.083 1030.85 790.902 1032.03L771.666 1051.26ZM991.436 968.767L991.436 1017.13L997.481 1017.13L997.481 968.767L991.436 968.767ZM958.187 1050.38L773.804 1050.38L773.804 1056.42L958.187 1056.42L958.187 1050.38ZM991.436 1017.13C991.436 1035.49 976.55 1050.38 958.187 1050.38L958.187 1056.42C979.888 1056.42 997.481 1038.83 997.481 1017.13L991.436 1017.13Z" fill="#7D7D7D"/>
<g filter="url(#filter1_d_860_7531)">
<path d="M831.234 888.665H1145.59V967.254C1145.59 973.932 1140.18 979.345 1133.5 979.345H843.325C836.648 979.345 831.234 973.932 831.234 967.254V888.665Z" fill="url(#paint15_radial_860_7531)"/>
<path d="M831.234 887.909H830.479V888.665V967.254C830.479 974.349 836.23 980.101 843.325 980.101H1133.5C1140.6 980.101 1146.35 974.349 1146.35 967.254V888.665V887.909H1145.59H831.234Z" stroke="#2E2E2E" stroke-width="1.51134"/>
</g>
<mask id="path-26-outside-1_860_7531" maskUnits="userSpaceOnUse" x="892.71" y="901.778" width="194" height="64" fill="black">
<rect fill="white" x="892.71" y="901.778" width="194" height="64"/>
<path d="M961.871 926.615C961.871 925.315 962.245 924.287 962.992 923.531C963.74 922.776 964.756 922.398 966.041 922.398H980.839C981.048 922.73 981.228 923.169 981.377 923.713C981.556 924.257 981.646 924.831 981.646 925.436C981.646 926.584 981.392 927.4 980.884 927.884C980.406 928.368 979.763 928.61 978.956 928.61H969.494V932.826H979.583C979.793 933.159 979.972 933.597 980.122 934.141C980.301 934.655 980.391 935.214 980.391 935.819C980.391 936.967 980.151 937.783 979.673 938.267C979.195 938.751 978.552 938.992 977.745 938.992H969.494V943.753H981.018C981.228 944.086 981.407 944.524 981.556 945.068C981.736 945.612 981.826 946.186 981.826 946.791C981.826 947.94 981.571 948.771 981.063 949.285C980.585 949.768 979.942 950.01 979.135 950.01H966.041C964.756 950.01 963.74 949.632 962.992 948.877C962.245 948.121 961.871 947.093 961.871 945.793V926.615Z"/>
<path d="M1013.3 948.922C1012.88 949.345 1012.27 949.662 1011.46 949.874C1010.68 950.116 1009.74 950.237 1008.63 950.237C1007.53 950.237 1006.48 950.071 1005.5 949.738C1004.51 949.406 1003.7 948.605 1003.07 947.335L998.634 938.176C998.186 937.239 997.782 936.363 997.424 935.547C997.065 934.7 996.676 933.733 996.258 932.645L995.989 932.69C996.108 934.322 996.168 935.985 996.168 937.678C996.198 939.37 996.213 941.033 996.213 942.665V949.693C995.884 949.783 995.376 949.874 994.688 949.965C994.031 950.055 993.373 950.101 992.715 950.101C992.058 950.101 991.475 950.055 990.966 949.965C990.458 949.874 990.04 949.693 989.711 949.421C989.382 949.149 989.128 948.786 988.949 948.332C988.769 947.849 988.68 947.229 988.68 946.474V923.804C989.098 923.199 989.741 922.746 990.608 922.443C991.475 922.141 992.401 921.99 993.388 921.99C994.494 921.99 995.54 922.171 996.527 922.534C997.543 922.866 998.35 923.652 998.948 924.892L1003.43 934.05C1003.88 934.987 1004.28 935.879 1004.64 936.725C1005 937.542 1005.39 938.494 1005.81 939.582L1006.03 939.537C1005.91 937.904 1005.84 936.272 1005.81 934.64C1005.78 933.008 1005.76 931.375 1005.76 929.743V922.398C1006.09 922.307 1006.59 922.217 1007.24 922.126C1007.93 922.035 1008.6 921.99 1009.26 921.99C1010.58 921.99 1011.58 922.232 1012.27 922.715C1012.95 923.169 1013.3 924.136 1013.3 925.617V948.922Z"/>
<path d="M1029.2 949.693C1028.87 949.783 1028.35 949.874 1027.63 949.965C1026.95 950.055 1026.26 950.101 1025.57 950.101C1024.88 950.101 1024.27 950.04 1023.73 949.919C1023.22 949.829 1022.79 949.647 1022.43 949.375C1022.07 949.103 1021.8 948.725 1021.62 948.242C1021.45 947.758 1021.36 947.123 1021.36 946.338V922.398C1021.68 922.338 1022.21 922.262 1022.93 922.171C1023.64 922.05 1024.33 921.99 1024.99 921.99C1025.68 921.99 1026.27 922.05 1026.78 922.171C1027.32 922.262 1027.77 922.443 1028.13 922.715C1028.49 922.987 1028.75 923.365 1028.93 923.849C1029.11 924.332 1029.2 924.967 1029.2 925.753V949.693Z"/>
<path d="M1051.12 927.929C1048.81 927.929 1047.05 928.64 1045.83 930.06C1044.6 931.481 1043.99 933.491 1043.99 936.091C1043.99 938.72 1044.66 940.746 1046 942.166C1047.38 943.587 1049.22 944.297 1051.52 944.297C1052.75 944.297 1053.78 944.131 1054.61 943.798C1055.48 943.466 1056.3 943.088 1057.08 942.665C1057.59 943.088 1057.98 943.602 1058.25 944.207C1058.55 944.781 1058.69 945.461 1058.69 946.247C1058.69 947.486 1058.01 948.544 1056.63 949.421C1055.29 950.267 1053.22 950.69 1050.44 950.69C1048.44 950.69 1046.56 950.403 1044.79 949.829C1043.03 949.254 1041.49 948.378 1040.18 947.199C1038.86 945.99 1037.81 944.479 1037.04 942.665C1036.29 940.821 1035.92 938.63 1035.92 936.091C1035.92 933.733 1036.27 931.662 1036.99 929.879C1037.74 928.065 1038.74 926.539 1040 925.3C1041.28 924.06 1042.78 923.123 1044.48 922.489C1046.18 921.854 1048.01 921.537 1049.95 921.537C1052.7 921.537 1054.82 921.99 1056.32 922.897C1057.84 923.804 1058.61 924.967 1058.61 926.388C1058.61 927.174 1058.41 927.854 1058.02 928.428C1057.63 929.003 1057.19 929.456 1056.68 929.788C1055.9 929.275 1055.06 928.836 1054.17 928.474C1053.3 928.111 1052.28 927.929 1051.12 927.929Z"/>
<path d="M1065.12 926.615C1065.12 925.315 1065.49 924.287 1066.24 923.531C1066.99 922.776 1068 922.398 1069.29 922.398H1084.09C1084.3 922.73 1084.48 923.169 1084.63 923.713C1084.81 924.257 1084.9 924.831 1084.9 925.436C1084.9 926.584 1084.64 927.4 1084.13 927.884C1083.65 928.368 1083.01 928.61 1082.2 928.61H1072.74V932.826H1082.83C1083.04 933.159 1083.22 933.597 1083.37 934.141C1083.55 934.655 1083.64 935.214 1083.64 935.819C1083.64 936.967 1083.4 937.783 1082.92 938.267C1082.44 938.751 1081.8 938.992 1080.99 938.992H1072.74V943.753H1084.27C1084.48 944.086 1084.66 944.524 1084.81 945.068C1084.98 945.612 1085.07 946.186 1085.07 946.791C1085.07 947.94 1084.82 948.771 1084.31 949.285C1083.83 949.768 1083.19 950.01 1082.38 950.01H1069.29C1068 950.01 1066.99 949.632 1066.24 948.877C1065.49 948.121 1065.12 947.093 1065.12 945.793V926.615Z"/>
<path fill-rule="evenodd" clip-rule="evenodd" d="M924.605 964.232C941.115 964.232 954.499 950.699 954.499 934.005C954.499 917.311 941.115 903.778 924.605 903.778C908.095 903.778 894.71 917.311 894.71 934.005C894.71 950.699 908.095 964.232 924.605 964.232ZM938.082 927.851L945.93 922.616L938.082 917.38V920.254L933.679 920.131C930.412 920.039 927.573 922.381 927.005 925.635C926.348 928.391 925.662 931.158 924.944 933.936C924.107 937.291 923.285 940.389 922.478 943.23H922.209C921.312 940.298 920.445 937.487 919.608 934.797C918.801 932.077 917.994 929.235 917.186 926.273C916.858 925.004 916.334 924.142 915.617 923.689C914.929 923.205 914.033 922.963 912.926 922.963C912.03 922.963 910.804 923.371 910.804 923.371C910.78 923.382 910.657 923.423 910.53 923.466C910.39 923.513 910.246 923.562 910.22 923.573L901.547 927.708C900.86 928.036 900.525 928.833 900.768 929.56L901.422 931.513C901.659 932.22 902.371 932.646 903.098 932.516L910.442 931.207C910.68 931.973 910.925 932.747 911.178 933.528C911.686 935.099 912.209 936.656 912.747 938.198C913.315 939.709 913.853 941.145 914.361 942.505C914.899 943.865 915.408 945.104 915.886 946.223C916.364 947.311 916.768 948.203 917.097 948.898C917.426 949.563 918.038 950.092 918.935 950.485C919.832 950.847 920.908 951.029 922.164 951.029C923.21 951.029 924.167 950.893 925.034 950.621C925.93 950.349 926.588 950.031 927.007 949.669C927.335 949.215 927.769 948.414 928.307 947.266C928.845 946.087 929.413 944.742 930.011 943.23C930.639 941.689 931.252 940.057 931.85 938.334C932.477 936.611 933.03 934.963 933.509 933.392C934.017 931.79 934.42 930.354 934.719 929.084C934.909 928.352 935.004 927.569 935.074 926.997C935.125 926.578 935.162 926.272 935.213 926.183C935.213 926.183 935.467 925.638 935.84 925.638L938.082 925.201V927.851Z"/>
</mask>
<path d="M961.871 926.615C961.871 925.315 962.245 924.287 962.992 923.531C963.74 922.776 964.756 922.398 966.041 922.398H980.839C981.048 922.73 981.228 923.169 981.377 923.713C981.556 924.257 981.646 924.831 981.646 925.436C981.646 926.584 981.392 927.4 980.884 927.884C980.406 928.368 979.763 928.61 978.956 928.61H969.494V932.826H979.583C979.793 933.159 979.972 933.597 980.122 934.141C980.301 934.655 980.391 935.214 980.391 935.819C980.391 936.967 980.151 937.783 979.673 938.267C979.195 938.751 978.552 938.992 977.745 938.992H969.494V943.753H981.018C981.228 944.086 981.407 944.524 981.556 945.068C981.736 945.612 981.826 946.186 981.826 946.791C981.826 947.94 981.571 948.771 981.063 949.285C980.585 949.768 979.942 950.01 979.135 950.01H966.041C964.756 950.01 963.74 949.632 962.992 948.877C962.245 948.121 961.871 947.093 961.871 945.793V926.615Z" fill="white"/>
<path d="M1013.3 948.922C1012.88 949.345 1012.27 949.662 1011.46 949.874C1010.68 950.116 1009.74 950.237 1008.63 950.237C1007.53 950.237 1006.48 950.071 1005.5 949.738C1004.51 949.406 1003.7 948.605 1003.07 947.335L998.634 938.176C998.186 937.239 997.782 936.363 997.424 935.547C997.065 934.7 996.676 933.733 996.258 932.645L995.989 932.69C996.108 934.322 996.168 935.985 996.168 937.678C996.198 939.37 996.213 941.033 996.213 942.665V949.693C995.884 949.783 995.376 949.874 994.688 949.965C994.031 950.055 993.373 950.101 992.715 950.101C992.058 950.101 991.475 950.055 990.966 949.965C990.458 949.874 990.04 949.693 989.711 949.421C989.382 949.149 989.128 948.786 988.949 948.332C988.769 947.849 988.68 947.229 988.68 946.474V923.804C989.098 923.199 989.741 922.746 990.608 922.443C991.475 922.141 992.401 921.99 993.388 921.99C994.494 921.99 995.54 922.171 996.527 922.534C997.543 922.866 998.35 923.652 998.948 924.892L1003.43 934.05C1003.88 934.987 1004.28 935.879 1004.64 936.725C1005 937.542 1005.39 938.494 1005.81 939.582L1006.03 939.537C1005.91 937.904 1005.84 936.272 1005.81 934.64C1005.78 933.008 1005.76 931.375 1005.76 929.743V922.398C1006.09 922.307 1006.59 922.217 1007.24 922.126C1007.93 922.035 1008.6 921.99 1009.26 921.99C1010.58 921.99 1011.58 922.232 1012.27 922.715C1012.95 923.169 1013.3 924.136 1013.3 925.617V948.922Z" fill="white"/>
<path d="M1029.2 949.693C1028.87 949.783 1028.35 949.874 1027.63 949.965C1026.95 950.055 1026.26 950.101 1025.57 950.101C1024.88 950.101 1024.27 950.04 1023.73 949.919C1023.22 949.829 1022.79 949.647 1022.43 949.375C1022.07 949.103 1021.8 948.725 1021.62 948.242C1021.45 947.758 1021.36 947.123 1021.36 946.338V922.398C1021.68 922.338 1022.21 922.262 1022.93 922.171C1023.64 922.05 1024.33 921.99 1024.99 921.99C1025.68 921.99 1026.27 922.05 1026.78 922.171C1027.32 922.262 1027.77 922.443 1028.13 922.715C1028.49 922.987 1028.75 923.365 1028.93 923.849C1029.11 924.332 1029.2 924.967 1029.2 925.753V949.693Z" fill="white"/>
<path d="M1051.12 927.929C1048.81 927.929 1047.05 928.64 1045.83 930.06C1044.6 931.481 1043.99 933.491 1043.99 936.091C1043.99 938.72 1044.66 940.746 1046 942.166C1047.38 943.587 1049.22 944.297 1051.52 944.297C1052.75 944.297 1053.78 944.131 1054.61 943.798C1055.48 943.466 1056.3 943.088 1057.08 942.665C1057.59 943.088 1057.98 943.602 1058.25 944.207C1058.55 944.781 1058.69 945.461 1058.69 946.247C1058.69 947.486 1058.01 948.544 1056.63 949.421C1055.29 950.267 1053.22 950.69 1050.44 950.69C1048.44 950.69 1046.56 950.403 1044.79 949.829C1043.03 949.254 1041.49 948.378 1040.18 947.199C1038.86 945.99 1037.81 944.479 1037.04 942.665C1036.29 940.821 1035.92 938.63 1035.92 936.091C1035.92 933.733 1036.27 931.662 1036.99 929.879C1037.74 928.065 1038.74 926.539 1040 925.3C1041.28 924.06 1042.78 923.123 1044.48 922.489C1046.18 921.854 1048.01 921.537 1049.95 921.537C1052.7 921.537 1054.82 921.99 1056.32 922.897C1057.84 923.804 1058.61 924.967 1058.61 926.388C1058.61 927.174 1058.41 927.854 1058.02 928.428C1057.63 929.003 1057.19 929.456 1056.68 929.788C1055.9 929.275 1055.06 928.836 1054.17 928.474C1053.3 928.111 1052.28 927.929 1051.12 927.929Z" fill="white"/>
<path d="M1065.12 926.615C1065.12 925.315 1065.49 924.287 1066.24 923.531C1066.99 922.776 1068 922.398 1069.29 922.398H1084.09C1084.3 922.73 1084.48 923.169 1084.63 923.713C1084.81 924.257 1084.9 924.831 1084.9 925.436C1084.9 926.584 1084.64 927.4 1084.13 927.884C1083.65 928.368 1083.01 928.61 1082.2 928.61H1072.74V932.826H1082.83C1083.04 933.159 1083.22 933.597 1083.37 934.141C1083.55 934.655 1083.64 935.214 1083.64 935.819C1083.64 936.967 1083.4 937.783 1082.92 938.267C1082.44 938.751 1081.8 938.992 1080.99 938.992H1072.74V943.753H1084.27C1084.48 944.086 1084.66 944.524 1084.81 945.068C1084.98 945.612 1085.07 946.186 1085.07 946.791C1085.07 947.94 1084.82 948.771 1084.31 949.285C1083.83 949.768 1083.19 950.01 1082.38 950.01H1069.29C1068 950.01 1066.99 949.632 1066.24 948.877C1065.49 948.121 1065.12 947.093 1065.12 945.793V926.615Z" fill="white"/>
<path fill-rule="evenodd" clip-rule="evenodd" d="M924.605 964.232C941.115 964.232 954.499 950.699 954.499 934.005C954.499 917.311 941.115 903.778 924.605 903.778C908.095 903.778 894.71 917.311 894.71 934.005C894.71 950.699 908.095 964.232 924.605 964.232ZM938.082 927.851L945.93 922.616L938.082 917.38V920.254L933.679 920.131C930.412 920.039 927.573 922.381 927.005 925.635C926.348 928.391 925.662 931.158 924.944 933.936C924.107 937.291 923.285 940.389 922.478 943.23H922.209C921.312 940.298 920.445 937.487 919.608 934.797C918.801 932.077 917.994 929.235 917.186 926.273C916.858 925.004 916.334 924.142 915.617 923.689C914.929 923.205 914.033 922.963 912.926 922.963C912.03 922.963 910.804 923.371 910.804 923.371C910.78 923.382 910.657 923.423 910.53 923.466C910.39 923.513 910.246 923.562 910.22 923.573L901.547 927.708C900.86 928.036 900.525 928.833 900.768 929.56L901.422 931.513C901.659 932.22 902.371 932.646 903.098 932.516L910.442 931.207C910.68 931.973 910.925 932.747 911.178 933.528C911.686 935.099 912.209 936.656 912.747 938.198C913.315 939.709 913.853 941.145 914.361 942.505C914.899 943.865 915.408 945.104 915.886 946.223C916.364 947.311 916.768 948.203 917.097 948.898C917.426 949.563 918.038 950.092 918.935 950.485C919.832 950.847 920.908 951.029 922.164 951.029C923.21 951.029 924.167 950.893 925.034 950.621C925.93 950.349 926.588 950.031 927.007 949.669C927.335 949.215 927.769 948.414 928.307 947.266C928.845 946.087 929.413 944.742 930.011 943.23C930.639 941.689 931.252 940.057 931.85 938.334C932.477 936.611 933.03 934.963 933.509 933.392C934.017 931.79 934.42 930.354 934.719 929.084C934.909 928.352 935.004 927.569 935.074 926.997C935.125 926.578 935.162 926.272 935.213 926.183C935.213 926.183 935.467 925.638 935.84 925.638L938.082 925.201V927.851Z" fill="white"/>
<path d="M961.871 926.615C961.871 925.315 962.245 924.287 962.992 923.531C963.74 922.776 964.756 922.398 966.041 922.398H980.839C981.048 922.73 981.228 923.169 981.377 923.713C981.556 924.257 981.646 924.831 981.646 925.436C981.646 926.584 981.392 927.4 980.884 927.884C980.406 928.368 979.763 928.61 978.956 928.61H969.494V932.826H979.583C979.793 933.159 979.972 933.597 980.122 934.141C980.301 934.655 980.391 935.214 980.391 935.819C980.391 936.967 980.151 937.783 979.673 938.267C979.195 938.751 978.552 938.992 977.745 938.992H969.494V943.753H981.018C981.228 944.086 981.407 944.524 981.556 945.068C981.736 945.612 981.826 946.186 981.826 946.791C981.826 947.94 981.571 948.771 981.063 949.285C980.585 949.768 979.942 950.01 979.135 950.01H966.041C964.756 950.01 963.74 949.632 962.992 948.877C962.245 948.121 961.871 947.093 961.871 945.793V926.615Z" stroke="black" stroke-opacity="0.1" stroke-width="3.02267" mask="url(#path-26-outside-1_860_7531)"/>
<path d="M1013.3 948.922C1012.88 949.345 1012.27 949.662 1011.46 949.874C1010.68 950.116 1009.74 950.237 1008.63 950.237C1007.53 950.237 1006.48 950.071 1005.5 949.738C1004.51 949.406 1003.7 948.605 1003.07 947.335L998.634 938.176C998.186 937.239 997.782 936.363 997.424 935.547C997.065 934.7 996.676 933.733 996.258 932.645L995.989 932.69C996.108 934.322 996.168 935.985 996.168 937.678C996.198 939.37 996.213 941.033 996.213 942.665V949.693C995.884 949.783 995.376 949.874 994.688 949.965C994.031 950.055 993.373 950.101 992.715 950.101C992.058 950.101 991.475 950.055 990.966 949.965C990.458 949.874 990.04 949.693 989.711 949.421C989.382 949.149 989.128 948.786 988.949 948.332C988.769 947.849 988.68 947.229 988.68 946.474V923.804C989.098 923.199 989.741 922.746 990.608 922.443C991.475 922.141 992.401 921.99 993.388 921.99C994.494 921.99 995.54 922.171 996.527 922.534C997.543 922.866 998.35 923.652 998.948 924.892L1003.43 934.05C1003.88 934.987 1004.28 935.879 1004.64 936.725C1005 937.542 1005.39 938.494 1005.81 939.582L1006.03 939.537C1005.91 937.904 1005.84 936.272 1005.81 934.64C1005.78 933.008 1005.76 931.375 1005.76 929.743V922.398C1006.09 922.307 1006.59 922.217 1007.24 922.126C1007.93 922.035 1008.6 921.99 1009.26 921.99C1010.58 921.99 1011.58 922.232 1012.27 922.715C1012.95 923.169 1013.3 924.136 1013.3 925.617V948.922Z" stroke="black" stroke-opacity="0.1" stroke-width="3.02267" mask="url(#path-26-outside-1_860_7531)"/>
<path d="M1029.2 949.693C1028.87 949.783 1028.35 949.874 1027.63 949.965C1026.95 950.055 1026.26 950.101 1025.57 950.101C1024.88 950.101 1024.27 950.04 1023.73 949.919C1023.22 949.829 1022.79 949.647 1022.43 949.375C1022.07 949.103 1021.8 948.725 1021.62 948.242C1021.45 947.758 1021.36 947.123 1021.36 946.338V922.398C1021.68 922.338 1022.21 922.262 1022.93 922.171C1023.64 922.05 1024.33 921.99 1024.99 921.99C1025.68 921.99 1026.27 922.05 1026.78 922.171C1027.32 922.262 1027.77 922.443 1028.13 922.715C1028.49 922.987 1028.75 923.365 1028.93 923.849C1029.11 924.332 1029.2 924.967 1029.2 925.753V949.693Z" stroke="black" stroke-opacity="0.1" stroke-width="3.02267" mask="url(#path-26-outside-1_860_7531)"/>
<path d="M1051.12 927.929C1048.81 927.929 1047.05 928.64 1045.83 930.06C1044.6 931.481 1043.99 933.491 1043.99 936.091C1043.99 938.72 1044.66 940.746 1046 942.166C1047.38 943.587 1049.22 944.297 1051.52 944.297C1052.75 944.297 1053.78 944.131 1054.61 943.798C1055.48 943.466 1056.3 943.088 1057.08 942.665C1057.59 943.088 1057.98 943.602 1058.25 944.207C1058.55 944.781 1058.69 945.461 1058.69 946.247C1058.69 947.486 1058.01 948.544 1056.63 949.421C1055.29 950.267 1053.22 950.69 1050.44 950.69C1048.44 950.69 1046.56 950.403 1044.79 949.829C1043.03 949.254 1041.49 948.378 1040.18 947.199C1038.86 945.99 1037.81 944.479 1037.04 942.665C1036.29 940.821 1035.92 938.63 1035.92 936.091C1035.92 933.733 1036.27 931.662 1036.99 929.879C1037.74 928.065 1038.74 926.539 1040 925.3C1041.28 924.06 1042.78 923.123 1044.48 922.489C1046.18 921.854 1048.01 921.537 1049.95 921.537C1052.7 921.537 1054.82 921.99 1056.32 922.897C1057.84 923.804 1058.61 924.967 1058.61 926.388C1058.61 927.174 1058.41 927.854 1058.02 928.428C1057.63 929.003 1057.19 929.456 1056.68 929.788C1055.9 929.275 1055.06 928.836 1054.17 928.474C1053.3 928.111 1052.28 927.929 1051.12 927.929Z" stroke="black" stroke-opacity="0.1" stroke-width="3.02267" mask="url(#path-26-outside-1_860_7531)"/>
<path d="M1065.12 926.615C1065.12 925.315 1065.49 924.287 1066.24 923.531C1066.99 922.776 1068 922.398 1069.29 922.398H1084.09C1084.3 922.73 1084.48 923.169 1084.63 923.713C1084.81 924.257 1084.9 924.831 1084.9 925.436C1084.9 926.584 1084.64 927.4 1084.13 927.884C1083.65 928.368 1083.01 928.61 1082.2 928.61H1072.74V932.826H1082.83C1083.04 933.159 1083.22 933.597 1083.37 934.141C1083.55 934.655 1083.64 935.214 1083.64 935.819C1083.64 936.967 1083.4 937.783 1082.92 938.267C1082.44 938.751 1081.8 938.992 1080.99 938.992H1072.74V943.753H1084.27C1084.48 944.086 1084.66 944.524 1084.81 945.068C1084.98 945.612 1085.07 946.186 1085.07 946.791C1085.07 947.94 1084.82 948.771 1084.31 949.285C1083.83 949.768 1083.19 950.01 1082.38 950.01H1069.29C1068 950.01 1066.99 949.632 1066.24 948.877C1065.49 948.121 1065.12 947.093 1065.12 945.793V926.615Z" stroke="black" stroke-opacity="0.1" stroke-width="3.02267" mask="url(#path-26-outside-1_860_7531)"/>
<path fill-rule="evenodd" clip-rule="evenodd" d="M924.605 964.232C941.115 964.232 954.499 950.699 954.499 934.005C954.499 917.311 941.115 903.778 924.605 903.778C908.095 903.778 894.71 917.311 894.71 934.005C894.71 950.699 908.095 964.232 924.605 964.232ZM938.082 927.851L945.93 922.616L938.082 917.38V920.254L933.679 920.131C930.412 920.039 927.573 922.381 927.005 925.635C926.348 928.391 925.662 931.158 924.944 933.936C924.107 937.291 923.285 940.389 922.478 943.23H922.209C921.312 940.298 920.445 937.487 919.608 934.797C918.801 932.077 917.994 929.235 917.186 926.273C916.858 925.004 916.334 924.142 915.617 923.689C914.929 923.205 914.033 922.963 912.926 922.963C912.03 922.963 910.804 923.371 910.804 923.371C910.78 923.382 910.657 923.423 910.53 923.466C910.39 923.513 910.246 923.562 910.22 923.573L901.547 927.708C900.86 928.036 900.525 928.833 900.768 929.56L901.422 931.513C901.659 932.22 902.371 932.646 903.098 932.516L910.442 931.207C910.68 931.973 910.925 932.747 911.178 933.528C911.686 935.099 912.209 936.656 912.747 938.198C913.315 939.709 913.853 941.145 914.361 942.505C914.899 943.865 915.408 945.104 915.886 946.223C916.364 947.311 916.768 948.203 917.097 948.898C917.426 949.563 918.038 950.092 918.935 950.485C919.832 950.847 920.908 951.029 922.164 951.029C923.21 951.029 924.167 950.893 925.034 950.621C925.93 950.349 926.588 950.031 927.007 949.669C927.335 949.215 927.769 948.414 928.307 947.266C928.845 946.087 929.413 944.742 930.011 943.23C930.639 941.689 931.252 940.057 931.85 938.334C932.477 936.611 933.03 934.963 933.509 933.392C934.017 931.79 934.42 930.354 934.719 929.084C934.909 928.352 935.004 927.569 935.074 926.997C935.125 926.578 935.162 926.272 935.213 926.183C935.213 926.183 935.467 925.638 935.84 925.638L938.082 925.201V927.851Z" stroke="black" stroke-opacity="0.1" stroke-width="3.02267" mask="url(#path-26-outside-1_860_7531)"/>
<path d="M732.5 1.5H1150C1176.79 1.5 1198.5 23.2142 1198.5 50V264.5H751C740.783 264.5 732.5 256.217 732.5 246V1.5Z" fill="#151515" stroke="#3E3E3E" stroke-width="3"/>
<path d="M776.972 91V51.7273H803.781V59.4361H786.464V67.4901H802.074V75.218H786.464V91H776.972ZM807.98 91V61.5455H817.089V66.9148H817.396C817.933 64.9716 818.808 63.527 820.023 62.581C821.237 61.6222 822.65 61.1428 824.261 61.1428C824.695 61.1428 825.143 61.1747 825.603 61.2386C826.063 61.2898 826.491 61.3729 826.888 61.4879V69.6378C826.44 69.4844 825.852 69.3629 825.124 69.2734C824.408 69.1839 823.768 69.1392 823.206 69.1392C822.094 69.1392 821.09 69.3885 820.195 69.8871C819.313 70.3729 818.616 71.0568 818.105 71.9389C817.607 72.8082 817.357 73.831 817.357 75.0071V91H807.98ZM830.709 91V61.5455H840.086V91H830.709ZM835.407 58.1129C834.09 58.1129 832.959 57.6783 832.013 56.8089C831.067 55.9268 830.594 54.8658 830.594 53.6257C830.594 52.3984 831.067 51.3501 832.013 50.4808C832.959 49.5987 834.09 49.1577 835.407 49.1577C836.736 49.1577 837.868 49.5987 838.801 50.4808C839.747 51.3501 840.22 52.3984 840.22 53.6257C840.22 54.8658 839.747 55.9268 838.801 56.8089C837.868 57.6783 836.736 58.1129 835.407 58.1129ZM859.804 91.5561C856.697 91.5561 854.032 90.9169 851.807 89.6385C849.596 88.3601 847.895 86.5831 846.706 84.3075C845.517 82.0192 844.923 79.3729 844.923 76.3686C844.923 73.3516 845.517 70.7053 846.706 68.4297C847.908 66.1413 849.615 64.358 851.826 63.0795C854.051 61.8011 856.703 61.1619 859.784 61.1619C862.507 61.1619 864.879 61.6541 866.899 62.6385C868.931 63.6229 870.517 65.0163 871.654 66.8189C872.805 68.6087 873.412 70.7116 873.476 73.1278H864.713C864.534 71.6193 864.022 70.4368 863.179 69.5803C862.348 68.7237 861.261 68.2955 859.919 68.2955C858.832 68.2955 857.88 68.6023 857.061 69.2159C856.243 69.8168 855.604 70.7116 855.144 71.9006C854.696 73.0767 854.473 74.5341 854.473 76.2727C854.473 78.0114 854.696 79.4815 855.144 80.6832C855.604 81.8722 856.243 82.7734 857.061 83.3871C857.88 83.9879 858.832 84.2884 859.919 84.2884C860.788 84.2884 861.555 84.103 862.22 83.7322C862.897 83.3615 863.453 82.8182 863.888 82.1023C864.323 81.3736 864.598 80.4915 864.713 79.456H873.476C873.387 81.8849 872.779 84.0071 871.654 85.8224C870.542 87.6378 868.976 89.0504 866.956 90.0604C864.949 91.0575 862.565 91.5561 859.804 91.5561ZM894.901 61.5455V68.4489H876.319V61.5455H894.901ZM880.212 54.4886H889.589V81.7379C889.589 82.3132 889.678 82.7798 889.857 83.1378C890.049 83.483 890.324 83.7322 890.682 83.8857C891.04 84.0263 891.468 84.0966 891.967 84.0966C892.325 84.0966 892.702 84.0646 893.098 84.0007C893.507 83.924 893.814 83.8601 894.019 83.8089L895.438 90.5781C894.99 90.706 894.357 90.8658 893.539 91.0575C892.734 91.2493 891.769 91.3707 890.644 91.4219C888.445 91.5241 886.559 91.2685 884.987 90.6548C883.427 90.0284 882.232 89.0568 881.401 87.7401C880.583 86.4233 880.186 84.7678 880.212 82.7734V54.4886ZM899.685 91V61.5455H909.062V91H899.685ZM904.383 58.1129C903.067 58.1129 901.935 57.6783 900.989 56.8089C900.043 55.9268 899.57 54.8658 899.57 53.6257C899.57 52.3984 900.043 51.3501 900.989 50.4808C901.935 49.5987 903.067 49.1577 904.383 49.1577C905.713 49.1577 906.844 49.5987 907.778 50.4808C908.724 51.3501 909.197 52.3984 909.197 53.6257C909.197 54.8658 908.724 55.9268 907.778 56.8089C906.844 57.6783 905.713 58.1129 904.383 58.1129ZM928.78 91.5561C925.686 91.5561 923.027 90.9233 920.803 89.6577C918.591 88.3793 916.885 86.6023 915.683 84.3267C914.494 82.0384 913.9 79.3857 913.9 76.3686C913.9 73.3388 914.494 70.6861 915.683 68.4105C916.885 66.1222 918.591 64.3452 920.803 63.0795C923.027 61.8011 925.686 61.1619 928.78 61.1619C931.874 61.1619 934.527 61.8011 936.738 63.0795C938.963 64.3452 940.669 66.1222 941.858 68.4105C943.06 70.6861 943.661 73.3388 943.661 76.3686C943.661 79.3857 943.06 82.0384 941.858 84.3267C940.669 86.6023 938.963 88.3793 936.738 89.6577C934.527 90.9233 931.874 91.5561 928.78 91.5561ZM928.838 84.4801C929.963 84.4801 930.915 84.1349 931.695 83.4446C932.475 82.7543 933.069 81.7955 933.478 80.5682C933.9 79.3409 934.111 77.9219 934.111 76.3111C934.111 74.6747 933.9 73.2429 933.478 72.0156C933.069 70.7884 932.475 69.8295 931.695 69.1392C930.915 68.4489 929.963 68.1037 928.838 68.1037C927.674 68.1037 926.69 68.4489 925.885 69.1392C925.092 69.8295 924.485 70.7884 924.063 72.0156C923.654 73.2429 923.449 74.6747 923.449 76.3111C923.449 77.9219 923.654 79.3409 924.063 80.5682C924.485 81.7955 925.092 82.7543 925.885 83.4446C926.69 84.1349 927.674 84.4801 928.838 84.4801ZM957.842 74.2017V91H948.464V61.5455H957.381V66.9531H957.707C958.359 65.1506 959.472 63.7379 961.044 62.7152C962.616 61.6797 964.489 61.1619 966.663 61.1619C968.734 61.1619 970.53 61.6286 972.051 62.5618C973.585 63.4822 974.774 64.7734 975.618 66.4354C976.474 68.0845 976.896 70.0149 976.884 72.2266V91H967.506V74.0675C967.519 72.4311 967.104 71.1527 966.26 70.2322C965.429 69.3118 964.272 68.8516 962.789 68.8516C961.805 68.8516 960.935 69.0689 960.181 69.5036C959.44 69.9254 958.864 70.5327 958.455 71.3253C958.059 72.1179 957.854 73.0767 957.842 74.2017ZM992.066 51.7273V91H982.689V51.7273H992.066ZM1011.8 91.5561C1008.72 91.5561 1006.06 90.9489 1003.83 89.7344C1001.6 88.5071 999.888 86.7621 998.687 84.4993C997.498 82.2237 996.903 79.5199 996.903 76.3878C996.903 73.3452 997.504 70.6861 998.706 68.4105C999.908 66.1222 1001.6 64.3452 1003.79 63.0795C1005.97 61.8011 1008.55 61.1619 1011.52 61.1619C1013.61 61.1619 1015.53 61.4879 1017.27 62.1399C1019.01 62.7919 1020.51 63.7571 1021.77 65.0355C1023.04 66.3139 1024.02 67.8928 1024.73 69.772C1025.43 71.6385 1025.78 73.7798 1025.78 76.196V78.5355H1000.18V73.0895H1017.06C1017.04 72.0923 1016.81 71.2038 1016.35 70.424C1015.89 69.6442 1015.25 69.0369 1014.45 68.6023C1013.66 68.1548 1012.74 67.9311 1011.71 67.9311C1010.66 67.9311 1009.72 68.1676 1008.89 68.6406C1008.06 69.1009 1007.4 69.7337 1006.91 70.5391C1006.43 71.3317 1006.17 72.233 1006.15 73.2429V78.7848C1006.15 79.9865 1006.38 81.0412 1006.86 81.9489C1007.33 82.8437 1008 83.5405 1008.87 84.0391C1009.74 84.5376 1010.77 84.7869 1011.98 84.7869C1012.81 84.7869 1013.56 84.6719 1014.24 84.4418C1014.92 84.2116 1015.5 83.8729 1015.98 83.4254C1016.47 82.978 1016.83 82.4283 1017.08 81.7763L1025.69 82.0256C1025.33 83.956 1024.54 85.6371 1023.33 87.0689C1022.13 88.4879 1020.55 89.5937 1018.59 90.3864C1016.64 91.1662 1014.37 91.5561 1011.8 91.5561ZM1056.29 70.5391L1047.68 70.7692C1047.59 70.1555 1047.34 69.6122 1046.95 69.1392C1046.55 68.6534 1046.03 68.2763 1045.4 68.0078C1044.77 67.7266 1044.04 67.5859 1043.21 67.5859C1042.12 67.5859 1041.2 67.8033 1040.43 68.2379C1039.67 68.6726 1039.3 69.2607 1039.32 70.0021C1039.3 70.5774 1039.53 71.076 1040.01 71.4979C1040.49 71.9197 1041.36 72.2585 1042.6 72.5142L1048.27 73.5881C1051.21 74.1506 1053.4 75.0838 1054.83 76.3878C1056.27 77.6918 1057 79.4176 1057.02 81.5653C1057 83.5852 1056.4 85.343 1055.21 86.8388C1054.04 88.3345 1052.43 89.4979 1050.38 90.3288C1048.34 91.147 1046 91.5561 1043.36 91.5561C1039.16 91.5561 1035.84 90.6932 1033.41 88.9673C1030.99 87.2287 1029.61 84.902 1029.27 81.9872L1038.53 81.7571C1038.73 82.831 1039.27 83.6491 1040.12 84.2116C1040.98 84.7741 1042.07 85.0554 1043.4 85.0554C1044.6 85.0554 1045.58 84.8317 1046.33 84.3842C1047.09 83.9368 1047.47 83.3423 1047.49 82.6009C1047.47 81.9361 1047.18 81.4055 1046.6 81.0092C1046.03 80.6001 1045.13 80.2805 1043.9 80.0504L1038.76 79.0724C1035.81 78.5355 1033.61 77.5447 1032.16 76.1001C1030.72 74.6428 1030 72.7891 1030.02 70.5391C1030 68.5703 1030.53 66.8892 1031.59 65.4957C1032.65 64.0895 1034.16 63.0156 1036.11 62.2741C1038.07 61.5327 1040.38 61.1619 1043.04 61.1619C1047.03 61.1619 1050.17 61.9993 1052.47 63.674C1054.77 65.3359 1056.04 67.6243 1056.29 70.5391ZM1087.35 70.5391L1078.74 70.7692C1078.65 70.1555 1078.41 69.6122 1078.01 69.1392C1077.61 68.6534 1077.09 68.2763 1076.46 68.0078C1075.83 67.7266 1075.1 67.5859 1074.27 67.5859C1073.18 67.5859 1072.26 67.8033 1071.49 68.2379C1070.73 68.6726 1070.36 69.2607 1070.38 70.0021C1070.36 70.5774 1070.59 71.076 1071.07 71.4979C1071.55 71.9197 1072.42 72.2585 1073.66 72.5142L1079.33 73.5881C1082.27 74.1506 1084.46 75.0838 1085.89 76.3878C1087.33 77.6918 1088.06 79.4176 1088.08 81.5653C1088.06 83.5852 1087.46 85.343 1086.27 86.8388C1085.1 88.3345 1083.49 89.4979 1081.44 90.3288C1079.4 91.147 1077.06 91.5561 1074.42 91.5561C1070.22 91.5561 1066.9 90.6932 1064.47 88.9673C1062.05 87.2287 1060.67 84.902 1060.33 81.9872L1069.59 81.7571C1069.8 82.831 1070.33 83.6491 1071.18 84.2116C1072.04 84.7741 1073.13 85.0554 1074.46 85.0554C1075.66 85.0554 1076.64 84.8317 1077.4 84.3842C1078.15 83.9368 1078.53 83.3423 1078.55 82.6009C1078.53 81.9361 1078.24 81.4055 1077.66 81.0092C1077.09 80.6001 1076.19 80.2805 1074.96 80.0504L1069.82 79.0724C1066.87 78.5355 1064.67 77.5447 1063.22 76.1001C1061.78 74.6428 1061.06 72.7891 1061.08 70.5391C1061.06 68.5703 1061.59 66.8892 1062.65 65.4957C1063.71 64.0895 1065.22 63.0156 1067.17 62.2741C1069.13 61.5327 1071.44 61.1619 1074.1 61.1619C1078.09 61.1619 1081.23 61.9993 1083.53 63.674C1085.83 65.3359 1087.1 67.6243 1087.35 70.5391ZM793.713 191.545V198.449H774.767V191.545H793.713ZM778.717 221V190.05C778.717 187.774 779.146 185.888 780.002 184.393C780.859 182.884 782.048 181.759 783.569 181.018C785.09 180.263 786.848 179.886 788.842 179.886C790.146 179.886 791.374 179.989 792.524 180.193C793.688 180.385 794.55 180.558 795.113 180.711L793.617 187.576C793.272 187.461 792.85 187.365 792.352 187.288C791.866 187.212 791.406 187.173 790.971 187.173C789.871 187.173 789.117 187.416 788.708 187.902C788.299 188.388 788.094 189.053 788.094 189.896V221H778.717ZM811.024 221.556C807.931 221.556 805.271 220.923 803.047 219.658C800.835 218.379 799.129 216.602 797.927 214.327C796.738 212.038 796.144 209.386 796.144 206.369C796.144 203.339 796.738 200.686 797.927 198.411C799.129 196.122 800.835 194.345 803.047 193.08C805.271 191.801 807.931 191.162 811.024 191.162C814.118 191.162 816.771 191.801 818.982 193.08C821.207 194.345 822.914 196.122 824.102 198.411C825.304 200.686 825.905 203.339 825.905 206.369C825.905 209.386 825.304 212.038 824.102 214.327C822.914 216.602 821.207 218.379 818.982 219.658C816.771 220.923 814.118 221.556 811.024 221.556ZM811.082 214.48C812.207 214.48 813.159 214.135 813.939 213.445C814.719 212.754 815.313 211.795 815.722 210.568C816.144 209.341 816.355 207.922 816.355 206.311C816.355 204.675 816.144 203.243 815.722 202.016C815.313 200.788 814.719 199.83 813.939 199.139C813.159 198.449 812.207 198.104 811.082 198.104C809.919 198.104 808.934 198.449 808.129 199.139C807.336 199.83 806.729 200.788 806.307 202.016C805.898 203.243 805.693 204.675 805.693 206.311C805.693 207.922 805.898 209.341 806.307 210.568C806.729 211.795 807.336 212.754 808.129 213.445C808.934 214.135 809.919 214.48 811.082 214.48ZM830.709 221V191.545H839.817V196.915H840.124C840.661 194.972 841.537 193.527 842.751 192.581C843.966 191.622 845.378 191.143 846.989 191.143C847.424 191.143 847.871 191.175 848.331 191.239C848.792 191.29 849.22 191.373 849.616 191.488V199.638C849.169 199.484 848.581 199.363 847.852 199.273C847.136 199.184 846.497 199.139 845.934 199.139C844.822 199.139 843.819 199.388 842.924 199.887C842.042 200.373 841.345 201.057 840.834 201.939C840.335 202.808 840.086 203.831 840.086 205.007V221H830.709ZM875.797 221.422C873.623 221.422 871.648 220.859 869.871 219.734C868.094 218.609 866.675 216.922 865.614 214.672C864.553 212.422 864.022 209.629 864.022 206.292C864.022 202.827 864.572 199.977 865.672 197.739C866.771 195.502 868.209 193.847 869.986 192.773C871.776 191.699 873.7 191.162 875.758 191.162C877.305 191.162 878.628 191.43 879.728 191.967C880.827 192.491 881.735 193.169 882.451 194C883.167 194.831 883.71 195.694 884.081 196.589H884.272V181.727H893.65V221H884.368V216.225H884.081C883.684 217.133 883.122 217.983 882.393 218.776C881.664 219.568 880.75 220.207 879.651 220.693C878.564 221.179 877.279 221.422 875.797 221.422ZM879.056 214.116C880.194 214.116 881.166 213.796 881.971 213.157C882.777 212.505 883.397 211.591 883.831 210.415C884.266 209.239 884.483 207.858 884.483 206.273C884.483 204.662 884.266 203.275 883.831 202.112C883.409 200.948 882.789 200.053 881.971 199.427C881.166 198.8 880.194 198.487 879.056 198.487C877.893 198.487 876.909 198.807 876.103 199.446C875.298 200.085 874.684 200.987 874.262 202.15C873.853 203.313 873.649 204.687 873.649 206.273C873.649 207.858 873.86 209.239 874.282 210.415C874.703 211.591 875.311 212.505 876.103 213.157C876.909 213.796 877.893 214.116 879.056 214.116ZM913.348 221.556C910.267 221.556 907.608 220.949 905.371 219.734C903.146 218.507 901.433 216.762 900.232 214.499C899.043 212.224 898.448 209.52 898.448 206.388C898.448 203.345 899.049 200.686 900.251 198.411C901.453 196.122 903.146 194.345 905.333 193.08C907.519 191.801 910.095 191.162 913.061 191.162C915.157 191.162 917.075 191.488 918.813 192.14C920.552 192.792 922.054 193.757 923.32 195.036C924.585 196.314 925.57 197.893 926.273 199.772C926.976 201.638 927.328 203.78 927.328 206.196V208.536H901.727V203.089H918.602C918.59 202.092 918.353 201.204 917.893 200.424C917.433 199.644 916.8 199.037 915.994 198.602C915.202 198.155 914.288 197.931 913.252 197.931C912.204 197.931 911.264 198.168 910.433 198.641C909.602 199.101 908.944 199.734 908.458 200.539C907.972 201.332 907.717 202.233 907.691 203.243V208.785C907.691 209.987 907.928 211.041 908.401 211.949C908.874 212.844 909.545 213.54 910.414 214.039C911.284 214.538 912.319 214.787 913.521 214.787C914.352 214.787 915.106 214.672 915.784 214.442C916.461 214.212 917.043 213.873 917.529 213.425C918.014 212.978 918.379 212.428 918.622 211.776L927.232 212.026C926.874 213.956 926.088 215.637 924.873 217.069C923.671 218.488 922.093 219.594 920.137 220.386C918.181 221.166 915.918 221.556 913.348 221.556ZM959.898 191.545L949.792 221H939.054L928.967 191.545H938.843L944.27 211.834H944.577L950.023 191.545H959.898ZM976.313 221.556C973.232 221.556 970.573 220.949 968.336 219.734C966.111 218.507 964.398 216.762 963.197 214.499C962.008 212.224 961.413 209.52 961.413 206.388C961.413 203.345 962.014 200.686 963.216 198.411C964.417 196.122 966.111 194.345 968.297 193.08C970.483 191.801 973.059 191.162 976.025 191.162C978.122 191.162 980.04 191.488 981.778 192.14C983.517 192.792 985.019 193.757 986.285 195.036C987.55 196.314 988.535 197.893 989.238 199.772C989.941 201.638 990.292 203.78 990.292 206.196V208.536H964.692V203.089H981.567C981.555 202.092 981.318 201.204 980.858 200.424C980.398 199.644 979.765 199.037 978.959 198.602C978.167 198.155 977.253 197.931 976.217 197.931C975.169 197.931 974.229 198.168 973.398 198.641C972.567 199.101 971.909 199.734 971.423 200.539C970.937 201.332 970.682 202.233 970.656 203.243V208.785C970.656 209.987 970.893 211.041 971.366 211.949C971.839 212.844 972.51 213.54 973.379 214.039C974.248 214.538 975.284 214.787 976.486 214.787C977.317 214.787 978.071 214.672 978.748 214.442C979.426 214.212 980.008 213.873 980.493 213.425C980.979 212.978 981.344 212.428 981.586 211.776L990.197 212.026C989.839 213.956 989.052 215.637 987.838 217.069C986.636 218.488 985.057 219.594 983.101 220.386C981.145 221.166 978.883 221.556 976.313 221.556ZM1004.46 181.727V221H995.082V181.727H1004.46ZM1024.18 221.556C1021.08 221.556 1018.42 220.923 1016.2 219.658C1013.99 218.379 1012.28 216.602 1011.08 214.327C1009.89 212.038 1009.3 209.386 1009.3 206.369C1009.3 203.339 1009.89 200.686 1011.08 198.411C1012.28 196.122 1013.99 194.345 1016.2 193.08C1018.42 191.801 1021.08 191.162 1024.18 191.162C1027.27 191.162 1029.92 191.801 1032.13 193.08C1034.36 194.345 1036.07 196.122 1037.25 198.411C1038.46 200.686 1039.06 203.339 1039.06 206.369C1039.06 209.386 1038.46 212.038 1037.25 214.327C1036.07 216.602 1034.36 218.379 1032.13 219.658C1029.92 220.923 1027.27 221.556 1024.18 221.556ZM1024.23 214.48C1025.36 214.48 1026.31 214.135 1027.09 213.445C1027.87 212.754 1028.47 211.795 1028.87 210.568C1029.3 209.341 1029.51 207.922 1029.51 206.311C1029.51 204.675 1029.3 203.243 1028.87 202.016C1028.47 200.788 1027.87 199.83 1027.09 199.139C1026.31 198.449 1025.36 198.104 1024.23 198.104C1023.07 198.104 1022.09 198.449 1021.28 199.139C1020.49 199.83 1019.88 200.788 1019.46 202.016C1019.05 203.243 1018.85 204.675 1018.85 206.311C1018.85 207.922 1019.05 209.341 1019.46 210.568C1019.88 211.795 1020.49 212.754 1021.28 213.445C1022.09 214.135 1023.07 214.48 1024.23 214.48ZM1043.86 232.045V191.545H1053.14V196.589H1053.43C1053.81 195.694 1054.36 194.831 1055.06 194C1055.78 193.169 1056.68 192.491 1057.78 191.967C1058.9 191.43 1060.22 191.162 1061.77 191.162C1063.82 191.162 1065.73 191.699 1067.51 192.773C1069.29 193.847 1070.74 195.502 1071.84 197.739C1072.94 199.977 1073.49 202.827 1073.49 206.292C1073.49 209.629 1072.96 212.422 1071.9 214.672C1070.85 216.922 1069.43 218.609 1067.64 219.734C1065.86 220.859 1063.89 221.422 1061.71 221.422C1060.23 221.422 1058.95 221.179 1057.86 220.693C1056.77 220.207 1055.86 219.568 1055.12 218.776C1054.39 217.983 1053.83 217.133 1053.43 216.225H1053.24V232.045H1043.86ZM1053.05 206.273C1053.05 207.858 1053.26 209.239 1053.68 210.415C1054.11 211.591 1054.73 212.505 1055.54 213.157C1056.36 213.796 1057.34 214.116 1058.47 214.116C1059.62 214.116 1060.6 213.796 1061.41 213.157C1062.21 212.505 1062.82 211.591 1063.23 210.415C1063.65 209.239 1063.86 207.858 1063.86 206.273C1063.86 204.687 1063.65 203.313 1063.23 202.15C1062.82 200.987 1062.21 200.085 1061.41 199.446C1060.61 198.807 1059.64 198.487 1058.47 198.487C1057.32 198.487 1056.34 198.8 1055.54 199.427C1054.73 200.053 1054.11 200.948 1053.68 202.112C1053.26 203.275 1053.05 204.662 1053.05 206.273ZM1092.17 221.556C1089.09 221.556 1086.43 220.949 1084.19 219.734C1081.97 218.507 1080.26 216.762 1079.05 214.499C1077.87 212.224 1077.27 209.52 1077.27 206.388C1077.27 203.345 1077.87 200.686 1079.07 198.411C1080.27 196.122 1081.97 194.345 1084.15 193.08C1086.34 191.801 1088.92 191.162 1091.88 191.162C1093.98 191.162 1095.9 191.488 1097.64 192.14C1099.37 192.792 1100.88 193.757 1102.14 195.036C1103.41 196.314 1104.39 197.893 1105.1 199.772C1105.8 201.638 1106.15 203.78 1106.15 206.196V208.536H1080.55V203.089H1097.42C1097.41 202.092 1097.18 201.204 1096.72 200.424C1096.25 199.644 1095.62 199.037 1094.82 198.602C1094.02 198.155 1093.11 197.931 1092.07 197.931C1091.03 197.931 1090.09 198.168 1089.26 198.641C1088.42 199.101 1087.77 199.734 1087.28 200.539C1086.79 201.332 1086.54 202.233 1086.51 203.243V208.785C1086.51 209.987 1086.75 211.041 1087.22 211.949C1087.7 212.844 1088.37 213.54 1089.24 214.039C1090.11 214.538 1091.14 214.787 1092.34 214.787C1093.17 214.787 1093.93 214.672 1094.61 214.442C1095.28 214.212 1095.87 213.873 1096.35 213.425C1096.84 212.978 1097.2 212.428 1097.44 211.776L1106.05 212.026C1105.7 213.956 1104.91 215.637 1103.7 217.069C1102.49 218.488 1100.91 219.594 1098.96 220.386C1097 221.166 1094.74 221.556 1092.17 221.556ZM1110.94 221V191.545H1120.05V196.915H1120.35C1120.89 194.972 1121.77 193.527 1122.98 192.581C1124.2 191.622 1125.61 191.143 1127.22 191.143C1127.65 191.143 1128.1 191.175 1128.56 191.239C1129.02 191.29 1129.45 191.373 1129.85 191.488V199.638C1129.4 199.484 1128.81 199.363 1128.08 199.273C1127.37 199.184 1126.73 199.139 1126.16 199.139C1125.05 199.139 1124.05 199.388 1123.15 199.887C1122.27 200.373 1121.58 201.057 1121.06 201.939C1120.57 202.808 1120.32 203.831 1120.32 205.007V221H1110.94ZM1159.38 200.539L1150.77 200.769C1150.68 200.156 1150.44 199.612 1150.04 199.139C1149.65 198.653 1149.13 198.276 1148.49 198.008C1147.86 197.727 1147.14 197.586 1146.3 197.586C1145.22 197.586 1144.29 197.803 1143.52 198.238C1142.77 198.673 1142.4 199.261 1142.41 200.002C1142.4 200.577 1142.63 201.076 1143.1 201.498C1143.59 201.92 1144.45 202.259 1145.69 202.514L1151.37 203.588C1154.31 204.151 1156.49 205.084 1157.93 206.388C1159.37 207.692 1160.1 209.418 1160.11 211.565C1160.1 213.585 1159.5 215.343 1158.31 216.839C1157.13 218.335 1155.52 219.498 1153.48 220.329C1151.43 221.147 1149.09 221.556 1146.46 221.556C1142.25 221.556 1138.93 220.693 1136.51 218.967C1134.09 217.229 1132.71 214.902 1132.36 211.987L1141.63 211.757C1141.83 212.831 1142.36 213.649 1143.22 214.212C1144.07 214.774 1145.17 215.055 1146.5 215.055C1147.7 215.055 1148.68 214.832 1149.43 214.384C1150.18 213.937 1150.57 213.342 1150.58 212.601C1150.57 211.936 1150.27 211.406 1149.7 211.009C1149.12 210.6 1148.22 210.281 1147 210.05L1141.86 209.072C1138.9 208.536 1136.7 207.545 1135.26 206.1C1133.81 204.643 1133.1 202.789 1133.11 200.539C1133.1 198.57 1133.62 196.889 1134.68 195.496C1135.75 194.089 1137.25 193.016 1139.21 192.274C1141.17 191.533 1143.47 191.162 1146.13 191.162C1150.12 191.162 1153.27 191.999 1155.57 193.674C1157.87 195.336 1159.14 197.624 1159.38 200.539Z" fill="white"/>
<path d="M793.713 126.545V133.449H774.767V126.545H793.713ZM778.717 156V125.05C778.717 122.774 779.146 120.888 780.002 119.393C780.859 117.884 782.048 116.759 783.569 116.018C785.09 115.263 786.848 114.886 788.842 114.886C790.146 114.886 791.374 114.989 792.524 115.193C793.688 115.385 794.55 115.558 795.113 115.711L793.617 122.576C793.272 122.461 792.85 122.365 792.352 122.288C791.866 122.212 791.406 122.173 790.971 122.173C789.871 122.173 789.117 122.416 788.708 122.902C788.299 123.388 788.094 124.053 788.094 124.896V156H778.717ZM798.224 156V126.545H807.601V156H798.224ZM802.922 123.113C801.606 123.113 800.474 122.678 799.528 121.809C798.582 120.927 798.109 119.866 798.109 118.626C798.109 117.398 798.582 116.35 799.528 115.481C800.474 114.599 801.606 114.158 802.922 114.158C804.252 114.158 805.383 114.599 806.317 115.481C807.263 116.35 807.736 117.398 807.736 118.626C807.736 119.866 807.263 120.927 806.317 121.809C805.383 122.678 804.252 123.113 802.922 123.113ZM822.947 139.202V156H813.57V126.545H822.487V131.953H822.813C823.465 130.151 824.577 128.738 826.15 127.715C827.722 126.68 829.595 126.162 831.768 126.162C833.839 126.162 835.635 126.629 837.157 127.562C838.691 128.482 839.88 129.773 840.723 131.435C841.58 133.085 842.002 135.015 841.989 137.227V156H832.612V139.067C832.625 137.431 832.209 136.153 831.365 135.232C830.534 134.312 829.377 133.852 827.895 133.852C826.91 133.852 826.041 134.069 825.287 134.504C824.545 134.925 823.97 135.533 823.561 136.325C823.164 137.118 822.96 138.077 822.947 139.202ZM856.098 156.499C854.219 156.499 852.55 156.185 851.093 155.559C849.648 154.92 848.504 153.961 847.66 152.683C846.829 151.391 846.414 149.774 846.414 147.831C846.414 146.195 846.702 144.814 847.277 143.689C847.852 142.564 848.645 141.65 849.655 140.947C850.665 140.244 851.828 139.713 853.145 139.355C854.461 138.984 855.868 138.735 857.363 138.607C859.038 138.454 860.387 138.294 861.41 138.128C862.432 137.949 863.174 137.7 863.634 137.38C864.107 137.048 864.344 136.581 864.344 135.98V135.884C864.344 134.9 864.005 134.139 863.327 133.602C862.65 133.065 861.736 132.797 860.585 132.797C859.345 132.797 858.348 133.065 857.594 133.602C856.839 134.139 856.36 134.881 856.155 135.827L847.507 135.52C847.763 133.73 848.421 132.132 849.482 130.726C850.556 129.307 852.026 128.195 853.893 127.389C855.772 126.571 858.028 126.162 860.662 126.162C862.541 126.162 864.273 126.386 865.858 126.833C867.444 127.268 868.824 127.907 870.001 128.751C871.177 129.582 872.084 130.604 872.724 131.819C873.376 133.033 873.702 134.42 873.702 135.98V156H864.881V151.896H864.65C864.126 152.893 863.455 153.737 862.637 154.428C861.831 155.118 860.879 155.636 859.78 155.981C858.693 156.326 857.466 156.499 856.098 156.499ZM858.993 150.362C860.003 150.362 860.911 150.158 861.716 149.749C862.535 149.339 863.187 148.777 863.672 148.061C864.158 147.332 864.401 146.489 864.401 145.53V142.73C864.133 142.871 863.807 142.999 863.423 143.114C863.052 143.229 862.643 143.337 862.196 143.44C861.748 143.542 861.288 143.631 860.815 143.708C860.342 143.785 859.888 143.855 859.454 143.919C858.572 144.06 857.817 144.277 857.191 144.571C856.577 144.865 856.104 145.249 855.772 145.722C855.452 146.182 855.292 146.732 855.292 147.371C855.292 148.342 855.638 149.084 856.328 149.595C857.031 150.107 857.92 150.362 858.993 150.362ZM888.812 139.202V156H879.435V126.545H888.352V131.953H888.678C889.33 130.151 890.442 128.738 892.015 127.715C893.587 126.68 895.46 126.162 897.633 126.162C899.704 126.162 901.501 126.629 903.022 127.562C904.556 128.482 905.745 129.773 906.589 131.435C907.445 133.085 907.867 135.015 907.854 137.227V156H898.477V139.067C898.49 137.431 898.074 136.153 897.231 135.232C896.4 134.312 895.243 133.852 893.76 133.852C892.775 133.852 891.906 134.069 891.152 134.504C890.41 134.925 889.835 135.533 889.426 136.325C889.03 137.118 888.825 138.077 888.812 139.202ZM927.409 156.556C924.303 156.556 921.637 155.917 919.413 154.638C917.201 153.36 915.501 151.583 914.312 149.308C913.123 147.019 912.528 144.373 912.528 141.369C912.528 138.352 913.123 135.705 914.312 133.43C915.513 131.141 917.22 129.358 919.432 128.08C921.656 126.801 924.309 126.162 927.39 126.162C930.113 126.162 932.484 126.654 934.504 127.638C936.537 128.623 938.122 130.016 939.26 131.819C940.411 133.609 941.018 135.712 941.082 138.128H932.318C932.139 136.619 931.628 135.437 930.784 134.58C929.953 133.724 928.866 133.295 927.524 133.295C926.438 133.295 925.485 133.602 924.667 134.216C923.849 134.817 923.21 135.712 922.749 136.901C922.302 138.077 922.078 139.534 922.078 141.273C922.078 143.011 922.302 144.482 922.749 145.683C923.21 146.872 923.849 147.773 924.667 148.387C925.485 148.988 926.438 149.288 927.524 149.288C928.393 149.288 929.161 149.103 929.825 148.732C930.503 148.362 931.059 147.818 931.494 147.102C931.928 146.374 932.203 145.491 932.318 144.456H941.082C940.992 146.885 940.385 149.007 939.26 150.822C938.148 152.638 936.582 154.05 934.562 155.06C932.555 156.058 930.17 156.556 927.409 156.556ZM945.881 156V126.545H955.258V156H945.881ZM950.579 123.113C949.262 123.113 948.131 122.678 947.184 121.809C946.238 120.927 945.765 119.866 945.765 118.626C945.765 117.398 946.238 116.35 947.184 115.481C948.131 114.599 949.262 114.158 950.579 114.158C951.908 114.158 953.04 114.599 953.973 115.481C954.919 116.35 955.392 117.398 955.392 118.626C955.392 119.866 954.919 120.927 953.973 121.809C953.04 122.678 951.908 123.113 950.579 123.113ZM969.529 156.499C967.65 156.499 965.982 156.185 964.525 155.559C963.08 154.92 961.936 153.961 961.092 152.683C960.261 151.391 959.846 149.774 959.846 147.831C959.846 146.195 960.133 144.814 960.708 143.689C961.284 142.564 962.076 141.65 963.086 140.947C964.096 140.244 965.26 139.713 966.576 139.355C967.893 138.984 969.299 138.735 970.795 138.607C972.47 138.454 973.819 138.294 974.841 138.128C975.864 137.949 976.605 137.7 977.066 137.38C977.539 137.048 977.775 136.581 977.775 135.98V135.884C977.775 134.9 977.436 134.139 976.759 133.602C976.081 133.065 975.167 132.797 974.017 132.797C972.777 132.797 971.779 133.065 971.025 133.602C970.271 134.139 969.792 134.881 969.587 135.827L960.939 135.52C961.194 133.73 961.853 132.132 962.914 130.726C963.988 129.307 965.458 128.195 967.324 127.389C969.203 126.571 971.46 126.162 974.093 126.162C975.973 126.162 977.705 126.386 979.29 126.833C980.875 127.268 982.256 127.907 983.432 128.751C984.608 129.582 985.516 130.604 986.155 131.819C986.807 133.033 987.133 134.42 987.133 135.98V156H978.312V151.896H978.082C977.558 152.893 976.887 153.737 976.069 154.428C975.263 155.118 974.311 155.636 973.211 155.981C972.125 156.326 970.897 156.499 969.529 156.499ZM972.425 150.362C973.435 150.362 974.343 150.158 975.148 149.749C975.966 149.339 976.618 148.777 977.104 148.061C977.59 147.332 977.833 146.489 977.833 145.53V142.73C977.564 142.871 977.238 142.999 976.855 143.114C976.484 143.229 976.075 143.337 975.627 143.44C975.18 143.542 974.72 143.631 974.247 143.708C973.774 143.785 973.32 143.855 972.885 143.919C972.003 144.06 971.249 144.277 970.623 144.571C970.009 144.865 969.536 145.249 969.203 145.722C968.884 146.182 968.724 146.732 968.724 147.371C968.724 148.342 969.069 149.084 969.76 149.595C970.463 150.107 971.351 150.362 972.425 150.362ZM1002.24 116.727V156H992.867V116.727H1002.24ZM1030.57 156.422C1028.4 156.422 1026.42 155.859 1024.65 154.734C1022.87 153.609 1021.45 151.922 1020.39 149.672C1019.33 147.422 1018.8 144.629 1018.8 141.292C1018.8 137.827 1019.35 134.977 1020.45 132.739C1021.55 130.502 1022.98 128.847 1024.76 127.773C1026.55 126.699 1028.48 126.162 1030.53 126.162C1032.08 126.162 1033.4 126.43 1034.5 126.967C1035.6 127.491 1036.51 128.169 1037.23 129C1037.94 129.831 1038.49 130.694 1038.86 131.589H1039.05V116.727H1048.42V156H1039.14V151.225H1038.86C1038.46 152.133 1037.9 152.983 1037.17 153.776C1036.44 154.568 1035.53 155.207 1034.43 155.693C1033.34 156.179 1032.05 156.422 1030.57 156.422ZM1033.83 149.116C1034.97 149.116 1035.94 148.796 1036.75 148.157C1037.55 147.505 1038.17 146.591 1038.61 145.415C1039.04 144.239 1039.26 142.858 1039.26 141.273C1039.26 139.662 1039.04 138.275 1038.61 137.112C1038.18 135.948 1037.56 135.053 1036.75 134.427C1035.94 133.8 1034.97 133.487 1033.83 133.487C1032.67 133.487 1031.68 133.807 1030.88 134.446C1030.07 135.085 1029.46 135.987 1029.04 137.15C1028.63 138.313 1028.42 139.687 1028.42 141.273C1028.42 142.858 1028.64 144.239 1029.06 145.415C1029.48 146.591 1030.09 147.505 1030.88 148.157C1031.68 148.796 1032.67 149.116 1033.83 149.116ZM1062.66 156.499C1060.78 156.499 1059.11 156.185 1057.65 155.559C1056.21 154.92 1055.06 153.961 1054.22 152.683C1053.39 151.391 1052.97 149.774 1052.97 147.831C1052.97 146.195 1053.26 144.814 1053.84 143.689C1054.41 142.564 1055.21 141.65 1056.22 140.947C1057.23 140.244 1058.39 139.713 1059.71 139.355C1061.02 138.984 1062.43 138.735 1063.92 138.607C1065.6 138.454 1066.95 138.294 1067.97 138.128C1068.99 137.949 1069.73 137.7 1070.19 137.38C1070.67 137.048 1070.9 136.581 1070.9 135.98V135.884C1070.9 134.9 1070.57 134.139 1069.89 133.602C1069.21 133.065 1068.3 132.797 1067.15 132.797C1065.91 132.797 1064.91 133.065 1064.15 133.602C1063.4 134.139 1062.92 134.881 1062.72 135.827L1054.07 135.52C1054.32 133.73 1054.98 132.132 1056.04 130.726C1057.12 129.307 1058.59 128.195 1060.45 127.389C1062.33 126.571 1064.59 126.162 1067.22 126.162C1069.1 126.162 1070.83 126.386 1072.42 126.833C1074 127.268 1075.38 127.907 1076.56 128.751C1077.74 129.582 1078.64 130.604 1079.28 131.819C1079.94 133.033 1080.26 134.42 1080.26 135.98V156H1071.44V151.896H1071.21C1070.69 152.893 1070.02 153.737 1069.2 154.428C1068.39 155.118 1067.44 155.636 1066.34 155.981C1065.25 156.326 1064.03 156.499 1062.66 156.499ZM1065.55 150.362C1066.56 150.362 1067.47 150.158 1068.28 149.749C1069.1 149.339 1069.75 148.777 1070.23 148.061C1070.72 147.332 1070.96 146.489 1070.96 145.53V142.73C1070.69 142.871 1070.37 142.999 1069.98 143.114C1069.61 143.229 1069.2 143.337 1068.76 143.44C1068.31 143.542 1067.85 143.631 1067.38 143.708C1066.9 143.785 1066.45 143.855 1066.01 143.919C1065.13 144.06 1064.38 144.277 1063.75 144.571C1063.14 144.865 1062.66 145.249 1062.33 145.722C1062.01 146.182 1061.85 146.732 1061.85 147.371C1061.85 148.342 1062.2 149.084 1062.89 149.595C1063.59 150.107 1064.48 150.362 1065.55 150.362ZM1102.62 126.545V133.449H1084.04V126.545H1102.62ZM1087.93 119.489H1097.31V146.738C1097.31 147.313 1097.4 147.78 1097.58 148.138C1097.77 148.483 1098.04 148.732 1098.4 148.886C1098.76 149.026 1099.19 149.097 1099.69 149.097C1100.05 149.097 1100.42 149.065 1100.82 149.001C1101.23 148.924 1101.53 148.86 1101.74 148.809L1103.16 155.578C1102.71 155.706 1102.08 155.866 1101.26 156.058C1100.45 156.249 1099.49 156.371 1098.36 156.422C1096.17 156.524 1094.28 156.268 1092.71 155.655C1091.15 155.028 1089.95 154.057 1089.12 152.74C1088.3 151.423 1087.91 149.768 1087.93 147.773V119.489ZM1115.71 156.499C1113.83 156.499 1112.16 156.185 1110.7 155.559C1109.26 154.92 1108.12 153.961 1107.27 152.683C1106.44 151.391 1106.03 149.774 1106.03 147.831C1106.03 146.195 1106.31 144.814 1106.89 143.689C1107.46 142.564 1108.26 141.65 1109.27 140.947C1110.28 140.244 1111.44 139.713 1112.76 139.355C1114.07 138.984 1115.48 138.735 1116.97 138.607C1118.65 138.454 1120 138.294 1121.02 138.128C1122.04 137.949 1122.79 137.7 1123.25 137.38C1123.72 137.048 1123.95 136.581 1123.95 135.98V135.884C1123.95 134.9 1123.62 134.139 1122.94 133.602C1122.26 133.065 1121.35 132.797 1120.2 132.797C1118.96 132.797 1117.96 133.065 1117.2 133.602C1116.45 134.139 1115.97 134.881 1115.77 135.827L1107.12 135.52C1107.37 133.73 1108.03 132.132 1109.09 130.726C1110.17 129.307 1111.64 128.195 1113.5 127.389C1115.38 126.571 1117.64 126.162 1120.27 126.162C1122.15 126.162 1123.88 126.386 1125.47 126.833C1127.06 127.268 1128.44 127.907 1129.61 128.751C1130.79 129.582 1131.7 130.604 1132.33 131.819C1132.99 133.033 1133.31 134.42 1133.31 135.98V156H1124.49V151.896H1124.26C1123.74 152.893 1123.07 153.737 1122.25 154.428C1121.44 155.118 1120.49 155.636 1119.39 155.981C1118.3 156.326 1117.08 156.499 1115.71 156.499ZM1118.6 150.362C1119.61 150.362 1120.52 150.158 1121.33 149.749C1122.15 149.339 1122.8 148.777 1123.28 148.061C1123.77 147.332 1124.01 146.489 1124.01 145.53V142.73C1123.74 142.871 1123.42 142.999 1123.03 143.114C1122.66 143.229 1122.25 143.337 1121.81 143.44C1121.36 143.542 1120.9 143.631 1120.43 143.708C1119.95 143.785 1119.5 143.855 1119.06 143.919C1118.18 144.06 1117.43 144.277 1116.8 144.571C1116.19 144.865 1115.72 145.249 1115.38 145.722C1115.06 146.182 1114.9 146.732 1114.9 147.371C1114.9 148.342 1115.25 149.084 1115.94 149.595C1116.64 150.107 1117.53 150.362 1118.6 150.362Z" fill="url(#paint16_linear_860_7531)"/>
</g>
<defs>
<filter id="filter0_d_860_7531" x="111.839" y="661.964" width="1057.93" height="259.95" filterUnits="userSpaceOnUse" color-interpolation-filters="sRGB">
<feFlood flood-opacity="0" result="BackgroundImageFix"/>
<feColorMatrix in="SourceAlpha" type="matrix" values="0 0 0 0 0 0 0 0 0 0 0 0 0 0 0 0 0 0 127 0" result="hardAlpha"/>
<feOffset dy="12.0907"/>
<feGaussianBlur stdDeviation="12.0907"/>
<feComposite in2="hardAlpha" operator="out"/>
<feColorMatrix type="matrix" values="0 0 0 0 0 0 0 0 0 0 0 0 0 0 0 0 0 0 0.25 0"/>
<feBlend mode="normal" in2="BackgroundImageFix" result="effect1_dropShadow_860_7531"/>
<feBlend mode="normal" in="SourceGraphic" in2="effect1_dropShadow_860_7531" result="shape"/>
</filter>
<filter id="filter1_d_860_7531" x="805.542" y="875.063" width="365.743" height="142.065" filterUnits="userSpaceOnUse" color-interpolation-filters="sRGB">
<feFlood flood-opacity="0" result="BackgroundImageFix"/>
<feColorMatrix in="SourceAlpha" type="matrix" values="0 0 0 0 0 0 0 0 0 0 0 0 0 0 0 0 0 0 127 0" result="hardAlpha"/>
<feOffset dy="12.0907"/>
<feGaussianBlur stdDeviation="12.0907"/>
<feComposite in2="hardAlpha" operator="out"/>
<feColorMatrix type="matrix" values="0 0 0 0 0 0 0 0 0 0 0 0 0 0 0 0 0 0 0.25 0"/>
<feBlend mode="normal" in2="BackgroundImageFix" result="effect1_dropShadow_860_7531"/>
<feBlend mode="normal" in="SourceGraphic" in2="effect1_dropShadow_860_7531" result="shape"/>
</filter>
<radialGradient id="paint0_radial_860_7531" cx="0" cy="0" r="1" gradientUnits="userSpaceOnUse" gradientTransform="translate(356.571 318.857) rotate(53.6495) scale(983.355)">
<stop stop-color="#363636"/>
<stop offset="1" stop-color="#161616"/>
</radialGradient>
<linearGradient id="paint1_linear_860_7531" x1="358.942" y1="234.255" x2="359.698" y2="690.68" gradientUnits="userSpaceOnUse">
<stop stop-color="#7D7D7D"/>
<stop offset="1" stop-color="white" stop-opacity="0"/>
</linearGradient>
<linearGradient id="paint2_linear_860_7531" x1="173.803" y1="129.975" x2="454.912" y2="510.831" gradientUnits="userSpaceOnUse">
<stop stop-color="#1F1F1F"/>
<stop offset="1" stop-color="#272727"/>
</linearGradient>
<linearGradient id="paint3_linear_860_7531" x1="54.408" y1="309.068" x2="711.839" y2="309.068" gradientUnits="userSpaceOnUse">
<stop stop-color="#12B886"/>
<stop offset="1" stop-color="#D0DF00"/>
</linearGradient>
<linearGradient id="paint4_linear_860_7531" x1="136.02" y1="779.849" x2="1145.59" y2="779.849" gradientUnits="userSpaceOnUse">
<stop stop-color="#12B886"/>
<stop offset="1" stop-color="#D0DF00"/>
</linearGradient>
<linearGradient id="paint5_linear_860_7531" x1="438.287" y1="838.791" x2="438.287" y2="713.35" gradientUnits="userSpaceOnUse">
<stop stop-color="white" stop-opacity="0"/>
<stop offset="0.28125" stop-color="white"/>
<stop offset="0.635417" stop-color="white"/>
<stop offset="1" stop-color="white" stop-opacity="0"/>
</linearGradient>
<linearGradient id="paint6_linear_860_7531" x1="831.234" y1="838.791" x2="831.234" y2="713.35" gradientUnits="userSpaceOnUse">
<stop stop-color="white" stop-opacity="0"/>
<stop offset="0.28125" stop-color="white"/>
<stop offset="0.635417" stop-color="white"/>
<stop offset="1" stop-color="white" stop-opacity="0"/>
</linearGradient>
<linearGradient id="paint7_linear_860_7531" x1="352.141" y1="1073.8" x2="372.544" y2="1073.8" gradientUnits="userSpaceOnUse">
<stop stop-color="#12B886"/>
<stop offset="1" stop-color="#D0DF00"/>
</linearGradient>
<linearGradient id="paint8_linear_860_7531" x1="324.937" y1="1053.4" x2="406.549" y2="1053.4" gradientUnits="userSpaceOnUse">
<stop stop-color="#12B886"/>
<stop offset="1" stop-color="#D0DF00"/>
</linearGradient>
<linearGradient id="paint9_linear_860_7531" x1="202.514" y1="1053.44" x2="281.035" y2="1053.44" gradientUnits="userSpaceOnUse">
<stop stop-color="#12B886"/>
<stop offset="1" stop-color="#D0DF00"/>
</linearGradient>
<linearGradient id="paint10_linear_860_7531" x1="442.917" y1="1018.64" x2="509.226" y2="1018.64" gradientUnits="userSpaceOnUse">
<stop stop-color="#12B886"/>
<stop offset="1" stop-color="#D0DF00"/>
</linearGradient>
<linearGradient id="paint11_linear_860_7531" x1="442.917" y1="1018.64" x2="509.226" y2="1018.64" gradientUnits="userSpaceOnUse">
<stop stop-color="#12B886"/>
<stop offset="1" stop-color="#D0DF00"/>
</linearGradient>
<linearGradient id="paint12_linear_860_7531" x1="646.851" y1="1053.4" x2="737.531" y2="1053.4" gradientUnits="userSpaceOnUse">
<stop stop-color="#12B886"/>
<stop offset="1" stop-color="#D0DF00"/>
</linearGradient>
<linearGradient id="paint13_linear_860_7531" x1="541.814" y1="1053.4" x2="618.892" y2="1053.4" gradientUnits="userSpaceOnUse">
<stop stop-color="#12B886"/>
<stop offset="1" stop-color="#D0DF00"/>
</linearGradient>
<linearGradient id="paint14_linear_860_7531" x1="441.31" y1="1102.49" x2="513.854" y2="1102.49" gradientUnits="userSpaceOnUse">
<stop stop-color="#12B886"/>
<stop offset="1" stop-color="#D0DF00"/>
</linearGradient>
<radialGradient id="paint15_radial_860_7531" cx="0" cy="0" r="1" gradientUnits="userSpaceOnUse" gradientTransform="translate(924.644 912.76) rotate(21.4036) scale(163.999 116.722)">
<stop stop-color="#363636"/>
<stop offset="1" stop-color="#161616"/>
</radialGradient>
<linearGradient id="paint16_linear_860_7531" x1="774" y1="136.5" x2="1162" y2="136.5" gradientUnits="userSpaceOnUse">
<stop stop-color="#12B886"/>
<stop offset="1" stop-color="#D0DF00"/>
</linearGradient>
<clipPath id="clip0_860_7531">
<rect width="1200" height="1200" rx="50" fill="white"/>
</clipPath>
<clipPath id="clip1_860_7531">
<rect width="108.816" height="108.816" fill="white" transform="translate(311.335 998.992)"/>
</clipPath>
<clipPath id="clip2_860_7531">
<rect width="78.5894" height="78.5894" fill="white" transform="translate(202.519 1014.11)"/>
</clipPath>
<clipPath id="clip3_860_7531">
<rect width="81.6121" height="81.6121" fill="white" transform="translate(435.265 977.833)"/>
</clipPath>
<clipPath id="clip4_860_7531">
<rect width="102.771" height="102.771" fill="white" transform="translate(528.967 1002.01)"/>
</clipPath>
<clipPath id="clip5_860_7531">
<rect width="72.5441" height="72.5441" fill="white" transform="translate(441.31 1068.51)"/>
</clipPath>
</defs>
</svg>
